<svg width="431" height="468" viewBox="0 0 431 468" fill="none" xmlns="http://www.w3.org/2000/svg">
<g opacity="0.05" filter="url(#filter0_f_294_2)">
<rect x="72.9358" y="74.8755" width="284.745" height="317.744" rx="8" fill="#611DF2"/>
</g>
<g filter="url(#filter1_b_294_2)">
<rect x="41.356" y="39.6359" width="347.905" height="388.224" rx="8" fill="#222222" fill-opacity="0.11"/>
</g>
<circle cx="221.797" cy="218.425" r="16.8951" fill="white" fill-opacity="0.05" stroke="white" stroke-width="1.14543"/>
<circle cx="177.188" cy="218.425" r="16.8951" fill="#611DF2" fill-opacity="0.05" stroke="#611DF2" stroke-width="1.14543"/>
<circle cx="308.696" cy="218.425" r="16.8951" fill="#EE2A70" fill-opacity="0.05" stroke="#EE2A70" stroke-width="1.14543"/>
<path d="M75.9166 76.5052V66.8836H76.755L81.1535 74.3884H80.7136L85.0708 66.8836H85.9093V76.5052H84.9334V68.4093H85.1671L81.1535 75.2819H80.6724L76.6313 68.4093H76.8925V76.5052H75.9166ZM91.7796 76.5739C91.0831 76.5739 90.4554 76.4181 89.8965 76.1066C89.3467 75.7859 88.9114 75.3506 88.5907 74.8008C88.27 74.2418 88.1096 73.605 88.1096 72.8902C88.1096 72.1663 88.27 71.5294 88.5907 70.9796C88.9114 70.4298 89.3467 69.9991 89.8965 69.6876C90.4463 69.376 91.074 69.2202 91.7796 69.2202C92.4943 69.2202 93.1266 69.376 93.6764 69.6876C94.2354 69.9991 94.6706 70.4298 94.9822 70.9796C95.3029 71.5294 95.4633 72.1663 95.4633 72.8902C95.4633 73.605 95.3029 74.2418 94.9822 74.8008C94.6706 75.3506 94.2354 75.7859 93.6764 76.1066C93.1174 76.4181 92.4851 76.5739 91.7796 76.5739ZM91.7796 75.708C92.3019 75.708 92.7646 75.5934 93.1678 75.3643C93.571 75.1261 93.8871 74.7962 94.1162 74.3747C94.3545 73.944 94.4736 73.4492 94.4736 72.8902C94.4736 72.3221 94.3545 71.8272 94.1162 71.4057C93.8871 70.9842 93.571 70.6589 93.1678 70.4298C92.7646 70.1916 92.3065 70.0725 91.7933 70.0725C91.2801 70.0725 90.822 70.1916 90.4188 70.4298C90.0156 70.6589 89.6949 70.9842 89.4566 71.4057C89.2184 71.8272 89.0992 72.3221 89.0992 72.8902C89.0992 73.4492 89.2184 73.944 89.4566 74.3747C89.6949 74.7962 90.0156 75.1261 90.4188 75.3643C90.822 75.5934 91.2756 75.708 91.7796 75.708ZM101.139 69.2202C101.726 69.2202 102.239 69.3348 102.679 69.5639C103.128 69.7838 103.476 70.1228 103.723 70.581C103.98 71.0392 104.108 71.6165 104.108 72.3129V76.5052H103.132V72.4091C103.132 71.6486 102.94 71.0758 102.555 70.691C102.179 70.297 101.648 70.0999 100.961 70.0999C100.448 70.0999 99.9985 70.2053 99.6137 70.4161C99.238 70.6177 98.9447 70.9155 98.734 71.3095C98.5324 71.6944 98.4316 72.1617 98.4316 72.7115V76.5052H97.4557V69.289H98.3903V71.2683L98.2391 70.8972C98.4682 70.3748 98.8348 69.9671 99.3387 69.6738C99.8427 69.3714 100.443 69.2202 101.139 69.2202ZM109.026 76.5739C108.348 76.5739 107.826 76.3906 107.459 76.0241C107.093 75.6576 106.909 75.1398 106.909 74.4709V67.6945H107.885V74.4159C107.885 74.8374 107.991 75.1627 108.201 75.3918C108.421 75.6209 108.733 75.7355 109.136 75.7355C109.567 75.7355 109.924 75.6118 110.208 75.3643L110.552 76.0653C110.359 76.2394 110.126 76.3677 109.851 76.4502C109.585 76.5327 109.31 76.5739 109.026 76.5739ZM105.617 70.0999V69.289H110.084V70.0999H105.617ZM116.012 69.2202C116.599 69.2202 117.112 69.3348 117.552 69.5639C118.001 69.7838 118.349 70.1228 118.596 70.581C118.853 71.0392 118.981 71.6165 118.981 72.3129V76.5052H118.005V72.4091C118.005 71.6486 117.813 71.0758 117.428 70.691C117.052 70.297 116.521 70.0999 115.833 70.0999C115.32 70.0999 114.871 70.2053 114.486 70.4161C114.111 70.6177 113.817 70.9155 113.607 71.3095C113.405 71.6944 113.304 72.1617 113.304 72.7115V76.5052H112.328V66.3063H113.304V71.2683L113.112 70.8972C113.341 70.3748 113.707 69.9671 114.211 69.6738C114.715 69.3714 115.316 69.2202 116.012 69.2202ZM121.617 76.5052V66.3063H122.593V76.5052H121.617ZM125.363 79.2405C125.024 79.2405 124.699 79.1855 124.387 79.0755C124.085 78.9656 123.824 78.8006 123.604 78.5807L124.058 77.8522C124.241 78.0263 124.438 78.1592 124.649 78.2508C124.869 78.3516 125.111 78.402 125.377 78.402C125.698 78.402 125.973 78.3104 126.202 78.1271C126.44 77.953 126.665 77.6415 126.875 77.1924L127.343 76.1341L127.453 75.9829L130.422 69.289H131.384L127.769 77.3711C127.567 77.8385 127.343 78.2096 127.095 78.4845C126.857 78.7594 126.596 78.9518 126.312 79.0618C126.028 79.1809 125.712 79.2405 125.363 79.2405ZM127.288 76.7114L123.961 69.289H124.979L127.92 75.9141L127.288 76.7114Z" fill="white"/>
<path d="M151.41 76.5052L148.166 66.8836H149.21L152.248 75.9416H151.726L154.86 66.8836H155.794L158.887 75.9416H158.392L161.457 66.8836H162.433L159.189 76.5052H158.117L155.162 67.9145H155.437L152.468 76.5052H151.41ZM166.607 76.5739C165.855 76.5739 165.196 76.4181 164.628 76.1066C164.059 75.7859 163.615 75.3506 163.294 74.8008C162.974 74.2418 162.813 73.605 162.813 72.8902C162.813 72.1755 162.964 71.5432 163.267 70.9934C163.578 70.4436 164 70.0129 164.531 69.7013C165.072 69.3806 165.677 69.2202 166.346 69.2202C167.024 69.2202 167.624 69.376 168.146 69.6876C168.678 69.99 169.095 70.4207 169.397 70.9796C169.7 71.5294 169.851 72.1663 169.851 72.8902C169.851 72.936 169.846 72.9864 169.837 73.0414C169.837 73.0872 169.837 73.1376 169.837 73.1926H163.555V72.4641H169.315L168.93 72.7528C168.93 72.2304 168.815 71.7677 168.586 71.3645C168.366 70.9521 168.064 70.6314 167.679 70.4023C167.294 70.1732 166.85 70.0587 166.346 70.0587C165.851 70.0587 165.406 70.1732 165.012 70.4023C164.618 70.6314 164.311 70.9521 164.092 71.3645C163.872 71.7769 163.762 72.2488 163.762 72.7802V72.9314C163.762 73.4813 163.881 73.9669 164.119 74.3884C164.366 74.8008 164.705 75.1261 165.136 75.3643C165.576 75.5934 166.075 75.708 166.634 75.708C167.074 75.708 167.482 75.6301 167.858 75.4743C168.243 75.3185 168.572 75.0803 168.847 74.7596L169.397 75.3918C169.076 75.7767 168.673 76.0699 168.188 76.2715C167.711 76.4731 167.184 76.5739 166.607 76.5739ZM174.902 76.5739C174.151 76.5739 173.491 76.4181 172.923 76.1066C172.355 75.7859 171.91 75.3506 171.59 74.8008C171.269 74.2418 171.109 73.605 171.109 72.8902C171.109 72.1755 171.26 71.5432 171.562 70.9934C171.874 70.4436 172.295 70.0129 172.827 69.7013C173.367 69.3806 173.972 69.2202 174.641 69.2202C175.319 69.2202 175.919 69.376 176.442 69.6876C176.973 69.99 177.39 70.4207 177.693 70.9796C177.995 71.5294 178.146 72.1663 178.146 72.8902C178.146 72.936 178.142 72.9864 178.132 73.0414C178.132 73.0872 178.132 73.1376 178.132 73.1926H171.851V72.4641H177.61L177.225 72.7528C177.225 72.2304 177.111 71.7677 176.882 71.3645C176.662 70.9521 176.359 70.6314 175.974 70.4023C175.59 70.1732 175.145 70.0587 174.641 70.0587C174.146 70.0587 173.702 70.1732 173.308 70.4023C172.914 70.6314 172.607 70.9521 172.387 71.3645C172.167 71.7769 172.057 72.2488 172.057 72.7802V72.9314C172.057 73.4813 172.176 73.9669 172.414 74.3884C172.662 74.8008 173.001 75.1261 173.432 75.3643C173.871 75.5934 174.371 75.708 174.93 75.708C175.37 75.708 175.777 75.6301 176.153 75.4743C176.538 75.3185 176.868 75.0803 177.143 74.7596L177.693 75.3918C177.372 75.7767 176.969 76.0699 176.483 76.2715C176.006 76.4731 175.48 76.5739 174.902 76.5739ZM180.902 74.6358L180.93 73.385L185.424 69.289H186.62L183.445 72.3267L182.895 72.794L180.902 74.6358ZM180.133 76.5052V66.3063H181.108V76.5052H180.133ZM185.727 76.5052L182.717 72.7528L183.349 71.9968L186.923 76.5052H185.727ZM188.388 76.5052V66.3063H189.364V76.5052H188.388ZM192.134 79.2405C191.795 79.2405 191.47 79.1855 191.158 79.0755C190.856 78.9656 190.595 78.8006 190.375 78.5807L190.828 77.8522C191.011 78.0263 191.208 78.1592 191.419 78.2508C191.639 78.3516 191.882 78.402 192.148 78.402C192.468 78.402 192.743 78.3104 192.972 78.1271C193.211 77.953 193.435 77.6415 193.646 77.1924L194.113 76.1341L194.223 75.9829L197.192 69.289H198.154L194.539 77.3711C194.338 77.8385 194.113 78.2096 193.866 78.4845C193.628 78.7594 193.366 78.9518 193.082 79.0618C192.798 79.1809 192.482 79.2405 192.134 79.2405ZM194.058 76.7114L190.732 69.289H191.749L194.691 75.9141L194.058 76.7114Z" fill="white" fill-opacity="0.45"/>
<path d="M307.34 76.2233L303.79 68.2053H304.706L308.028 75.7537H307.524L310.868 68.2053H311.727L308.177 76.2233H307.34ZM312.686 76.2233V70.2098H313.499V76.2233H312.686ZM313.098 68.8811C312.93 68.8811 312.789 68.8238 312.674 68.7093C312.56 68.5948 312.502 68.4573 312.502 68.2969C312.502 68.1366 312.56 68.003 312.674 67.896C312.789 67.7815 312.93 67.7242 313.098 67.7242C313.266 67.7242 313.407 67.7777 313.522 67.8846C313.636 67.9915 313.694 68.1251 313.694 68.2855C313.694 68.4535 313.636 68.5948 313.522 68.7093C313.415 68.8238 313.274 68.8811 313.098 68.8811ZM318.316 76.2806C317.69 76.2806 317.14 76.1508 316.667 75.8912C316.193 75.6239 315.823 75.2612 315.556 74.803C315.288 74.3372 315.155 73.8065 315.155 73.2108C315.155 72.6152 315.281 72.0883 315.533 71.6302C315.792 71.172 316.144 70.8131 316.587 70.5534C317.037 70.2862 317.541 70.1525 318.098 70.1525C318.664 70.1525 319.164 70.2824 319.599 70.542C320.042 70.794 320.389 71.1529 320.641 71.6187C320.893 72.0769 321.019 72.6076 321.019 73.2108C321.019 73.249 321.016 73.291 321.008 73.3368C321.008 73.375 321.008 73.417 321.008 73.4628H315.773V72.8558H320.573L320.252 73.0963C320.252 72.661 320.156 72.2754 319.966 71.9394C319.782 71.5958 319.53 71.3285 319.21 71.1376C318.889 70.9467 318.518 70.8513 318.098 70.8513C317.686 70.8513 317.316 70.9467 316.987 71.1376C316.659 71.3285 316.403 71.5958 316.22 71.9394C316.037 72.283 315.945 72.6763 315.945 73.1192V73.2452C315.945 73.7034 316.044 74.1081 316.243 74.4594C316.449 74.803 316.732 75.0741 317.09 75.2726C317.457 75.4635 317.873 75.559 318.339 75.559C318.706 75.559 319.045 75.4941 319.358 75.3643C319.679 75.2344 319.954 75.0359 320.183 74.7686L320.641 75.2955C320.374 75.6162 320.038 75.8606 319.633 76.0286C319.236 76.1966 318.797 76.2806 318.316 76.2806ZM323.788 76.2233L321.52 70.2098H322.299L324.361 75.7881H324.006L326.125 70.2098H326.824L328.92 75.7881H328.565L330.661 70.2098H331.406L329.126 76.2233H328.359L326.343 70.9773H326.583L324.556 76.2233H323.788ZM339.396 76.2233V74.8946L339.362 74.677V72.4549C339.362 71.9432 339.217 71.55 338.927 71.2751C338.644 71.0002 338.22 70.8627 337.655 70.8627C337.266 70.8627 336.895 70.9276 336.544 71.0574C336.193 71.1873 335.895 71.3591 335.651 71.5729L335.284 70.9658C335.59 70.7062 335.956 70.5076 336.384 70.3702C336.811 70.2251 337.262 70.1525 337.735 70.1525C338.514 70.1525 339.114 70.3473 339.534 70.7367C339.961 71.1185 340.175 71.7027 340.175 72.4892V76.2233H339.396ZM337.323 76.2806C336.873 76.2806 336.479 76.2081 336.143 76.063C335.815 75.9102 335.563 75.7041 335.387 75.4444C335.212 75.1772 335.124 74.8717 335.124 74.5281C335.124 74.215 335.196 73.9325 335.341 73.6805C335.494 73.4208 335.739 73.2147 336.075 73.0619C336.418 72.9016 336.876 72.8214 337.449 72.8214H339.522V73.4285H337.472C336.892 73.4285 336.487 73.5316 336.258 73.7377C336.036 73.9439 335.926 74.1997 335.926 74.5052C335.926 74.8488 336.059 75.1237 336.327 75.3299C336.594 75.5361 336.968 75.6392 337.449 75.6392C337.907 75.6392 338.301 75.5361 338.629 75.3299C338.965 75.1161 339.209 74.8106 339.362 74.4135L339.545 74.9748C339.393 75.3719 339.125 75.6888 338.743 75.9255C338.369 76.1622 337.896 76.2806 337.323 76.2806ZM342.384 76.2233V67.7242H343.197V76.2233H342.384ZM345.46 76.2233V67.7242H346.273V76.2233H345.46Z" fill="#611DF2"/>
<path d="M357.879 71.6595L355.182 74.3561C355.13 74.4064 355.089 74.4665 355.06 74.5329C355.032 74.5994 355.017 74.6709 355.016 74.7432C355.016 74.8156 355.029 74.8873 355.057 74.9543C355.084 75.0212 355.125 75.082 355.176 75.1332C355.227 75.1843 355.288 75.2248 355.355 75.2522C355.422 75.2796 355.493 75.2933 355.566 75.2927C355.638 75.2921 355.71 75.2771 355.776 75.2485C355.842 75.22 355.903 75.1785 355.953 75.1264L359.035 72.0446C359.137 71.9425 359.194 71.8039 359.194 71.6595C359.194 71.515 359.137 71.3765 359.035 71.2743L355.953 68.1925C355.85 68.0933 355.712 68.0384 355.57 68.0396C355.427 68.0409 355.29 68.0982 355.189 68.1992C355.088 68.3002 355.031 68.4368 355.03 68.5797C355.028 68.7225 355.083 68.8601 355.182 68.9628L357.879 71.6595Z" fill="#611DF2"/>
<rect x="76.0408" y="85.2684" width="50.3989" height="1.14543" fill="#611DF2"/>
<path d="M130.89 223.215V214.464L131.46 215.088H128.795V213.934H132.203V223.215H130.89Z" fill="white"/>
<path d="M174.134 223.215V222.313L177.913 218.667C178.248 218.349 178.496 218.071 178.655 217.832C178.823 217.585 178.933 217.359 178.986 217.156C179.048 216.944 179.079 216.74 179.079 216.546C179.079 216.069 178.911 215.693 178.575 215.419C178.24 215.145 177.749 215.008 177.104 215.008C176.609 215.008 176.162 215.092 175.765 215.26C175.367 215.419 175.022 215.671 174.731 216.016L173.829 215.233C174.183 214.783 174.655 214.438 175.248 214.199C175.849 213.952 176.507 213.828 177.223 213.828C177.868 213.828 178.43 213.934 178.907 214.146C179.384 214.35 179.751 214.646 180.007 215.035C180.272 215.423 180.405 215.883 180.405 216.413C180.405 216.714 180.365 217.01 180.286 217.302C180.206 217.593 180.056 217.903 179.835 218.23C179.614 218.557 179.296 218.924 178.88 219.33L175.513 222.578L175.195 222.061H180.803V223.215H174.134Z" fill="white"/>
<path d="M221.896 223.321C221.242 223.321 220.606 223.219 219.987 223.016C219.377 222.813 218.878 222.539 218.489 222.194L219.099 221.147C219.408 221.438 219.81 221.677 220.305 221.863C220.8 222.048 221.331 222.141 221.896 222.141C222.586 222.141 223.121 221.995 223.501 221.703C223.889 221.403 224.084 221.001 224.084 220.497C224.084 220.011 223.898 219.622 223.527 219.33C223.165 219.03 222.586 218.879 221.79 218.879H221.048V217.951L223.806 214.557L223.991 215.088H218.913V213.934H225.039V214.836L222.294 218.217L221.605 217.806H222.042C223.165 217.806 224.004 218.057 224.561 218.561C225.127 219.065 225.41 219.706 225.41 220.484C225.41 221.005 225.282 221.482 225.025 221.916C224.769 222.349 224.38 222.693 223.859 222.95C223.346 223.197 222.692 223.321 221.896 223.321Z" fill="white"/>
<path d="M263 220.934V220.006L267.746 213.934H269.178L264.471 220.006L263.795 219.794H271.206V220.934H263ZM268.157 223.215V220.934L268.197 219.794V217.779H269.443V223.215H268.157Z" fill="white"/>
<path d="M308.732 223.321C308.078 223.321 307.442 223.219 306.823 223.016C306.213 222.813 305.714 222.539 305.325 222.194L305.935 221.147C306.244 221.438 306.646 221.677 307.141 221.863C307.636 222.048 308.162 222.141 308.719 222.141C309.426 222.141 309.97 221.991 310.35 221.69C310.73 221.39 310.92 220.987 310.92 220.484C310.92 220.139 310.836 219.838 310.668 219.582C310.5 219.326 310.208 219.131 309.793 218.999C309.386 218.857 308.825 218.787 308.109 218.787H306.001L306.492 213.934H311.729V215.088H306.982L307.672 214.438L307.287 218.27L306.598 217.633H308.387C309.316 217.633 310.062 217.752 310.628 217.991C311.194 218.23 311.605 218.561 311.861 218.985C312.117 219.401 312.246 219.883 312.246 220.431C312.246 220.961 312.117 221.447 311.861 221.889C311.605 222.322 311.216 222.671 310.694 222.936C310.182 223.193 309.528 223.321 308.732 223.321Z" fill="white"/>
<path d="M352.897 223.321C352.075 223.321 351.373 223.14 350.789 222.777C350.206 222.415 349.759 221.893 349.45 221.213C349.15 220.523 348.999 219.684 348.999 218.694C348.999 217.642 349.185 216.754 349.556 216.029C349.927 215.304 350.444 214.756 351.107 214.385C351.77 214.014 352.53 213.828 353.388 213.828C353.83 213.828 354.25 213.872 354.647 213.961C355.054 214.049 355.403 214.186 355.695 214.372L355.191 215.406C354.952 215.238 354.678 215.123 354.369 215.061C354.068 214.999 353.75 214.968 353.414 214.968C352.469 214.968 351.717 215.264 351.16 215.857C350.604 216.44 350.325 217.311 350.325 218.468C350.325 218.654 350.334 218.875 350.352 219.131C350.369 219.388 350.414 219.64 350.484 219.887L350.033 219.436C350.166 219.03 350.374 218.689 350.657 218.415C350.948 218.133 351.293 217.925 351.691 217.792C352.097 217.651 352.535 217.58 353.003 217.58C353.622 217.58 354.17 217.695 354.647 217.925C355.125 218.155 355.5 218.482 355.774 218.906C356.048 219.321 356.185 219.816 356.185 220.391C356.185 220.983 356.039 221.5 355.748 221.942C355.456 222.384 355.063 222.724 354.568 222.963C354.073 223.202 353.516 223.321 352.897 223.321ZM352.844 222.247C353.251 222.247 353.604 222.172 353.905 222.022C354.214 221.871 354.457 221.664 354.634 221.398C354.811 221.124 354.899 220.806 354.899 220.444C354.899 219.896 354.709 219.463 354.329 219.145C353.949 218.818 353.432 218.654 352.778 218.654C352.354 218.654 351.982 218.734 351.664 218.893C351.346 219.052 351.094 219.268 350.909 219.542C350.732 219.808 350.643 220.112 350.643 220.457C350.643 220.775 350.727 221.071 350.895 221.345C351.063 221.611 351.311 221.827 351.638 221.995C351.965 222.163 352.367 222.247 352.844 222.247Z" fill="white"/>
<path d="M82.3319 267.409L86.2696 258.685L86.6143 259.282H81.0989L81.7618 258.632V260.939H80.4891V258.128H87.4894V259.03L83.7373 267.409H82.3319Z" fill="white"/>
<path d="M131.475 267.515C130.724 267.515 130.074 267.405 129.526 267.184C128.978 266.963 128.554 266.649 128.253 266.242C127.953 265.827 127.803 265.341 127.803 264.784C127.803 264.236 127.944 263.772 128.227 263.392C128.518 263.003 128.938 262.711 129.486 262.517C130.034 262.313 130.697 262.212 131.475 262.212C132.253 262.212 132.916 262.313 133.464 262.517C134.021 262.711 134.445 263.003 134.737 263.392C135.028 263.781 135.174 264.245 135.174 264.784C135.174 265.341 135.024 265.827 134.723 266.242C134.423 266.649 133.994 266.963 133.437 267.184C132.88 267.405 132.226 267.515 131.475 267.515ZM131.475 266.441C132.218 266.441 132.796 266.291 133.212 265.99C133.636 265.681 133.848 265.266 133.848 264.744C133.848 264.231 133.636 263.829 133.212 263.538C132.796 263.237 132.218 263.087 131.475 263.087C130.741 263.087 130.167 263.237 129.751 263.538C129.336 263.829 129.128 264.231 129.128 264.744C129.128 265.266 129.336 265.681 129.751 265.99C130.167 266.291 130.741 266.441 131.475 266.441ZM131.475 262.928C130.768 262.928 130.167 262.835 129.672 262.649C129.177 262.455 128.797 262.181 128.532 261.827C128.267 261.465 128.134 261.036 128.134 260.541C128.134 260.02 128.271 259.573 128.545 259.202C128.828 258.822 129.221 258.53 129.725 258.327C130.229 258.124 130.812 258.022 131.475 258.022C132.147 258.022 132.735 258.124 133.238 258.327C133.742 258.53 134.136 258.822 134.418 259.202C134.701 259.573 134.843 260.02 134.843 260.541C134.843 261.036 134.71 261.465 134.445 261.827C134.18 262.181 133.795 262.455 133.291 262.649C132.788 262.835 132.182 262.928 131.475 262.928ZM131.475 262.079C132.12 262.079 132.624 261.947 132.986 261.681C133.358 261.416 133.543 261.054 133.543 260.594C133.543 260.126 133.353 259.759 132.973 259.494C132.593 259.229 132.094 259.096 131.475 259.096C130.856 259.096 130.361 259.229 129.99 259.494C129.628 259.759 129.447 260.126 129.447 260.594C129.447 261.054 129.623 261.416 129.977 261.681C130.339 261.947 130.839 262.079 131.475 262.079Z" fill="white"/>
<path d="M176.952 258.022C177.792 258.022 178.499 258.203 179.073 258.566C179.656 258.928 180.098 259.454 180.399 260.143C180.699 260.824 180.85 261.659 180.85 262.649C180.85 263.701 180.664 264.589 180.293 265.314C179.922 266.039 179.409 266.587 178.755 266.958C178.101 267.329 177.336 267.515 176.461 267.515C176.028 267.515 175.608 267.471 175.202 267.382C174.804 267.294 174.455 267.157 174.154 266.971L174.658 265.937C174.906 266.096 175.18 266.211 175.48 266.282C175.79 266.344 176.112 266.375 176.448 266.375C177.385 266.375 178.132 266.083 178.689 265.5C179.245 264.908 179.524 264.033 179.524 262.875C179.524 262.689 179.515 262.468 179.497 262.212C179.48 261.955 179.44 261.704 179.378 261.456L179.816 261.907C179.692 262.313 179.484 262.658 179.192 262.941C178.91 263.215 178.565 263.423 178.158 263.564C177.761 263.697 177.323 263.763 176.846 263.763C176.236 263.763 175.692 263.648 175.215 263.418C174.738 263.188 174.362 262.866 174.088 262.45C173.814 262.026 173.677 261.527 173.677 260.952C173.677 260.351 173.818 259.834 174.101 259.401C174.393 258.959 174.786 258.619 175.281 258.38C175.785 258.142 176.342 258.022 176.952 258.022ZM177.005 259.096C176.607 259.096 176.254 259.171 175.944 259.321C175.635 259.472 175.392 259.679 175.215 259.945C175.047 260.21 174.963 260.528 174.963 260.899C174.963 261.447 175.153 261.885 175.533 262.212C175.913 262.53 176.426 262.689 177.071 262.689C177.495 262.689 177.867 262.609 178.185 262.45C178.512 262.291 178.764 262.075 178.941 261.801C179.126 261.527 179.219 261.222 179.219 260.886C179.219 260.559 179.135 260.263 178.967 259.998C178.799 259.732 178.552 259.516 178.225 259.348C177.898 259.18 177.491 259.096 177.005 259.096Z" fill="white"/>
<path d="M217.227 267.409V258.659L217.797 259.282H215.133V258.128H218.54V267.409H217.227ZM224.362 267.515C223.637 267.515 222.987 267.329 222.413 266.958C221.847 266.587 221.396 266.048 221.061 265.341C220.734 264.634 220.57 263.776 220.57 262.769C220.57 261.761 220.734 260.904 221.061 260.197C221.396 259.489 221.847 258.95 222.413 258.579C222.987 258.208 223.637 258.022 224.362 258.022C225.078 258.022 225.723 258.208 226.298 258.579C226.872 258.95 227.323 259.489 227.65 260.197C227.977 260.904 228.14 261.761 228.14 262.769C228.14 263.776 227.977 264.634 227.65 265.341C227.323 266.048 226.872 266.587 226.298 266.958C225.723 267.329 225.078 267.515 224.362 267.515ZM224.362 266.335C224.848 266.335 225.272 266.202 225.635 265.937C226.006 265.672 226.293 265.274 226.496 264.744C226.709 264.214 226.815 263.555 226.815 262.769C226.815 261.982 226.709 261.323 226.496 260.793C226.293 260.263 226.006 259.865 225.635 259.6C225.272 259.335 224.848 259.202 224.362 259.202C223.876 259.202 223.447 259.335 223.076 259.6C222.705 259.865 222.413 260.263 222.201 260.793C221.997 261.323 221.896 261.982 221.896 262.769C221.896 263.555 221.997 264.214 222.201 264.744C222.413 265.274 222.705 265.672 223.076 265.937C223.447 266.202 223.876 266.335 224.362 266.335Z" fill="white"/>
<path d="M263.619 267.409V258.659L264.189 259.282H261.524V258.128H264.932V267.409H263.619ZM268.526 267.409V258.659L269.096 259.282H266.432V258.128H269.839V267.409H268.526Z" fill="white"/>
<path d="M305.137 267.409V258.659L305.707 259.282H303.042V258.128H306.45V267.409H305.137ZM308.334 267.409V266.507L312.112 262.861C312.448 262.543 312.696 262.265 312.855 262.026C313.023 261.779 313.133 261.553 313.186 261.35C313.248 261.138 313.279 260.935 313.279 260.74C313.279 260.263 313.111 259.887 312.775 259.613C312.439 259.339 311.949 259.202 311.304 259.202C310.809 259.202 310.362 259.286 309.965 259.454C309.567 259.613 309.222 259.865 308.93 260.21L308.029 259.428C308.382 258.977 308.855 258.632 309.448 258.393C310.049 258.146 310.707 258.022 311.423 258.022C312.068 258.022 312.629 258.128 313.107 258.34C313.584 258.544 313.951 258.84 314.207 259.229C314.472 259.618 314.605 260.077 314.605 260.608C314.605 260.908 314.565 261.204 314.486 261.496C314.406 261.787 314.256 262.097 314.035 262.424C313.814 262.751 313.496 263.118 313.08 263.524L309.713 266.773L309.394 266.255H315.003V267.409H308.334Z" fill="white"/>
<path d="M348.198 267.409V258.659L348.768 259.282H346.104V258.128H349.511V267.409H348.198ZM354.378 267.515C353.724 267.515 353.088 267.413 352.469 267.21C351.859 267.007 351.36 266.733 350.971 266.388L351.581 265.341C351.89 265.632 352.292 265.871 352.787 266.057C353.282 266.242 353.813 266.335 354.378 266.335C355.068 266.335 355.602 266.189 355.982 265.898C356.371 265.597 356.566 265.195 356.566 264.691C356.566 264.205 356.38 263.816 356.009 263.524C355.647 263.224 355.068 263.074 354.272 263.074H353.53V262.145L356.287 258.751L356.473 259.282H351.395V258.128H357.52V259.03L354.776 262.411L354.087 262H354.524C355.647 262 356.486 262.252 357.043 262.755C357.609 263.259 357.892 263.9 357.892 264.678C357.892 265.199 357.763 265.677 357.507 266.11C357.251 266.543 356.862 266.887 356.34 267.144C355.828 267.391 355.174 267.515 354.378 267.515Z" fill="white"/>
<path d="M79.534 180.273C78.8269 180.273 78.1507 180.167 77.5055 179.954C76.8603 179.734 76.352 179.451 75.9808 179.106L76.4714 178.072C76.8249 178.381 77.2757 178.638 77.8237 178.841C78.3717 179.044 78.9418 179.146 79.534 179.146C80.0732 179.146 80.5107 179.084 80.8465 178.96C81.1824 178.836 81.4299 178.668 81.589 178.456C81.7481 178.235 81.8276 177.988 81.8276 177.714C81.8276 177.396 81.7216 177.139 81.5095 176.945C81.3062 176.75 81.0366 176.596 80.7007 176.481C80.3737 176.357 80.0113 176.251 79.6135 176.163C79.2158 176.074 78.8136 175.973 78.407 175.858C78.0093 175.734 77.6425 175.579 77.3066 175.394C76.9796 175.208 76.7144 174.961 76.5111 174.651C76.3078 174.333 76.2062 173.926 76.2062 173.431C76.2062 172.954 76.3299 172.517 76.5774 172.119C76.8338 171.712 77.2227 171.39 77.7441 171.151C78.2745 170.904 78.9462 170.78 79.7594 170.78C80.2985 170.78 80.8333 170.851 81.3636 170.992C81.8939 171.133 82.3536 171.337 82.7425 171.602L82.3049 172.663C81.9072 172.397 81.4874 172.207 81.0454 172.092C80.6035 171.969 80.1748 171.907 79.7594 171.907C79.2379 171.907 78.8092 171.973 78.4733 172.106C78.1375 172.238 77.89 172.415 77.7309 172.636C77.5806 172.857 77.5055 173.104 77.5055 173.378C77.5055 173.705 77.6071 173.966 77.8104 174.161C78.0226 174.355 78.2921 174.51 78.6192 174.625C78.9551 174.74 79.3219 174.846 79.7196 174.943C80.1173 175.031 80.5151 175.133 80.9128 175.248C81.3194 175.363 81.6862 175.513 82.0133 175.699C82.3491 175.884 82.6187 176.132 82.822 176.441C83.0253 176.75 83.1269 177.148 83.1269 177.634C83.1269 178.103 82.9988 178.54 82.7425 178.947C82.4861 179.345 82.0884 179.667 81.5492 179.915C81.0189 180.153 80.3472 180.273 79.534 180.273ZM87.8348 180.246C87.2338 180.246 86.7035 180.136 86.2438 179.915C85.7931 179.694 85.4395 179.358 85.1832 178.907C84.9357 178.447 84.812 177.873 84.812 177.184V173.14H86.0848V177.038C86.0848 177.727 86.2483 178.244 86.5753 178.589C86.9112 178.934 87.3796 179.106 87.9807 179.106C88.4226 179.106 88.8071 179.018 89.1341 178.841C89.4612 178.655 89.7131 178.39 89.8898 178.045C90.0666 177.692 90.155 177.268 90.155 176.773V173.14H91.4278V180.167H90.2213V178.271L90.4202 178.775C90.1904 179.243 89.8456 179.605 89.386 179.862C88.9264 180.118 88.4093 180.246 87.8348 180.246Z" fill="white" fill-opacity="0.2"/>
<path d="M120.741 180.167V170.886H121.829L125.992 177.899H125.408L129.518 170.886H130.605L130.619 180.167H129.346L129.333 172.888H129.638L125.978 179.04H125.368L121.683 172.888H122.014V180.167H120.741ZM136.228 180.246C135.521 180.246 134.893 180.091 134.345 179.782C133.797 179.473 133.364 179.049 133.046 178.509C132.728 177.961 132.569 177.343 132.569 176.653C132.569 175.955 132.728 175.336 133.046 174.797C133.364 174.258 133.797 173.838 134.345 173.538C134.893 173.228 135.521 173.074 136.228 173.074C136.926 173.074 137.549 173.228 138.097 173.538C138.654 173.838 139.087 174.258 139.397 174.797C139.715 175.327 139.874 175.946 139.874 176.653C139.874 177.351 139.715 177.97 139.397 178.509C139.087 179.049 138.654 179.473 138.097 179.782C137.549 180.091 136.926 180.246 136.228 180.246ZM136.228 179.132C136.679 179.132 137.081 179.031 137.434 178.828C137.797 178.624 138.08 178.337 138.283 177.966C138.486 177.586 138.588 177.148 138.588 176.653C138.588 176.149 138.486 175.716 138.283 175.354C138.08 174.983 137.797 174.695 137.434 174.492C137.081 174.289 136.679 174.187 136.228 174.187C135.777 174.187 135.375 174.289 135.021 174.492C134.668 174.695 134.385 174.983 134.173 175.354C133.961 175.716 133.855 176.149 133.855 176.653C133.855 177.148 133.961 177.586 134.173 177.966C134.385 178.337 134.668 178.624 135.021 178.828C135.375 179.031 135.777 179.132 136.228 179.132Z" fill="white" fill-opacity="0.2"/>
<path d="M172.004 180.167V172.039H168.822V170.886H176.499V172.039H173.317V180.167H172.004ZM180.546 180.246C179.945 180.246 179.414 180.136 178.955 179.915C178.504 179.694 178.15 179.358 177.894 178.907C177.646 178.447 177.523 177.873 177.523 177.184V173.14H178.795V177.038C178.795 177.727 178.959 178.244 179.286 178.589C179.622 178.934 180.09 179.106 180.691 179.106C181.133 179.106 181.518 179.018 181.845 178.841C182.172 178.655 182.424 178.39 182.601 178.045C182.777 177.692 182.866 177.268 182.866 176.773V173.14H184.139V180.167H182.932V178.271L183.131 178.775C182.901 179.243 182.556 179.605 182.097 179.862C181.637 180.118 181.12 180.246 180.546 180.246Z" fill="white" fill-opacity="0.2"/>
<path d="M214.433 180.167L211.331 170.886H212.696L215.547 179.451H214.857L217.814 170.886H219.033L221.924 179.451H221.261L224.151 170.886H225.411L222.308 180.167H220.916L218.211 172.225H218.569L215.852 180.167H214.433ZM229.445 180.246C228.694 180.246 228.031 180.091 227.456 179.782C226.891 179.473 226.449 179.049 226.13 178.509C225.821 177.97 225.666 177.351 225.666 176.653C225.666 175.955 225.817 175.336 226.117 174.797C226.427 174.258 226.846 173.838 227.377 173.538C227.916 173.228 228.521 173.074 229.193 173.074C229.874 173.074 230.475 173.224 230.996 173.524C231.518 173.825 231.924 174.249 232.216 174.797C232.516 175.336 232.667 175.968 232.667 176.693C232.667 176.746 232.662 176.808 232.653 176.879C232.653 176.949 232.649 177.016 232.64 177.077H226.661V176.163H231.977L231.46 176.481C231.469 176.03 231.376 175.628 231.182 175.274C230.987 174.921 230.718 174.647 230.373 174.452C230.037 174.249 229.644 174.147 229.193 174.147C228.751 174.147 228.358 174.249 228.013 174.452C227.668 174.647 227.399 174.925 227.204 175.288C227.01 175.641 226.913 176.048 226.913 176.507V176.72C226.913 177.188 227.019 177.608 227.231 177.979C227.452 178.341 227.757 178.624 228.146 178.828C228.535 179.031 228.981 179.132 229.485 179.132C229.9 179.132 230.276 179.062 230.612 178.92C230.956 178.779 231.257 178.567 231.513 178.284L232.216 179.106C231.898 179.477 231.5 179.76 231.023 179.954C230.554 180.149 230.028 180.246 229.445 180.246Z" fill="white" fill-opacity="0.2"/>
<path d="M261.468 180.167V172.039H258.286V170.886H265.963V172.039H262.781V180.167H261.468ZM270.973 173.074C271.548 173.074 272.051 173.184 272.484 173.405C272.926 173.626 273.271 173.962 273.519 174.413C273.766 174.863 273.89 175.433 273.89 176.123V180.167H272.617V176.269C272.617 175.588 272.449 175.076 272.113 174.731C271.786 174.386 271.322 174.214 270.721 174.214C270.27 174.214 269.877 174.302 269.541 174.479C269.205 174.656 268.945 174.916 268.759 175.261C268.582 175.606 268.494 176.035 268.494 176.547V180.167H267.221V170.329H268.494V175.036L268.242 174.532C268.472 174.072 268.825 173.714 269.303 173.458C269.78 173.202 270.337 173.074 270.973 173.074Z" fill="white" fill-opacity="0.2"/>
<path d="M304.44 175.274H309.226V176.415H304.44V175.274ZM304.572 180.167H303.246V170.886H309.796V172.039H304.572V180.167ZM311.347 180.167V173.14H312.567V175.049L312.447 174.572C312.642 174.086 312.969 173.714 313.429 173.458C313.888 173.202 314.454 173.074 315.126 173.074V174.307C315.073 174.298 315.02 174.293 314.966 174.293C314.922 174.293 314.878 174.293 314.834 174.293C314.153 174.293 313.614 174.497 313.216 174.903C312.819 175.31 312.62 175.898 312.62 176.666V180.167H311.347Z" fill="white" fill-opacity="0.2"/>
<path d="M348.032 180.273C347.325 180.273 346.649 180.167 346.003 179.954C345.358 179.734 344.85 179.451 344.479 179.106L344.969 178.072C345.323 178.381 345.774 178.638 346.322 178.841C346.87 179.044 347.44 179.146 348.032 179.146C348.571 179.146 349.009 179.084 349.345 178.96C349.68 178.836 349.928 178.668 350.087 178.456C350.246 178.235 350.326 177.988 350.326 177.714C350.326 177.396 350.22 177.139 350.007 176.945C349.804 176.75 349.535 176.596 349.199 176.481C348.872 176.357 348.509 176.251 348.112 176.163C347.714 176.074 347.312 175.973 346.905 175.858C346.507 175.734 346.14 175.579 345.805 175.394C345.478 175.208 345.212 174.961 345.009 174.651C344.806 174.333 344.704 173.926 344.704 173.431C344.704 172.954 344.828 172.517 345.075 172.119C345.332 171.712 345.721 171.39 346.242 171.151C346.772 170.904 347.444 170.78 348.257 170.78C348.797 170.78 349.331 170.851 349.862 170.992C350.392 171.133 350.852 171.337 351.24 171.602L350.803 172.663C350.405 172.397 349.985 172.207 349.543 172.092C349.101 171.969 348.673 171.907 348.257 171.907C347.736 171.907 347.307 171.973 346.971 172.106C346.635 172.238 346.388 172.415 346.229 172.636C346.079 172.857 346.003 173.104 346.003 173.378C346.003 173.705 346.105 173.966 346.308 174.161C346.521 174.355 346.79 174.51 347.117 174.625C347.453 174.74 347.82 174.846 348.218 174.943C348.615 175.031 349.013 175.133 349.411 175.248C349.817 175.363 350.184 175.513 350.511 175.699C350.847 175.884 351.117 176.132 351.32 176.441C351.523 176.75 351.625 177.148 351.625 177.634C351.625 178.103 351.497 178.54 351.24 178.947C350.984 179.345 350.586 179.667 350.047 179.915C349.517 180.153 348.845 180.273 348.032 180.273ZM357.738 180.167V178.682L357.672 178.403V175.871C357.672 175.332 357.513 174.916 357.195 174.625C356.885 174.324 356.417 174.174 355.789 174.174C355.374 174.174 354.967 174.245 354.569 174.386C354.172 174.519 353.836 174.7 353.562 174.93L353.032 173.975C353.394 173.683 353.827 173.462 354.331 173.312C354.843 173.153 355.378 173.074 355.935 173.074C356.899 173.074 357.641 173.308 358.162 173.776C358.684 174.245 358.945 174.961 358.945 175.924V180.167H357.738ZM355.431 180.246C354.91 180.246 354.45 180.158 354.052 179.981C353.664 179.804 353.363 179.561 353.151 179.252C352.939 178.934 352.833 178.576 352.833 178.178C352.833 177.798 352.921 177.453 353.098 177.144C353.283 176.834 353.58 176.587 353.986 176.401C354.402 176.216 354.958 176.123 355.657 176.123H357.884V177.038H355.71C355.073 177.038 354.645 177.144 354.424 177.356C354.203 177.568 354.092 177.824 354.092 178.125C354.092 178.47 354.229 178.748 354.503 178.96C354.777 179.163 355.157 179.265 355.643 179.265C356.121 179.265 356.536 179.159 356.89 178.947C357.252 178.735 357.513 178.425 357.672 178.019L357.924 178.894C357.756 179.309 357.46 179.641 357.036 179.888C356.611 180.127 356.077 180.246 355.431 180.246Z" fill="white" fill-opacity="0.2"/>
<path d="M79.6041 311.603V302.852L80.1742 303.475H77.5093V302.322H80.9167V311.603H79.6041ZM82.8141 309.322V308.394L87.5605 302.322H88.9924L84.2858 308.394L83.6096 308.182H91.0209V309.322H82.8141ZM87.9715 311.603V309.322L88.0113 308.182V306.167H89.2576V311.603H87.9715Z" fill="white"/>
<path d="M127.217 311.603V302.852L127.787 303.475H125.122V302.322H128.529V311.603H127.217ZM133.556 311.709C132.902 311.709 132.265 311.607 131.646 311.404C131.037 311.2 130.537 310.926 130.148 310.582L130.758 309.534C131.067 309.826 131.47 310.065 131.965 310.25C132.46 310.436 132.986 310.529 133.542 310.529C134.249 310.529 134.793 310.378 135.173 310.078C135.553 309.777 135.743 309.375 135.743 308.871C135.743 308.527 135.659 308.226 135.491 307.97C135.323 307.713 135.032 307.519 134.616 307.386C134.21 307.245 133.648 307.174 132.932 307.174H130.824L131.315 302.322H136.552V303.475H131.806L132.495 302.826L132.11 306.657L131.421 306.021H133.211C134.139 306.021 134.886 306.14 135.452 306.379C136.017 306.617 136.428 306.949 136.685 307.373C136.941 307.789 137.069 308.27 137.069 308.818C137.069 309.349 136.941 309.835 136.685 310.277C136.428 310.71 136.039 311.059 135.518 311.324C135.005 311.58 134.351 311.709 133.556 311.709Z" fill="white"/>
<path d="M172.344 311.603V302.852L172.914 303.475H170.249V302.322H173.656V311.603H172.344ZM179.584 311.709C178.762 311.709 178.059 311.527 177.476 311.165C176.893 310.803 176.446 310.281 176.137 309.601C175.837 308.911 175.686 308.071 175.686 307.082C175.686 306.03 175.872 305.141 176.243 304.417C176.614 303.692 177.131 303.144 177.794 302.773C178.457 302.401 179.217 302.216 180.075 302.216C180.517 302.216 180.937 302.26 181.334 302.348C181.741 302.437 182.09 302.574 182.382 302.759L181.878 303.793C181.639 303.626 181.365 303.511 181.056 303.449C180.755 303.387 180.437 303.356 180.101 303.356C179.156 303.356 178.404 303.652 177.847 304.244C177.291 304.828 177.012 305.698 177.012 306.856C177.012 307.042 177.021 307.263 177.039 307.519C177.056 307.775 177.1 308.027 177.171 308.275L176.72 307.824C176.853 307.417 177.061 307.077 177.344 306.803C177.635 306.52 177.98 306.313 178.378 306.18C178.784 306.039 179.222 305.968 179.69 305.968C180.309 305.968 180.857 306.083 181.334 306.313C181.812 306.542 182.187 306.869 182.461 307.294C182.735 307.709 182.872 308.204 182.872 308.779C182.872 309.371 182.726 309.888 182.435 310.33C182.143 310.772 181.75 311.112 181.255 311.351C180.76 311.589 180.203 311.709 179.584 311.709ZM179.531 310.635C179.938 310.635 180.291 310.56 180.592 310.409C180.901 310.259 181.144 310.051 181.321 309.786C181.498 309.512 181.586 309.194 181.586 308.832C181.586 308.284 181.396 307.85 181.016 307.532C180.636 307.205 180.119 307.042 179.465 307.042C179.041 307.042 178.669 307.121 178.351 307.28C178.033 307.439 177.781 307.656 177.595 307.93C177.419 308.195 177.33 308.5 177.33 308.845C177.33 309.163 177.414 309.459 177.582 309.733C177.75 309.998 177.998 310.215 178.325 310.383C178.652 310.551 179.054 310.635 179.531 310.635Z" fill="white"/>
<path d="M217.74 311.603V302.852L218.31 303.475H215.645V302.322H219.052V311.603H217.74ZM222.686 311.603L226.624 302.879L226.969 303.475H221.453L222.116 302.826V305.133H220.843V302.322H227.844V303.223L224.092 311.603H222.686Z" fill="white"/>
<path d="M261.702 311.603V302.852L262.272 303.475H259.607V302.322H263.015V311.603H261.702ZM268.664 311.709C267.913 311.709 267.263 311.598 266.715 311.377C266.167 311.156 265.743 310.842 265.442 310.436C265.142 310.02 264.992 309.534 264.992 308.977C264.992 308.429 265.133 307.965 265.416 307.585C265.708 307.196 266.127 306.905 266.675 306.71C267.223 306.507 267.886 306.405 268.664 306.405C269.442 306.405 270.105 306.507 270.653 306.71C271.21 306.905 271.634 307.196 271.926 307.585C272.217 307.974 272.363 308.438 272.363 308.977C272.363 309.534 272.213 310.02 271.912 310.436C271.612 310.842 271.183 311.156 270.626 311.377C270.07 311.598 269.415 311.709 268.664 311.709ZM268.664 310.635C269.407 310.635 269.986 310.484 270.401 310.184C270.825 309.875 271.037 309.459 271.037 308.938C271.037 308.425 270.825 308.023 270.401 307.731C269.986 307.431 269.407 307.28 268.664 307.28C267.931 307.28 267.356 307.431 266.941 307.731C266.525 308.023 266.317 308.425 266.317 308.938C266.317 309.459 266.525 309.875 266.941 310.184C267.356 310.484 267.931 310.635 268.664 310.635ZM268.664 307.121C267.957 307.121 267.356 307.028 266.861 306.843C266.366 306.648 265.986 306.374 265.721 306.021C265.456 305.658 265.323 305.23 265.323 304.735C265.323 304.213 265.46 303.767 265.734 303.396C266.017 303.016 266.41 302.724 266.914 302.521C267.418 302.317 268.001 302.216 268.664 302.216C269.336 302.216 269.924 302.317 270.428 302.521C270.931 302.724 271.325 303.016 271.607 303.396C271.89 303.767 272.032 304.213 272.032 304.735C272.032 305.23 271.899 305.658 271.634 306.021C271.369 306.374 270.984 306.648 270.481 306.843C269.977 307.028 269.371 307.121 268.664 307.121ZM268.664 306.273C269.309 306.273 269.813 306.14 270.176 305.875C270.547 305.61 270.732 305.247 270.732 304.788C270.732 304.319 270.542 303.953 270.162 303.687C269.782 303.422 269.283 303.29 268.664 303.29C268.045 303.29 267.55 303.422 267.179 303.687C266.817 303.953 266.636 304.319 266.636 304.788C266.636 305.247 266.812 305.61 267.166 305.875C267.528 306.14 268.028 306.273 268.664 306.273Z" fill="white"/>
<path d="M304.352 311.603V302.852L304.922 303.475H302.257V302.322H305.665V311.603H304.352ZM310.704 302.216C311.544 302.216 312.251 302.397 312.826 302.759C313.409 303.122 313.851 303.648 314.152 304.337C314.452 305.018 314.602 305.853 314.602 306.843C314.602 307.895 314.417 308.783 314.045 309.508C313.674 310.233 313.162 310.781 312.508 311.152C311.853 311.523 311.089 311.709 310.214 311.709C309.781 311.709 309.361 311.664 308.954 311.576C308.557 311.488 308.207 311.351 307.907 311.165L308.411 310.131C308.658 310.29 308.932 310.405 309.233 310.476C309.542 310.537 309.865 310.568 310.201 310.568C311.138 310.568 311.884 310.277 312.441 309.693C312.998 309.101 313.277 308.226 313.277 307.068C313.277 306.883 313.268 306.662 313.25 306.405C313.232 306.149 313.193 305.897 313.131 305.65L313.568 306.1C313.444 306.507 313.237 306.852 312.945 307.135C312.662 307.409 312.318 307.616 311.911 307.758C311.513 307.89 311.076 307.957 310.598 307.957C309.988 307.957 309.445 307.842 308.968 307.612C308.49 307.382 308.115 307.059 307.841 306.644C307.567 306.22 307.43 305.72 307.43 305.146C307.43 304.545 307.571 304.028 307.854 303.595C308.146 303.153 308.539 302.812 309.034 302.574C309.538 302.335 310.095 302.216 310.704 302.216ZM310.757 303.29C310.36 303.29 310.006 303.365 309.697 303.515C309.387 303.665 309.144 303.873 308.968 304.138C308.8 304.403 308.716 304.722 308.716 305.093C308.716 305.641 308.906 306.078 309.286 306.405C309.666 306.724 310.179 306.883 310.824 306.883C311.248 306.883 311.619 306.803 311.937 306.644C312.264 306.485 312.516 306.268 312.693 305.994C312.879 305.72 312.972 305.415 312.972 305.08C312.972 304.753 312.888 304.456 312.72 304.191C312.552 303.926 312.304 303.71 311.977 303.542C311.65 303.374 311.244 303.29 310.757 303.29Z" fill="white"/>
<path d="M344.856 311.603V310.701L348.635 307.055C348.971 306.737 349.218 306.458 349.377 306.22C349.545 305.972 349.656 305.747 349.709 305.544C349.77 305.331 349.801 305.128 349.801 304.934C349.801 304.456 349.633 304.081 349.298 303.807C348.962 303.533 348.471 303.396 347.826 303.396C347.331 303.396 346.885 303.48 346.487 303.648C346.089 303.807 345.744 304.059 345.453 304.403L344.551 303.621C344.905 303.17 345.378 302.826 345.97 302.587C346.571 302.34 347.229 302.216 347.945 302.216C348.59 302.216 349.152 302.322 349.629 302.534C350.106 302.737 350.473 303.033 350.729 303.422C350.995 303.811 351.127 304.271 351.127 304.801C351.127 305.102 351.087 305.398 351.008 305.689C350.928 305.981 350.778 306.29 350.557 306.617C350.336 306.945 350.018 307.311 349.603 307.718L346.235 310.966L345.917 310.449H351.525V311.603H344.856ZM356.394 311.709C355.669 311.709 355.019 311.523 354.445 311.152C353.879 310.781 353.428 310.241 353.093 309.534C352.766 308.827 352.602 307.97 352.602 306.962C352.602 305.955 352.766 305.097 353.093 304.39C353.428 303.683 353.879 303.144 354.445 302.773C355.019 302.401 355.669 302.216 356.394 302.216C357.11 302.216 357.755 302.401 358.33 302.773C358.904 303.144 359.355 303.683 359.682 304.39C360.009 305.097 360.172 305.955 360.172 306.962C360.172 307.97 360.009 308.827 359.682 309.534C359.355 310.241 358.904 310.781 358.33 311.152C357.755 311.523 357.11 311.709 356.394 311.709ZM356.394 310.529C356.88 310.529 357.304 310.396 357.667 310.131C358.038 309.866 358.325 309.468 358.528 308.938C358.741 308.407 358.847 307.749 358.847 306.962C358.847 306.176 358.741 305.517 358.528 304.987C358.325 304.456 358.038 304.059 357.667 303.793C357.304 303.528 356.88 303.396 356.394 303.396C355.908 303.396 355.479 303.528 355.108 303.793C354.737 304.059 354.445 304.456 354.233 304.987C354.03 305.517 353.928 306.176 353.928 306.962C353.928 307.749 354.03 308.407 354.233 308.938C354.445 309.468 354.737 309.866 355.108 310.131C355.479 310.396 355.908 310.529 356.394 310.529Z" fill="white"/>
<path d="M79.0217 355.796V354.895L82.8003 351.249C83.1362 350.93 83.3837 350.652 83.5428 350.413C83.7107 350.166 83.8212 349.94 83.8742 349.737C83.9361 349.525 83.967 349.322 83.967 349.127C83.967 348.65 83.7991 348.274 83.4632 348C83.1273 347.726 82.6368 347.589 81.9916 347.589C81.4966 347.589 81.0502 347.673 80.6525 347.841C80.2548 348 79.91 348.252 79.6184 348.597L78.7168 347.815C79.0704 347.364 79.5432 347.019 80.1354 346.781C80.7365 346.533 81.395 346.409 82.1109 346.409C82.7561 346.409 83.3174 346.515 83.7947 346.728C84.272 346.931 84.6388 347.227 84.8951 347.616C85.1603 348.005 85.2928 348.464 85.2928 348.995C85.2928 349.295 85.2531 349.591 85.1735 349.883C85.094 350.175 84.9437 350.484 84.7227 350.811C84.5018 351.138 84.1836 351.505 83.7682 351.912L80.4006 355.16L80.0824 354.643H85.6906V355.796H79.0217ZM88.3451 355.796V347.046L88.9152 347.669H86.2503V346.515H89.6577V355.796H88.3451Z" fill="white"/>
<path d="M123.548 355.796V354.895L127.327 351.249C127.663 350.93 127.91 350.652 128.069 350.413C128.237 350.166 128.348 349.94 128.401 349.737C128.463 349.525 128.494 349.322 128.494 349.127C128.494 348.65 128.326 348.274 127.99 348C127.654 347.726 127.163 347.589 126.518 347.589C126.023 347.589 125.577 347.673 125.179 347.841C124.781 348 124.437 348.252 124.145 348.597L123.243 347.815C123.597 347.364 124.07 347.019 124.662 346.781C125.263 346.533 125.922 346.409 126.638 346.409C127.283 346.409 127.844 346.515 128.321 346.728C128.799 346.931 129.165 347.227 129.422 347.616C129.687 348.005 129.819 348.464 129.819 348.995C129.819 349.295 129.78 349.591 129.7 349.883C129.621 350.175 129.47 350.484 129.249 350.811C129.028 351.138 128.71 351.505 128.295 351.912L124.927 355.16L124.609 354.643H130.217V355.796H123.548ZM131.161 355.796V354.895L134.94 351.249C135.276 350.93 135.523 350.652 135.682 350.413C135.85 350.166 135.961 349.94 136.014 349.737C136.076 349.525 136.107 349.322 136.107 349.127C136.107 348.65 135.939 348.274 135.603 348C135.267 347.726 134.777 347.589 134.131 347.589C133.636 347.589 133.19 347.673 132.792 347.841C132.394 348 132.05 348.252 131.758 348.597L130.857 347.815C131.21 347.364 131.683 347.019 132.275 346.781C132.876 346.533 133.535 346.409 134.251 346.409C134.896 346.409 135.457 346.515 135.934 346.728C136.412 346.931 136.778 347.227 137.035 347.616C137.3 348.005 137.433 348.464 137.433 348.995C137.433 349.295 137.393 349.591 137.313 349.883C137.234 350.175 137.083 350.484 136.862 350.811C136.641 351.138 136.323 351.505 135.908 351.912L132.54 355.16L132.222 354.643H137.83V355.796H131.161Z" fill="white"/>
<path d="M169.473 355.796V354.895L173.252 351.249C173.588 350.93 173.835 350.652 173.994 350.413C174.162 350.166 174.273 349.94 174.326 349.737C174.388 349.525 174.418 349.322 174.418 349.127C174.418 348.65 174.251 348.274 173.915 348C173.579 347.726 173.088 347.589 172.443 347.589C171.948 347.589 171.502 347.673 171.104 347.841C170.706 348 170.361 348.252 170.07 348.597L169.168 347.815C169.522 347.364 169.995 347.019 170.587 346.781C171.188 346.533 171.846 346.409 172.562 346.409C173.208 346.409 173.769 346.515 174.246 346.728C174.723 346.931 175.09 347.227 175.347 347.616C175.612 348.005 175.744 348.464 175.744 348.995C175.744 349.295 175.705 349.591 175.625 349.883C175.545 350.175 175.395 350.484 175.174 350.811C174.953 351.138 174.635 351.505 174.22 351.912L170.852 355.16L170.534 354.643H176.142V355.796H169.473ZM180.069 355.902C179.415 355.902 178.779 355.801 178.16 355.597C177.55 355.394 177.051 355.12 176.662 354.775L177.272 353.728C177.581 354.02 177.983 354.258 178.478 354.444C178.973 354.629 179.504 354.722 180.069 354.722C180.759 354.722 181.294 354.576 181.674 354.285C182.062 353.984 182.257 353.582 182.257 353.078C182.257 352.592 182.071 352.203 181.7 351.912C181.338 351.611 180.759 351.461 179.963 351.461H179.221V350.533L181.979 347.139L182.164 347.669H177.086V346.515H183.212V347.417L180.467 350.798L179.778 350.387H180.215C181.338 350.387 182.177 350.639 182.734 351.143C183.3 351.646 183.583 352.287 183.583 353.065C183.583 353.586 183.455 354.064 183.198 354.497C182.942 354.93 182.553 355.275 182.032 355.531C181.519 355.778 180.865 355.902 180.069 355.902Z" fill="white"/>
<path d="M214.676 355.796V354.895L218.454 351.249C218.79 350.93 219.038 350.652 219.197 350.413C219.365 350.166 219.475 349.94 219.528 349.737C219.59 349.525 219.621 349.322 219.621 349.127C219.621 348.65 219.453 348.274 219.117 348C218.781 347.726 218.291 347.589 217.646 347.589C217.151 347.589 216.704 347.673 216.307 347.841C215.909 348 215.564 348.252 215.272 348.597L214.371 347.815C214.724 347.364 215.197 347.019 215.79 346.781C216.391 346.533 217.049 346.409 217.765 346.409C218.41 346.409 218.972 346.515 219.449 346.728C219.926 346.931 220.293 347.227 220.549 347.616C220.814 348.005 220.947 348.464 220.947 348.995C220.947 349.295 220.907 349.591 220.828 349.883C220.748 350.175 220.598 350.484 220.377 350.811C220.156 351.138 219.838 351.505 219.422 351.912L216.055 355.16L215.737 354.643H221.345V355.796H214.676ZM222.043 353.516V352.588L226.79 346.515H228.222L223.515 352.588L222.839 352.376H230.25V353.516H222.043ZM227.201 355.796V353.516L227.24 352.376V350.36H228.487V355.796H227.201Z" fill="white"/>
<path d="M258.993 355.796V354.895L262.772 351.249C263.107 350.93 263.355 350.652 263.514 350.413C263.682 350.166 263.792 349.94 263.845 349.737C263.907 349.525 263.938 349.322 263.938 349.127C263.938 348.65 263.77 348.274 263.434 348C263.099 347.726 262.608 347.589 261.963 347.589C261.468 347.589 261.021 347.673 260.624 347.841C260.226 348 259.881 348.252 259.59 348.597L258.688 347.815C259.042 347.364 259.514 347.019 260.107 346.781C260.708 346.533 261.366 346.409 262.082 346.409C262.727 346.409 263.289 346.515 263.766 346.728C264.243 346.931 264.61 347.227 264.866 347.616C265.131 348.005 265.264 348.464 265.264 348.995C265.264 349.295 265.224 349.591 265.145 349.883C265.065 350.175 264.915 350.484 264.694 350.811C264.473 351.138 264.155 351.505 263.739 351.912L260.372 355.16L260.054 354.643H265.662V355.796H258.993ZM269.748 355.902C269.094 355.902 268.458 355.801 267.839 355.597C267.229 355.394 266.73 355.12 266.341 354.775L266.951 353.728C267.26 354.02 267.662 354.258 268.157 354.444C268.652 354.629 269.178 354.722 269.735 354.722C270.442 354.722 270.986 354.572 271.366 354.271C271.746 353.971 271.936 353.569 271.936 353.065C271.936 352.72 271.852 352.42 271.684 352.163C271.516 351.907 271.224 351.713 270.809 351.58C270.402 351.439 269.841 351.368 269.125 351.368H267.017L267.508 346.515H272.745V347.669H267.998L268.688 347.019L268.303 350.851L267.614 350.214H269.403C270.332 350.214 271.078 350.334 271.644 350.572C272.21 350.811 272.621 351.143 272.877 351.567C273.133 351.982 273.262 352.464 273.262 353.012C273.262 353.542 273.133 354.028 272.877 354.47C272.621 354.903 272.232 355.253 271.71 355.518C271.198 355.774 270.544 355.902 269.748 355.902Z" fill="white"/>
<path d="M301.19 355.796V354.895L304.969 351.249C305.305 350.93 305.552 350.652 305.711 350.413C305.879 350.166 305.99 349.94 306.043 349.737C306.105 349.525 306.136 349.322 306.136 349.127C306.136 348.65 305.968 348.274 305.632 348C305.296 347.726 304.805 347.589 304.16 347.589C303.665 347.589 303.219 347.673 302.821 347.841C302.423 348 302.079 348.252 301.787 348.597L300.885 347.815C301.239 347.364 301.712 347.019 302.304 346.781C302.905 346.533 303.564 346.409 304.28 346.409C304.925 346.409 305.486 346.515 305.963 346.728C306.441 346.931 306.807 347.227 307.064 347.616C307.329 348.005 307.462 348.464 307.462 348.995C307.462 349.295 307.422 349.591 307.342 349.883C307.263 350.175 307.112 350.484 306.891 350.811C306.67 351.138 306.352 351.505 305.937 351.912L302.569 355.16L302.251 354.643H307.859V355.796H301.19ZM312.834 355.902C312.012 355.902 311.31 355.721 310.726 355.359C310.143 354.996 309.697 354.475 309.387 353.794C309.087 353.105 308.936 352.265 308.936 351.275C308.936 350.223 309.122 349.335 309.493 348.61C309.864 347.885 310.382 347.337 311.044 346.966C311.707 346.595 312.467 346.409 313.325 346.409C313.767 346.409 314.187 346.454 314.584 346.542C314.991 346.63 315.34 346.767 315.632 346.953L315.128 347.987C314.889 347.819 314.615 347.704 314.306 347.642C314.005 347.581 313.687 347.55 313.351 347.55C312.406 347.55 311.654 347.846 311.097 348.438C310.541 349.021 310.262 349.892 310.262 351.05C310.262 351.235 310.271 351.456 310.289 351.713C310.306 351.969 310.351 352.221 310.421 352.468L309.971 352.018C310.103 351.611 310.311 351.271 310.594 350.997C310.885 350.714 311.23 350.506 311.628 350.374C312.034 350.232 312.472 350.161 312.94 350.161C313.559 350.161 314.107 350.276 314.584 350.506C315.062 350.736 315.437 351.063 315.711 351.487C315.985 351.903 316.122 352.398 316.122 352.972C316.122 353.564 315.976 354.081 315.685 354.523C315.393 354.965 315 355.306 314.505 355.544C314.01 355.783 313.453 355.902 312.834 355.902ZM312.781 354.828C313.188 354.828 313.541 354.753 313.842 354.603C314.151 354.453 314.394 354.245 314.571 353.98C314.748 353.706 314.836 353.388 314.836 353.025C314.836 352.477 314.646 352.044 314.266 351.726C313.886 351.399 313.369 351.235 312.715 351.235C312.291 351.235 311.919 351.315 311.601 351.474C311.283 351.633 311.031 351.85 310.846 352.124C310.669 352.389 310.58 352.694 310.58 353.038C310.58 353.357 310.664 353.653 310.832 353.927C311 354.192 311.248 354.408 311.575 354.576C311.902 354.744 312.304 354.828 312.781 354.828Z" fill="white"/>
<path d="M344.921 355.796V354.895L348.7 351.249C349.035 350.93 349.283 350.652 349.442 350.413C349.61 350.166 349.72 349.94 349.773 349.737C349.835 349.525 349.866 349.322 349.866 349.127C349.866 348.65 349.698 348.274 349.362 348C349.027 347.726 348.536 347.589 347.891 347.589C347.396 347.589 346.949 347.673 346.552 347.841C346.154 348 345.809 348.252 345.518 348.597L344.616 347.815C344.97 347.364 345.442 347.019 346.035 346.781C346.636 346.533 347.294 346.409 348.01 346.409C348.655 346.409 349.217 346.515 349.694 346.728C350.171 346.931 350.538 347.227 350.794 347.616C351.059 348.005 351.192 348.464 351.192 348.995C351.192 349.295 351.152 349.591 351.073 349.883C350.993 350.175 350.843 350.484 350.622 350.811C350.401 351.138 350.083 351.505 349.667 351.912L346.3 355.16L345.982 354.643H351.59V355.796H344.921ZM354.271 355.796L358.209 347.072L358.554 347.669H353.038L353.701 347.019V349.326H352.428V346.515H359.429V347.417L355.677 355.796H354.271Z" fill="white"/>
<path d="M77.1041 399.99V399.088L80.8827 395.442C81.2186 395.124 81.4661 394.846 81.6252 394.607C81.7931 394.36 81.9036 394.134 81.9566 393.931C82.0185 393.719 82.0494 393.516 82.0494 393.321C82.0494 392.844 81.8815 392.468 81.5456 392.194C81.2097 391.92 80.7192 391.783 80.074 391.783C79.579 391.783 79.1326 391.867 78.7349 392.035C78.3371 392.194 77.9924 392.446 77.7007 392.791L76.7992 392.009C77.1527 391.558 77.6256 391.213 78.2178 390.974C78.8188 390.727 79.4773 390.603 80.1933 390.603C80.8385 390.603 81.3998 390.709 81.8771 390.921C82.3544 391.125 82.7212 391.421 82.9775 391.81C83.2426 392.199 83.3752 392.658 83.3752 393.189C83.3752 393.489 83.3355 393.785 83.2559 394.077C83.1764 394.369 83.0261 394.678 82.8051 395.005C82.5842 395.332 82.266 395.699 81.8505 396.105L78.483 399.354L78.1648 398.837H83.773V399.99H77.1041ZM88.4825 400.096C87.7312 400.096 87.0816 399.986 86.5336 399.765C85.9856 399.544 85.5613 399.23 85.2608 398.823C84.9603 398.408 84.81 397.922 84.81 397.365C84.81 396.817 84.9514 396.353 85.2343 395.973C85.5259 395.584 85.9458 395.292 86.4938 395.098C87.0418 394.894 87.7047 394.793 88.4825 394.793C89.2603 394.793 89.9232 394.894 90.4712 395.098C91.0281 395.292 91.4523 395.584 91.744 395.973C92.0357 396.362 92.1815 396.826 92.1815 397.365C92.1815 397.922 92.0313 398.408 91.7307 398.823C91.4302 399.23 91.0016 399.544 90.4447 399.765C89.8879 399.986 89.2338 400.096 88.4825 400.096ZM88.4825 399.022C89.225 399.022 89.8039 398.872 90.2193 398.571C90.6436 398.262 90.8557 397.847 90.8557 397.325C90.8557 396.812 90.6436 396.41 90.2193 396.119C89.8039 395.818 89.225 395.668 88.4825 395.668C87.7489 395.668 87.1744 395.818 86.7589 396.119C86.3435 396.41 86.1358 396.812 86.1358 397.325C86.1358 397.847 86.3435 398.262 86.7589 398.571C87.1744 398.872 87.7489 399.022 88.4825 399.022ZM88.4825 395.509C87.7754 395.509 87.1744 395.416 86.6794 395.23C86.1844 395.036 85.8044 394.762 85.5392 394.408C85.274 394.046 85.1415 393.617 85.1415 393.122C85.1415 392.601 85.2785 392.154 85.5525 391.783C85.8353 391.403 86.2286 391.111 86.7324 390.908C87.2362 390.705 87.8196 390.603 88.4825 390.603C89.1543 390.603 89.742 390.705 90.2458 390.908C90.7496 391.111 91.143 391.403 91.4258 391.783C91.7087 392.154 91.8501 392.601 91.8501 393.122C91.8501 393.617 91.7175 394.046 91.4523 394.408C91.1872 394.762 90.8027 395.036 90.2989 395.23C89.7951 395.416 89.1896 395.509 88.4825 395.509ZM88.4825 394.66C89.1277 394.66 89.6315 394.528 89.9939 394.262C90.3652 393.997 90.5508 393.635 90.5508 393.175C90.5508 392.707 90.3607 392.34 89.9807 392.075C89.6006 391.81 89.1012 391.677 88.4825 391.677C87.8638 391.677 87.3688 391.81 86.9976 392.075C86.6352 392.34 86.454 392.707 86.454 393.175C86.454 393.635 86.6308 393.997 86.9843 394.262C87.3467 394.528 87.8461 394.66 88.4825 394.66Z" fill="white"/>
<path d="M123.264 399.99V399.088L127.042 395.442C127.378 395.124 127.625 394.846 127.785 394.607C127.952 394.36 128.063 394.134 128.116 393.931C128.178 393.719 128.209 393.516 128.209 393.321C128.209 392.844 128.041 392.468 127.705 392.194C127.369 391.92 126.879 391.783 126.233 391.783C125.738 391.783 125.292 391.867 124.894 392.035C124.497 392.194 124.152 392.446 123.86 392.791L122.959 392.009C123.312 391.558 123.785 391.213 124.377 390.974C124.978 390.727 125.637 390.603 126.353 390.603C126.998 390.603 127.559 390.709 128.036 390.921C128.514 391.125 128.881 391.421 129.137 391.81C129.402 392.199 129.535 392.658 129.535 393.189C129.535 393.489 129.495 393.785 129.415 394.077C129.336 394.369 129.186 394.678 128.965 395.005C128.744 395.332 128.425 395.699 128.01 396.105L124.642 399.354L124.324 398.837H129.932V399.99H123.264ZM134.032 390.603C134.872 390.603 135.579 390.784 136.153 391.147C136.737 391.509 137.179 392.035 137.479 392.725C137.78 393.405 137.93 394.24 137.93 395.23C137.93 396.282 137.744 397.17 137.373 397.895C137.002 398.62 136.489 399.168 135.835 399.539C135.181 399.91 134.417 400.096 133.541 400.096C133.108 400.096 132.689 400.052 132.282 399.963C131.884 399.875 131.535 399.738 131.235 399.552L131.738 398.518C131.986 398.677 132.26 398.792 132.56 398.863C132.87 398.925 133.192 398.956 133.528 398.956C134.465 398.956 135.212 398.664 135.769 398.081C136.326 397.489 136.604 396.614 136.604 395.456C136.604 395.27 136.595 395.049 136.578 394.793C136.56 394.536 136.52 394.285 136.458 394.037L136.896 394.488C136.772 394.894 136.564 395.239 136.273 395.522C135.99 395.796 135.645 396.004 135.239 396.145C134.841 396.278 134.403 396.344 133.926 396.344C133.316 396.344 132.773 396.229 132.295 395.999C131.818 395.769 131.442 395.447 131.168 395.031C130.894 394.607 130.757 394.108 130.757 393.533C130.757 392.932 130.899 392.415 131.182 391.982C131.473 391.54 131.867 391.2 132.362 390.961C132.865 390.723 133.422 390.603 134.032 390.603ZM134.085 391.677C133.687 391.677 133.334 391.752 133.024 391.903C132.715 392.053 132.472 392.26 132.295 392.526C132.127 392.791 132.043 393.109 132.043 393.48C132.043 394.028 132.233 394.466 132.613 394.793C132.993 395.111 133.506 395.27 134.151 395.27C134.576 395.27 134.947 395.191 135.265 395.031C135.592 394.872 135.844 394.656 136.021 394.382C136.206 394.108 136.299 393.803 136.299 393.467C136.299 393.14 136.215 392.844 136.047 392.579C135.879 392.314 135.632 392.097 135.305 391.929C134.978 391.761 134.571 391.677 134.085 391.677Z" fill="white"/>
<path d="M172.789 400.096C172.135 400.096 171.499 399.994 170.88 399.791C170.27 399.588 169.771 399.314 169.382 398.969L169.992 397.922C170.301 398.213 170.703 398.452 171.198 398.638C171.693 398.823 172.223 398.916 172.789 398.916C173.478 398.916 174.013 398.77 174.393 398.479C174.782 398.178 174.977 397.776 174.977 397.272C174.977 396.786 174.791 396.397 174.42 396.105C174.057 395.805 173.478 395.655 172.683 395.655H171.941V394.727L174.698 391.332L174.884 391.863H169.806V390.709H175.931V391.611L173.187 394.992L172.497 394.581H172.935C174.057 394.581 174.897 394.833 175.454 395.336C176.02 395.84 176.302 396.481 176.302 397.259C176.302 397.78 176.174 398.258 175.918 398.691C175.662 399.124 175.273 399.469 174.751 399.725C174.239 399.972 173.585 400.096 172.789 400.096ZM181.331 400.096C180.606 400.096 179.956 399.91 179.382 399.539C178.816 399.168 178.365 398.629 178.03 397.922C177.702 397.215 177.539 396.357 177.539 395.35C177.539 394.342 177.702 393.485 178.03 392.778C178.365 392.07 178.816 391.531 179.382 391.16C179.956 390.789 180.606 390.603 181.331 390.603C182.047 390.603 182.692 390.789 183.266 391.16C183.841 391.531 184.292 392.07 184.619 392.778C184.946 393.485 185.109 394.342 185.109 395.35C185.109 396.357 184.946 397.215 184.619 397.922C184.292 398.629 183.841 399.168 183.266 399.539C182.692 399.91 182.047 400.096 181.331 400.096ZM181.331 398.916C181.817 398.916 182.241 398.784 182.604 398.518C182.975 398.253 183.262 397.855 183.465 397.325C183.677 396.795 183.784 396.136 183.784 395.35C183.784 394.563 183.677 393.905 183.465 393.374C183.262 392.844 182.975 392.446 182.604 392.181C182.241 391.916 181.817 391.783 181.331 391.783C180.845 391.783 180.416 391.916 180.045 392.181C179.674 392.446 179.382 392.844 179.17 393.374C178.966 393.905 178.865 394.563 178.865 395.35C178.865 396.136 178.966 396.795 179.17 397.325C179.382 397.855 179.674 398.253 180.045 398.518C180.416 398.784 180.845 398.916 181.331 398.916Z" fill="white"/>
<path d="M219.181 400.096C218.527 400.096 217.89 399.994 217.271 399.791C216.662 399.588 216.162 399.314 215.773 398.969L216.383 397.922C216.693 398.213 217.095 398.452 217.59 398.638C218.085 398.823 218.615 398.916 219.181 398.916C219.87 398.916 220.405 398.77 220.785 398.479C221.174 398.178 221.368 397.776 221.368 397.272C221.368 396.786 221.183 396.397 220.811 396.105C220.449 395.805 219.87 395.655 219.075 395.655H218.332V394.727L221.09 391.332L221.275 391.863H216.198V390.709H222.323V391.611L219.578 394.992L218.889 394.581H219.326C220.449 394.581 221.289 394.833 221.845 395.336C222.411 395.84 222.694 396.481 222.694 397.259C222.694 397.78 222.566 398.258 222.31 398.691C222.053 399.124 221.664 399.469 221.143 399.725C220.63 399.972 219.976 400.096 219.181 400.096ZM225.495 399.99V391.24L226.065 391.863H223.4V390.709H226.808V399.99H225.495Z" fill="white"/>
<path d="M92.2018 128.05V118.428H93.0402L99.6791 126.785H99.2393V118.428H100.243V128.05H99.4042L92.7791 119.693H93.2189V128.05H92.2018ZM106.118 128.118C105.422 128.118 104.794 127.963 104.235 127.651C103.686 127.33 103.25 126.895 102.93 126.345C102.609 125.786 102.448 125.149 102.448 124.435C102.448 123.711 102.609 123.074 102.93 122.524C103.25 121.974 103.686 121.544 104.235 121.232C104.785 120.92 105.413 120.765 106.118 120.765C106.833 120.765 107.465 120.92 108.015 121.232C108.574 121.544 109.009 121.974 109.321 122.524C109.642 123.074 109.802 123.711 109.802 124.435C109.802 125.149 109.642 125.786 109.321 126.345C109.009 126.895 108.574 127.33 108.015 127.651C107.456 127.963 106.824 128.118 106.118 128.118ZM106.118 127.252C106.641 127.252 107.103 127.138 107.507 126.909C107.91 126.671 108.226 126.341 108.455 125.919C108.693 125.488 108.812 124.994 108.812 124.435C108.812 123.867 108.693 123.372 108.455 122.95C108.226 122.529 107.91 122.203 107.507 121.974C107.103 121.736 106.645 121.617 106.132 121.617C105.619 121.617 105.161 121.736 104.758 121.974C104.354 122.203 104.034 122.529 103.795 122.95C103.557 123.372 103.438 123.867 103.438 124.435C103.438 124.994 103.557 125.488 103.795 125.919C104.034 126.341 104.354 126.671 104.758 126.909C105.161 127.138 105.614 127.252 106.118 127.252ZM113.449 128.05L110.246 120.833H111.263L114.205 127.527H113.724L116.706 120.833H117.669L114.452 128.05H113.449ZM121.907 128.118C121.155 128.118 120.496 127.963 119.927 127.651C119.359 127.33 118.915 126.895 118.594 126.345C118.273 125.786 118.113 125.149 118.113 124.435C118.113 123.72 118.264 123.088 118.567 122.538C118.878 121.988 119.3 121.557 119.831 121.246C120.372 120.925 120.977 120.765 121.646 120.765C122.324 120.765 122.924 120.92 123.446 121.232C123.978 121.534 124.395 121.965 124.697 122.524C124.999 123.074 125.151 123.711 125.151 124.435C125.151 124.48 125.146 124.531 125.137 124.586C125.137 124.632 125.137 124.682 125.137 124.737H118.855V124.009H124.615L124.23 124.297C124.23 123.775 124.115 123.312 123.886 122.909C123.666 122.497 123.364 122.176 122.979 121.947C122.594 121.718 122.15 121.603 121.646 121.603C121.151 121.603 120.706 121.718 120.312 121.947C119.918 122.176 119.611 122.497 119.391 122.909C119.171 123.321 119.062 123.793 119.062 124.325V124.476C119.062 125.026 119.181 125.511 119.419 125.933C119.666 126.345 120.005 126.671 120.436 126.909C120.876 127.138 121.375 127.252 121.934 127.252C122.374 127.252 122.782 127.175 123.158 127.019C123.542 126.863 123.872 126.625 124.147 126.304L124.697 126.936C124.376 127.321 123.973 127.614 123.487 127.816C123.011 128.018 122.484 128.118 121.907 128.118ZM136.154 120.765C136.74 120.765 137.249 120.879 137.68 121.108C138.119 121.328 138.458 121.667 138.697 122.125C138.944 122.584 139.068 123.161 139.068 123.857V128.05H138.092V123.954C138.092 123.193 137.909 122.62 137.542 122.235C137.185 121.841 136.676 121.644 136.016 121.644C135.522 121.644 135.091 121.75 134.724 121.961C134.367 122.162 134.088 122.46 133.886 122.854C133.693 123.239 133.597 123.706 133.597 124.256V128.05H132.621V123.954C132.621 123.193 132.438 122.62 132.072 122.235C131.705 121.841 131.192 121.644 130.532 121.644C130.046 121.644 129.62 121.75 129.254 121.961C128.887 122.162 128.603 122.46 128.402 122.854C128.209 123.239 128.113 123.706 128.113 124.256V128.05H127.137V120.833H128.072V122.785L127.921 122.442C128.14 121.919 128.493 121.512 128.979 121.218C129.474 120.916 130.056 120.765 130.725 120.765C131.43 120.765 132.03 120.943 132.525 121.301C133.02 121.649 133.341 122.176 133.487 122.881L133.102 122.73C133.313 122.144 133.684 121.672 134.216 121.314C134.756 120.948 135.402 120.765 136.154 120.765ZM145.439 128.118C144.807 128.118 144.239 127.976 143.735 127.692C143.231 127.399 142.832 126.977 142.539 126.428C142.246 125.878 142.099 125.214 142.099 124.435C142.099 123.647 142.246 122.982 142.539 122.442C142.842 121.892 143.245 121.475 143.749 121.191C144.253 120.907 144.816 120.765 145.439 120.765C146.127 120.765 146.741 120.92 147.281 121.232C147.831 121.534 148.262 121.961 148.573 122.51C148.885 123.06 149.041 123.702 149.041 124.435C149.041 125.159 148.885 125.8 148.573 126.359C148.262 126.909 147.831 127.339 147.281 127.651C146.741 127.963 146.127 128.118 145.439 128.118ZM141.714 128.05V117.851H142.69V122.964L142.553 124.421L142.649 125.878V128.05H141.714ZM145.371 127.252C145.884 127.252 146.342 127.138 146.745 126.909C147.148 126.671 147.469 126.341 147.707 125.919C147.946 125.488 148.065 124.994 148.065 124.435C148.065 123.867 147.946 123.372 147.707 122.95C147.469 122.529 147.148 122.203 146.745 121.974C146.342 121.736 145.884 121.617 145.371 121.617C144.857 121.617 144.395 121.736 143.982 121.974C143.579 122.203 143.258 122.529 143.02 122.95C142.791 123.372 142.677 123.867 142.677 124.435C142.677 124.994 142.791 125.488 143.02 125.919C143.258 126.341 143.579 126.671 143.982 126.909C144.395 127.138 144.857 127.252 145.371 127.252ZM154.095 128.118C153.344 128.118 152.684 127.963 152.116 127.651C151.548 127.33 151.103 126.895 150.783 126.345C150.462 125.786 150.301 125.149 150.301 124.435C150.301 123.72 150.453 123.088 150.755 122.538C151.067 121.988 151.488 121.557 152.02 121.246C152.56 120.925 153.165 120.765 153.834 120.765C154.512 120.765 155.112 120.92 155.635 121.232C156.166 121.534 156.583 121.965 156.885 122.524C157.188 123.074 157.339 123.711 157.339 124.435C157.339 124.48 157.334 124.531 157.325 124.586C157.325 124.632 157.325 124.682 157.325 124.737H151.044V124.009H156.803L156.418 124.297C156.418 123.775 156.304 123.312 156.074 122.909C155.855 122.497 155.552 122.176 155.167 121.947C154.782 121.718 154.338 121.603 153.834 121.603C153.339 121.603 152.895 121.718 152.501 121.947C152.107 122.176 151.8 122.497 151.58 122.909C151.36 123.321 151.25 123.793 151.25 124.325V124.476C151.25 125.026 151.369 125.511 151.607 125.933C151.855 126.345 152.194 126.671 152.624 126.909C153.064 127.138 153.564 127.252 154.123 127.252C154.562 127.252 154.97 127.175 155.346 127.019C155.731 126.863 156.061 126.625 156.336 126.304L156.885 126.936C156.565 127.321 156.162 127.614 155.676 127.816C155.199 128.018 154.672 128.118 154.095 128.118ZM159.325 128.05V120.833H160.26V122.799L160.164 122.455C160.365 121.906 160.705 121.489 161.181 121.205C161.658 120.911 162.249 120.765 162.954 120.765V121.713C162.917 121.713 162.881 121.713 162.844 121.713C162.808 121.704 162.771 121.699 162.734 121.699C161.974 121.699 161.378 121.933 160.947 122.4C160.517 122.859 160.301 123.514 160.301 124.366V128.05H159.325ZM164.117 130.056L164.722 127.514L164.832 128.105C164.621 128.105 164.442 128.036 164.296 127.898C164.158 127.761 164.09 127.582 164.09 127.362C164.09 127.142 164.158 126.964 164.296 126.826C164.442 126.689 164.616 126.62 164.818 126.62C165.029 126.62 165.198 126.693 165.327 126.84C165.464 126.987 165.533 127.161 165.533 127.362C165.533 127.436 165.528 127.509 165.519 127.582C165.51 127.656 165.492 127.738 165.464 127.83C165.437 127.921 165.4 128.031 165.354 128.16L164.777 130.056H164.117ZM170.393 128.05V127.349L174.393 123.431C174.76 123.074 175.035 122.762 175.218 122.497C175.401 122.222 175.525 121.965 175.589 121.727C175.653 121.489 175.685 121.264 175.685 121.053C175.685 120.494 175.493 120.055 175.108 119.734C174.732 119.413 174.173 119.253 173.431 119.253C172.863 119.253 172.359 119.34 171.919 119.514C171.489 119.688 171.117 119.958 170.806 120.325L170.105 119.72C170.481 119.28 170.962 118.941 171.548 118.703C172.135 118.465 172.79 118.346 173.514 118.346C174.164 118.346 174.728 118.451 175.204 118.662C175.681 118.863 176.047 119.161 176.304 119.555C176.57 119.949 176.703 120.412 176.703 120.943C176.703 121.255 176.657 121.562 176.565 121.864C176.483 122.167 176.327 122.487 176.098 122.826C175.878 123.156 175.553 123.532 175.122 123.954L171.452 127.555L171.177 127.17H177.142V128.05H170.393ZM182.192 128.132C181.45 128.132 180.79 127.94 180.213 127.555C179.636 127.161 179.182 126.602 178.852 125.878C178.522 125.145 178.358 124.265 178.358 123.239C178.358 122.213 178.522 121.337 178.852 120.613C179.182 119.88 179.636 119.321 180.213 118.937C180.79 118.543 181.45 118.346 182.192 118.346C182.935 118.346 183.594 118.543 184.172 118.937C184.749 119.321 185.203 119.88 185.533 120.613C185.872 121.337 186.041 122.213 186.041 123.239C186.041 124.265 185.872 125.145 185.533 125.878C185.203 126.602 184.749 127.161 184.172 127.555C183.594 127.94 182.935 128.132 182.192 128.132ZM182.192 127.225C182.761 127.225 183.255 127.074 183.677 126.771C184.098 126.46 184.428 126.011 184.667 125.424C184.905 124.829 185.024 124.1 185.024 123.239C185.024 122.377 184.905 121.654 184.667 121.067C184.428 120.471 184.098 120.022 183.677 119.72C183.255 119.408 182.761 119.253 182.192 119.253C181.643 119.253 181.152 119.408 180.722 119.72C180.291 120.022 179.957 120.471 179.718 121.067C179.48 121.654 179.361 122.377 179.361 123.239C179.361 124.1 179.48 124.829 179.718 125.424C179.957 126.011 180.291 126.46 180.722 126.771C181.152 127.074 181.643 127.225 182.192 127.225ZM187.28 128.05V127.349L191.279 123.431C191.646 123.074 191.921 122.762 192.104 122.497C192.287 122.222 192.411 121.965 192.475 121.727C192.539 121.489 192.572 121.264 192.572 121.053C192.572 120.494 192.379 120.055 191.994 119.734C191.619 119.413 191.06 119.253 190.317 119.253C189.749 119.253 189.245 119.34 188.805 119.514C188.375 119.688 188.004 119.958 187.692 120.325L186.991 119.72C187.367 119.28 187.848 118.941 188.434 118.703C189.021 118.465 189.676 118.346 190.4 118.346C191.05 118.346 191.614 118.451 192.09 118.662C192.567 118.863 192.933 119.161 193.19 119.555C193.456 119.949 193.589 120.412 193.589 120.943C193.589 121.255 193.543 121.562 193.451 121.864C193.369 122.167 193.213 122.487 192.984 122.826C192.764 123.156 192.439 123.532 192.008 123.954L188.338 127.555L188.063 127.17H194.029V128.05H187.28ZM194.797 125.521V124.806L199.896 118.428H200.996L195.938 124.806L195.402 124.641H203.14V125.521H194.797ZM200.226 128.05V125.521L200.254 124.641V122.414H201.216V128.05H200.226Z" fill="white"/>
<path d="M79.338 122.495L82.1729 125.33C82.2276 125.383 82.2712 125.446 82.3013 125.516C82.3313 125.586 82.3471 125.661 82.3477 125.737C82.3484 125.813 82.3339 125.888 82.3051 125.959C82.2763 126.029 82.2338 126.093 82.18 126.147C82.1262 126.201 82.0623 126.243 81.9919 126.272C81.9215 126.301 81.8461 126.315 81.7701 126.315C81.694 126.314 81.6189 126.298 81.549 126.268C81.4791 126.238 81.4159 126.194 81.3631 126.14L78.1232 122.9C78.0159 122.792 77.9556 122.647 77.9556 122.495C77.9556 122.343 78.0159 122.197 78.1232 122.09L81.3631 118.85C81.4711 118.746 81.6158 118.688 81.7659 118.689C81.9161 118.691 82.0598 118.751 82.1659 118.857C82.2721 118.963 82.3324 119.107 82.3337 119.257C82.335 119.407 82.2772 119.552 82.1729 119.66L79.338 122.495Z" fill="#611DF2"/>
<path d="M213.632 122.495L210.797 125.33C210.742 125.383 210.698 125.446 210.668 125.516C210.638 125.586 210.622 125.661 210.622 125.737C210.621 125.813 210.636 125.888 210.664 125.959C210.693 126.029 210.736 126.093 210.789 126.147C210.843 126.201 210.907 126.243 210.978 126.272C211.048 126.301 211.123 126.315 211.199 126.315C211.275 126.314 211.351 126.298 211.42 126.268C211.49 126.238 211.554 126.194 211.606 126.14L214.846 122.9C214.954 122.792 215.014 122.647 215.014 122.495C215.014 122.343 214.954 122.197 214.846 122.09L211.606 118.85C211.498 118.746 211.354 118.688 211.204 118.689C211.053 118.691 210.91 118.751 210.804 118.857C210.697 118.963 210.637 119.107 210.636 119.257C210.635 119.407 210.692 119.552 210.797 119.66L213.632 122.495Z" fill="#611DF2"/>
<defs>
<filter id="filter0_f_294_2" x="-1.76421" y="0.175491" width="434.145" height="467.144" filterUnits="userSpaceOnUse" color-interpolation-filters="sRGB">
<feFlood flood-opacity="0" result="BackgroundImageFix"/>
<feBlend mode="normal" in="SourceGraphic" in2="BackgroundImageFix" result="shape"/>
<feGaussianBlur stdDeviation="37.35" result="effect1_foregroundBlur_294_2"/>
</filter>
<filter id="filter1_b_294_2" x="-8.74404" y="-10.4641" width="448.105" height="488.424" filterUnits="userSpaceOnUse" color-interpolation-filters="sRGB">
<feFlood flood-opacity="0" result="BackgroundImageFix"/>
<feGaussianBlur in="BackgroundImageFix" stdDeviation="25.05"/>
<feComposite in2="SourceAlpha" operator="in" result="effect1_backgroundBlur_294_2"/>
<feBlend mode="normal" in="SourceGraphic" in2="effect1_backgroundBlur_294_2" result="shape"/>
</filter>
</defs>
</svg>