<svg width="431" height="280" viewBox="0 0 431 280" fill="none" xmlns="http://www.w3.org/2000/svg">
<g opacity="0.1" filter="url(#filter0_f_21_230)">
<rect x="134.212" y="46.833" width="234.865" height="34.5785" rx="7" fill="#611DF2"/>
</g>
<g filter="url(#filter1_b_21_230)">
<rect x="113.752" y="31.811" width="274.91" height="64.6226" rx="11" fill="#222222" fill-opacity="0.41"/>
</g>
<g opacity="0.1" filter="url(#filter2_f_21_230)">
<rect x="47.717" y="46.833" width="52.4704" height="34.5785" rx="7" fill="#611DF2"/>
</g>
<g filter="url(#filter3_b_21_230)">
<rect x="43.3418" y="31.811" width="61.2212" height="64.6226" rx="11" fill="#222222" fill-opacity="0.41"/>
</g>
<path d="M66.2492 69.55V68.0668L74.7123 59.7782C75.4879 59.022 76.0695 58.3628 76.4573 57.8005C76.8451 57.2189 77.1068 56.676 77.2426 56.1719C77.3783 55.6678 77.4461 55.1928 77.4461 54.7468C77.4461 53.5641 77.039 52.6335 76.2247 51.9549C75.4297 51.2763 74.247 50.937 72.6765 50.937C71.4744 50.937 70.4081 51.1212 69.4774 51.4895C68.5661 51.8579 67.7809 52.4299 67.1217 53.2054L65.6385 51.9258C66.4334 50.9951 67.4513 50.2778 68.6922 49.7737C69.933 49.2695 71.3193 49.0175 72.851 49.0175C74.2276 49.0175 75.42 49.2405 76.4282 49.6864C77.4364 50.113 78.212 50.7431 78.7549 51.5768C79.3171 52.4105 79.5983 53.3896 79.5983 54.5142C79.5983 55.1734 79.5013 55.8229 79.3074 56.4627C79.1329 57.1026 78.8033 57.7812 78.3186 58.4985C77.8533 59.1965 77.165 59.9915 76.2537 60.8833L68.4886 68.5031L67.9069 67.6887H80.5289V69.55H66.2492Z" fill="white"/>
<path d="M66.0888 77.5236V73.0465H66.6133L69.5745 76.7241H69.2995V73.0465H69.9391V77.5236H69.4146L66.4534 73.846H66.7284V77.5236H66.0888ZM73.3002 77.5747C72.9591 77.5747 72.6414 77.5172 72.3472 77.402C72.0573 77.2869 71.8057 77.127 71.5925 76.9224C71.3793 76.7134 71.213 76.4704 71.0936 76.1932C70.9743 75.9161 70.9146 75.6134 70.9146 75.2851C70.9146 74.9567 70.9743 74.654 71.0936 74.3769C71.213 74.0997 71.3793 73.8588 71.5925 73.6541C71.8057 73.4452 72.0573 73.2832 72.3472 73.1681C72.6371 73.0529 72.9548 72.9954 73.3002 72.9954C73.6413 72.9954 73.9547 73.0529 74.2403 73.1681C74.5303 73.2789 74.7818 73.4388 74.995 73.6477C75.2125 73.8524 75.3788 74.0933 75.4939 74.3705C75.6133 74.6476 75.673 74.9525 75.673 75.2851C75.673 75.6176 75.6133 75.9225 75.4939 76.1996C75.3788 76.4768 75.2125 76.7198 74.995 76.9288C74.7818 77.1334 74.5303 77.2933 74.2403 77.4084C73.9547 77.5193 73.6413 77.5747 73.3002 77.5747ZM73.3002 77.0055C73.5475 77.0055 73.7756 76.9629 73.9845 76.8776C74.1977 76.7923 74.381 76.6729 74.5345 76.5194C74.6923 76.3617 74.8138 76.1783 74.8991 75.9694C74.9886 75.7605 75.0334 75.5324 75.0334 75.2851C75.0334 75.0378 74.9886 74.8096 74.8991 74.6007C74.8138 74.3918 74.6923 74.2106 74.5345 74.0571C74.381 73.8993 74.1977 73.7778 73.9845 73.6925C73.7756 73.6072 73.5475 73.5646 73.3002 73.5646C73.0486 73.5646 72.8162 73.6072 72.603 73.6925C72.3941 73.7778 72.2108 73.8993 72.053 74.0571C71.8952 74.2106 71.7716 74.3918 71.682 74.6007C71.5968 74.8096 71.5541 75.0378 71.5541 75.2851C71.5541 75.5324 71.5968 75.7605 71.682 75.9694C71.7716 76.1783 71.8952 76.3617 72.053 76.5194C72.2108 76.6729 72.3941 76.7923 72.603 76.8776C72.8162 76.9629 73.0486 77.0055 73.3002 77.0055ZM77.8051 77.5236L75.8352 73.0465H76.5259L78.3359 77.1782H77.9394L79.7621 73.0465H80.4017L78.4382 77.5236H77.8051Z" fill="#651DFF"/>
<path d="M136.555 63.8348C135.802 63.8348 135.107 63.7125 134.467 63.4681C133.837 63.2142 133.287 62.8616 132.817 62.4103C132.356 61.9495 131.994 61.4136 131.731 60.8024C131.468 60.1913 131.336 59.519 131.336 58.7856C131.336 58.0522 131.468 57.3799 131.731 56.7688C131.994 56.1576 132.361 55.6263 132.831 55.175C133.301 54.7143 133.851 54.3617 134.481 54.1172C135.121 53.8634 135.816 53.7364 136.569 53.7364C137.33 53.7364 138.031 53.8681 138.67 54.1313C139.319 54.3852 139.869 54.766 140.32 55.2738L139.404 56.1623C139.027 55.7674 138.604 55.4759 138.134 55.2879C137.664 55.0904 137.161 54.9917 136.625 54.9917C136.07 54.9917 135.553 55.0857 135.074 55.2738C134.604 55.4618 134.195 55.7251 133.847 56.0636C133.499 56.4021 133.226 56.8064 133.029 57.2765C132.841 57.7372 132.747 58.2402 132.747 58.7856C132.747 59.3309 132.841 59.8387 133.029 60.3088C133.226 60.7695 133.499 61.1691 133.847 61.5076C134.195 61.8461 134.604 62.1094 135.074 62.2974C135.553 62.4855 136.07 62.5795 136.625 62.5795C137.161 62.5795 137.664 62.4855 138.134 62.2974C138.604 62.1 139.027 61.7991 139.404 61.3948L140.32 62.2833C139.869 62.7911 139.319 63.1766 138.67 63.4398C138.031 63.7031 137.326 63.8348 136.555 63.8348ZM142.135 63.7219V56.2469H143.432V58.2779L143.305 57.7701C143.512 57.253 143.86 56.8581 144.349 56.5854C144.838 56.3127 145.44 56.1764 146.154 56.1764V57.488C146.098 57.4786 146.042 57.4739 145.985 57.4739C145.938 57.4739 145.891 57.4739 145.844 57.4739C145.12 57.4739 144.547 57.6902 144.123 58.1227C143.7 58.5552 143.489 59.1805 143.489 59.9985V63.7219H142.135ZM151.083 63.8065C150.284 63.8065 149.578 63.642 148.967 63.3129C148.365 62.9838 147.895 62.5325 147.557 61.9589C147.228 61.3854 147.063 60.7272 147.063 59.9844C147.063 59.2416 147.223 58.5834 147.543 58.0099C147.872 57.4363 148.318 56.9897 148.883 56.67C149.456 56.3409 150.1 56.1764 150.815 56.1764C151.539 56.1764 152.178 56.3362 152.733 56.6559C153.288 56.9756 153.72 57.4269 154.03 58.0099C154.35 58.5834 154.51 59.2557 154.51 60.0267C154.51 60.0831 154.505 60.149 154.496 60.2242C154.496 60.2994 154.491 60.3699 154.482 60.4357H148.121V59.4626H153.777L153.227 59.8011C153.236 59.3215 153.137 58.8937 152.93 58.5176C152.724 58.1415 152.437 57.85 152.07 57.6432C151.713 57.4269 151.294 57.3188 150.815 57.3188C150.345 57.3188 149.926 57.4269 149.56 57.6432C149.193 57.85 148.906 58.1462 148.699 58.5317C148.492 58.9078 148.389 59.3403 148.389 59.8293V60.0549C148.389 60.5533 148.502 60.9999 148.727 61.3948C148.963 61.7803 149.287 62.0812 149.701 62.2974C150.114 62.5137 150.589 62.6218 151.125 62.6218C151.567 62.6218 151.967 62.5466 152.324 62.3962C152.691 62.2457 153.01 62.0201 153.283 61.7192L154.03 62.5936C153.692 62.9885 153.269 63.2894 152.761 63.4963C152.263 63.7031 151.703 63.8065 151.083 63.8065ZM160.824 63.7219V62.1423L160.753 61.8461V59.1523C160.753 58.5787 160.584 58.1368 160.245 57.8265C159.916 57.5069 159.418 57.347 158.75 57.347C158.308 57.347 157.876 57.4222 157.453 57.5727C157.03 57.7137 156.672 57.9065 156.381 58.1509L155.817 57.1355C156.202 56.8252 156.663 56.5901 157.199 56.4303C157.744 56.261 158.313 56.1764 158.906 56.1764C159.93 56.1764 160.72 56.4256 161.275 56.9239C161.83 57.4222 162.107 58.1838 162.107 59.2087V63.7219H160.824ZM158.37 63.8065C157.815 63.8065 157.326 63.7125 156.903 63.5245C156.489 63.3364 156.169 63.0779 155.944 62.7488C155.718 62.4103 155.605 62.0295 155.605 61.6064C155.605 61.202 155.699 60.8353 155.887 60.5063C156.085 60.1772 156.4 59.9139 156.832 59.7164C157.274 59.519 157.867 59.4203 158.609 59.4203H160.979V60.3934H158.666C157.989 60.3934 157.533 60.5063 157.298 60.7319C157.063 60.9576 156.945 61.2303 156.945 61.5499C156.945 61.9166 157.091 62.2128 157.382 62.4385C157.674 62.6547 158.078 62.7629 158.595 62.7629C159.103 62.7629 159.545 62.65 159.921 62.4244C160.307 62.1987 160.584 61.8696 160.753 61.4371L161.021 62.368C160.842 62.8099 160.527 63.1625 160.076 63.4257C159.625 63.6796 159.056 63.8065 158.37 63.8065ZM167.18 63.8065C166.427 63.8065 165.844 63.6044 165.431 63.2001C165.017 62.7958 164.81 62.2175 164.81 61.4653V54.6109H166.164V61.4089C166.164 61.8132 166.263 62.1235 166.46 62.3398C166.667 62.556 166.959 62.6641 167.335 62.6641C167.758 62.6641 168.11 62.5466 168.393 62.3115L168.816 63.2847C168.609 63.4634 168.36 63.595 168.068 63.6796C167.786 63.7642 167.49 63.8065 167.18 63.8065ZM163.541 57.3611V56.2469H168.308V57.3611H163.541ZM170.453 63.7219V56.2469H171.807V63.7219H170.453ZM171.13 54.8083C170.866 54.8083 170.645 54.7237 170.467 54.5545C170.297 54.3852 170.213 54.1784 170.213 53.9339C170.213 53.68 170.297 53.4685 170.467 53.2992C170.645 53.13 170.866 53.0454 171.13 53.0454C171.393 53.0454 171.609 53.13 171.778 53.2992C171.957 53.4591 172.046 53.6612 172.046 53.9057C172.046 54.1596 171.962 54.3758 171.792 54.5545C171.623 54.7237 171.402 54.8083 171.13 54.8083ZM176.352 63.7219L173.08 56.2469H174.49L177.396 63.0167H176.719L179.681 56.2469H181.006L177.734 63.7219H176.352ZM185.392 63.8065C184.593 63.8065 183.888 63.642 183.276 63.3129C182.675 62.9838 182.204 62.5325 181.866 61.9589C181.537 61.3854 181.372 60.7272 181.372 59.9844C181.372 59.2416 181.532 58.5834 181.852 58.0099C182.181 57.4363 182.628 56.9897 183.192 56.67C183.765 56.3409 184.409 56.1764 185.124 56.1764C185.848 56.1764 186.487 56.3362 187.042 56.6559C187.597 56.9756 188.029 57.4269 188.34 58.0099C188.659 58.5834 188.819 59.2557 188.819 60.0267C188.819 60.0831 188.814 60.149 188.805 60.2242C188.805 60.2994 188.8 60.3699 188.791 60.4357H182.43V59.4626H188.086L187.536 59.8011C187.545 59.3215 187.446 58.8937 187.24 58.5176C187.033 58.1415 186.746 57.85 186.379 57.6432C186.022 57.4269 185.603 57.3188 185.124 57.3188C184.654 57.3188 184.235 57.4269 183.869 57.6432C183.502 57.85 183.215 58.1462 183.008 58.5317C182.802 58.9078 182.698 59.3403 182.698 59.8293V60.0549C182.698 60.5533 182.811 60.9999 183.037 61.3948C183.272 61.7803 183.596 62.0812 184.01 62.2974C184.423 62.5137 184.898 62.6218 185.434 62.6218C185.876 62.6218 186.276 62.5466 186.633 62.3962C187 62.2457 187.319 62.0201 187.592 61.7192L188.34 62.5936C188.001 62.9885 187.578 63.2894 187.07 63.4963C186.572 63.7031 186.012 63.8065 185.392 63.8065ZM197.562 63.8348C196.809 63.8348 196.09 63.7219 195.404 63.4963C194.717 63.2612 194.177 62.9603 193.782 62.5936L194.304 61.4935C194.68 61.8226 195.159 62.0953 195.742 62.3115C196.325 62.5278 196.932 62.6359 197.562 62.6359C198.135 62.6359 198.6 62.5701 198.958 62.4385C199.315 62.3068 199.578 62.1282 199.748 61.9025C199.917 61.6675 200.001 61.4042 200.001 61.1127C200.001 60.7742 199.889 60.5016 199.663 60.2947C199.447 60.0878 199.16 59.9233 198.803 59.8011C198.455 59.6694 198.069 59.5566 197.646 59.4626C197.223 59.3686 196.795 59.2604 196.363 59.1382C195.94 59.0066 195.549 58.842 195.192 58.6446C194.844 58.4471 194.562 58.1838 194.346 57.8547C194.13 57.5163 194.021 57.0837 194.021 56.5572C194.021 56.0495 194.153 55.584 194.416 55.1609C194.689 54.7284 195.103 54.3852 195.658 54.1313C196.222 53.8681 196.936 53.7364 197.801 53.7364C198.375 53.7364 198.944 53.8117 199.508 53.9621C200.072 54.1125 200.561 54.3288 200.975 54.6109L200.509 55.7392C200.086 55.4571 199.639 55.2549 199.169 55.1327C198.699 55.0011 198.243 54.9353 197.801 54.9353C197.247 54.9353 196.791 55.0058 196.433 55.1468C196.076 55.2879 195.813 55.4759 195.643 55.711C195.484 55.946 195.404 56.2093 195.404 56.5008C195.404 56.8487 195.512 57.126 195.728 57.3329C195.954 57.5398 196.24 57.7043 196.588 57.8265C196.946 57.9488 197.336 58.0616 197.759 58.165C198.182 58.2591 198.605 58.3672 199.028 58.4894C199.461 58.6116 199.851 58.7715 200.199 58.9689C200.556 59.1664 200.843 59.4297 201.059 59.7588C201.276 60.0878 201.384 60.511 201.384 61.0281C201.384 61.5264 201.247 61.9919 200.975 62.4244C200.702 62.8475 200.279 63.1907 199.705 63.454C199.141 63.7078 198.427 63.8348 197.562 63.8348ZM206.392 63.8065C205.752 63.8065 205.188 63.689 204.699 63.454C204.22 63.2189 203.844 62.8616 203.571 62.3821C203.308 61.8931 203.176 61.282 203.176 60.5486V56.2469H204.53V60.3934C204.53 61.1268 204.704 61.6769 205.052 62.0436C205.409 62.4103 205.908 62.5936 206.547 62.5936C207.017 62.5936 207.426 62.4996 207.774 62.3115C208.122 62.1141 208.39 61.832 208.578 61.4653C208.766 61.0892 208.86 60.6379 208.86 60.1114V56.2469H210.214V63.7219H208.93V61.7051L209.142 62.241C208.898 62.7394 208.531 63.1249 208.042 63.3975C207.553 63.6702 207.003 63.8065 206.392 63.8065ZM216.755 63.8065C216.115 63.8065 215.537 63.6655 215.02 63.3834C214.512 63.092 214.108 62.6641 213.807 62.1C213.516 61.5358 213.37 60.8306 213.37 59.9844C213.37 59.1382 213.52 58.433 213.821 57.8688C214.131 57.3047 214.54 56.8816 215.048 56.5995C215.565 56.3174 216.134 56.1764 216.755 56.1764C217.488 56.1764 218.137 56.3362 218.701 56.6559C219.265 56.9756 219.712 57.4222 220.041 57.9958C220.37 58.5599 220.535 59.2228 220.535 59.9844C220.535 60.746 220.37 61.4136 220.041 61.9872C219.712 62.5607 219.265 63.0073 218.701 63.327C218.137 63.6467 217.488 63.8065 216.755 63.8065ZM212.792 63.7219V53.2569H214.145V58.2355L214.004 59.9703L214.089 61.7051V63.7219H212.792ZM216.642 62.6218C217.121 62.6218 217.549 62.5137 217.925 62.2974C218.311 62.0812 218.612 61.7756 218.828 61.3807C219.054 60.9764 219.166 60.511 219.166 59.9844C219.166 59.4485 219.054 58.9878 218.828 58.6022C218.612 58.2073 218.311 57.9018 217.925 57.6855C217.549 57.4692 217.121 57.3611 216.642 57.3611C216.172 57.3611 215.744 57.4692 215.358 57.6855C214.982 57.9018 214.681 58.2073 214.456 58.6022C214.24 58.9878 214.131 59.4485 214.131 59.9844C214.131 60.511 214.24 60.9764 214.456 61.3807C214.681 61.7756 214.982 62.0812 215.358 62.2974C215.744 62.5137 216.172 62.6218 216.642 62.6218ZM231.756 56.1764C232.358 56.1764 232.889 56.2939 233.35 56.529C233.811 56.7641 234.168 57.1213 234.422 57.6009C234.685 58.0804 234.817 58.6869 234.817 59.4203V63.7219H233.463V59.5754C233.463 58.8514 233.293 58.3061 232.955 57.9394C232.616 57.5727 232.142 57.3893 231.53 57.3893C231.079 57.3893 230.684 57.4833 230.346 57.6714C230.007 57.8594 229.744 58.1368 229.556 58.5035C229.377 58.8702 229.288 59.3262 229.288 59.8716V63.7219H227.934V59.5754C227.934 58.8514 227.765 58.3061 227.426 57.9394C227.097 57.5727 226.622 57.3893 226.002 57.3893C225.56 57.3893 225.17 57.4833 224.831 57.6714C224.493 57.8594 224.229 58.1368 224.041 58.5035C223.853 58.8702 223.759 59.3262 223.759 59.8716V63.7219H222.405V56.2469H223.703V58.2355L223.491 57.7278C223.726 57.2389 224.088 56.8581 224.577 56.5854C225.066 56.3127 225.635 56.1764 226.284 56.1764C226.998 56.1764 227.614 56.355 228.131 56.7123C228.649 57.0602 228.987 57.5915 229.147 58.3061L228.597 58.0804C228.822 57.5069 229.217 57.0461 229.782 56.6982C230.346 56.3503 231.004 56.1764 231.756 56.1764ZM237.308 63.7219V56.2469H238.662V63.7219H237.308ZM237.985 54.8083C237.722 54.8083 237.501 54.7237 237.322 54.5545C237.153 54.3852 237.068 54.1784 237.068 53.9339C237.068 53.68 237.153 53.4685 237.322 53.2992C237.501 53.13 237.722 53.0454 237.985 53.0454C238.248 53.0454 238.464 53.13 238.634 53.2992C238.812 53.4591 238.902 53.6612 238.902 53.9057C238.902 54.1596 238.817 54.3758 238.648 54.5545C238.478 54.7237 238.258 54.8083 237.985 54.8083ZM243.391 63.8065C242.77 63.8065 242.178 63.7219 241.614 63.5527C241.059 63.3834 240.622 63.1766 240.302 62.9321L240.866 61.8602C241.186 62.0765 241.581 62.2598 242.051 62.4103C242.521 62.5607 243.001 62.6359 243.49 62.6359C244.119 62.6359 244.571 62.5466 244.843 62.368C245.126 62.1893 245.267 61.9401 245.267 61.6205C245.267 61.3854 245.182 61.202 245.013 61.0704C244.843 60.9388 244.618 60.84 244.336 60.7742C244.063 60.7084 243.757 60.652 243.419 60.605C243.081 60.5486 242.742 60.4828 242.404 60.4075C242.065 60.3229 241.755 60.2101 241.473 60.069C241.191 59.9186 240.965 59.7164 240.796 59.4626C240.626 59.1993 240.542 58.8514 240.542 58.4189C240.542 57.9676 240.669 57.5727 240.923 57.2342C241.177 56.8957 241.534 56.6371 241.995 56.4585C242.465 56.2704 243.019 56.1764 243.659 56.1764C244.148 56.1764 244.641 56.2375 245.14 56.3597C245.647 56.4726 246.061 56.6371 246.381 56.8534L245.803 57.9253C245.464 57.6996 245.111 57.5445 244.745 57.4598C244.378 57.3752 244.011 57.3329 243.645 57.3329C243.052 57.3329 242.61 57.4316 242.319 57.6291C242.027 57.8171 241.882 58.0616 241.882 58.3625C241.882 58.6164 241.966 58.8138 242.136 58.9548C242.314 59.0865 242.54 59.1899 242.813 59.2651C243.095 59.3403 243.405 59.4062 243.743 59.4626C244.082 59.5096 244.42 59.5754 244.759 59.66C245.097 59.7353 245.403 59.8434 245.676 59.9844C245.958 60.1255 246.183 60.3229 246.353 60.5768C246.531 60.8306 246.621 61.1691 246.621 61.5923C246.621 62.0436 246.489 62.4338 246.226 62.7629C245.962 63.092 245.591 63.3505 245.111 63.5386C244.632 63.7172 244.058 63.8065 243.391 63.8065ZM250.456 63.8065C249.836 63.8065 249.244 63.7219 248.679 63.5527C248.125 63.3834 247.687 63.1766 247.368 62.9321L247.932 61.8602C248.252 62.0765 248.646 62.2598 249.117 62.4103C249.587 62.5607 250.066 62.6359 250.555 62.6359C251.185 62.6359 251.636 62.5466 251.909 62.368C252.191 62.1893 252.332 61.9401 252.332 61.6205C252.332 61.3854 252.248 61.202 252.078 61.0704C251.909 60.9388 251.683 60.84 251.401 60.7742C251.129 60.7084 250.823 60.652 250.485 60.605C250.146 60.5486 249.808 60.4828 249.469 60.4075C249.131 60.3229 248.82 60.2101 248.538 60.069C248.256 59.9186 248.031 59.7164 247.861 59.4626C247.692 59.1993 247.607 58.8514 247.607 58.4189C247.607 57.9676 247.734 57.5727 247.988 57.2342C248.242 56.8957 248.599 56.6371 249.06 56.4585C249.53 56.2704 250.085 56.1764 250.724 56.1764C251.213 56.1764 251.707 56.2375 252.205 56.3597C252.713 56.4726 253.127 56.6371 253.446 56.8534L252.868 57.9253C252.53 57.6996 252.177 57.5445 251.81 57.4598C251.444 57.3752 251.077 57.3329 250.71 57.3329C250.118 57.3329 249.676 57.4316 249.385 57.6291C249.093 57.8171 248.947 58.0616 248.947 58.3625C248.947 58.6164 249.032 58.8138 249.201 58.9548C249.38 59.0865 249.606 59.1899 249.878 59.2651C250.16 59.3403 250.471 59.4062 250.809 59.4626C251.148 59.5096 251.486 59.5754 251.825 59.66C252.163 59.7353 252.469 59.8434 252.741 59.9844C253.023 60.1255 253.249 60.3229 253.418 60.5768C253.597 60.8306 253.686 61.1691 253.686 61.5923C253.686 62.0436 253.555 62.4338 253.291 62.7629C253.028 63.092 252.657 63.3505 252.177 63.5386C251.698 63.7172 251.124 63.8065 250.456 63.8065ZM255.378 63.7219V56.2469H256.732V63.7219H255.378ZM256.055 54.8083C255.792 54.8083 255.571 54.7237 255.392 54.5545C255.223 54.3852 255.139 54.1784 255.139 53.9339C255.139 53.68 255.223 53.4685 255.392 53.2992C255.571 53.13 255.792 53.0454 256.055 53.0454C256.319 53.0454 256.535 53.13 256.704 53.2992C256.883 53.4591 256.972 53.6612 256.972 53.9057C256.972 54.1596 256.887 54.3758 256.718 54.5545C256.549 54.7237 256.328 54.8083 256.055 54.8083ZM262.519 63.8065C261.767 63.8065 261.099 63.642 260.516 63.3129C259.933 62.9838 259.473 62.5325 259.134 61.9589C258.796 61.376 258.626 60.7178 258.626 59.9844C258.626 59.2416 258.796 58.5834 259.134 58.0099C259.473 57.4363 259.933 56.9897 260.516 56.67C261.099 56.3409 261.767 56.1764 262.519 56.1764C263.262 56.1764 263.925 56.3409 264.508 56.67C265.1 56.9897 265.561 57.4363 265.89 58.0099C266.228 58.574 266.398 59.2322 266.398 59.9844C266.398 60.7272 266.228 61.3854 265.89 61.9589C265.561 62.5325 265.1 62.9838 264.508 63.3129C263.925 63.642 263.262 63.8065 262.519 63.8065ZM262.519 62.6218C262.999 62.6218 263.426 62.5137 263.803 62.2974C264.188 62.0812 264.489 61.7756 264.705 61.3807C264.921 60.9764 265.03 60.511 265.03 59.9844C265.03 59.4485 264.921 58.9878 264.705 58.6022C264.489 58.2073 264.188 57.9018 263.803 57.6855C263.426 57.4692 262.999 57.3611 262.519 57.3611C262.04 57.3611 261.612 57.4692 261.236 57.6855C260.86 57.9018 260.559 58.2073 260.333 58.6022C260.107 58.9878 259.994 59.4485 259.994 59.9844C259.994 60.511 260.107 60.9764 260.333 61.3807C260.559 61.7756 260.86 62.0812 261.236 62.2974C261.612 62.5137 262.04 62.6218 262.519 62.6218ZM272.261 56.1764C272.873 56.1764 273.409 56.2939 273.869 56.529C274.339 56.7641 274.706 57.1213 274.969 57.6009C275.233 58.0804 275.364 58.6869 275.364 59.4203V63.7219H274.01V59.5754C274.01 58.8514 273.832 58.3061 273.474 57.9394C273.127 57.5727 272.633 57.3893 271.994 57.3893C271.514 57.3893 271.096 57.4833 270.738 57.6714C270.381 57.8594 270.104 58.1368 269.906 58.5035C269.718 58.8702 269.624 59.3262 269.624 59.8716V63.7219H268.27V56.2469H269.568V58.2638L269.356 57.7278C269.601 57.2389 269.977 56.8581 270.484 56.5854C270.992 56.3127 271.585 56.1764 272.261 56.1764Z" fill="white"/>
<path opacity="0.5" d="M131.43 76.5227V71.3856H133.433C133.883 71.3856 134.267 71.4566 134.585 71.5984C134.903 71.7403 135.148 71.9458 135.319 72.2149C135.49 72.484 135.576 72.8044 135.576 73.1763C135.576 73.5481 135.49 73.8685 135.319 74.1376C135.148 74.4018 134.903 74.6073 134.585 74.7541C134.267 74.896 133.883 74.9669 133.433 74.9669H131.833L132.164 74.622V76.5227H131.43ZM132.164 74.6954L131.833 74.3284H133.411C133.881 74.3284 134.236 74.2281 134.475 74.0276C134.72 73.827 134.842 73.5432 134.842 73.1763C134.842 72.8093 134.72 72.5256 134.475 72.325C134.236 72.1244 133.881 72.0241 133.411 72.0241H131.833L132.164 71.6572V74.6954ZM136.48 76.5227V72.6332H137.155V73.69L137.089 73.4258C137.197 73.1567 137.378 72.9512 137.632 72.8093C137.886 72.6675 138.2 72.5965 138.571 72.5965V73.279C138.542 73.2741 138.513 73.2717 138.483 73.2717C138.459 73.2717 138.434 73.2717 138.41 73.2717C138.033 73.2717 137.735 73.3842 137.515 73.6092C137.294 73.8343 137.184 74.1596 137.184 74.5853V76.5227H136.48ZM141.136 76.5667C140.72 76.5667 140.353 76.4811 140.035 76.3099C139.722 76.1386 139.477 75.9038 139.301 75.6054C139.13 75.3069 139.044 74.9645 139.044 74.578C139.044 74.1915 139.127 73.849 139.294 73.5505C139.465 73.2521 139.697 73.0197 139.991 72.8534C140.289 72.6821 140.625 72.5965 140.996 72.5965C141.373 72.5965 141.706 72.6797 141.994 72.846C142.283 73.0124 142.508 73.2472 142.67 73.5505C142.836 73.849 142.919 74.1988 142.919 74.6C142.919 74.6293 142.917 74.6636 142.912 74.7027C142.912 74.7419 142.909 74.7785 142.904 74.8128H139.595V74.3064H142.537L142.251 74.4826C142.256 74.233 142.205 74.0104 142.097 73.8147C141.99 73.619 141.84 73.4674 141.649 73.3597C141.464 73.2472 141.246 73.1909 140.996 73.1909C140.752 73.1909 140.534 73.2472 140.343 73.3597C140.152 73.4674 140.003 73.6215 139.896 73.8221C139.788 74.0178 139.734 74.2428 139.734 74.4972V74.6146C139.734 74.8739 139.793 75.1063 139.91 75.3118C140.033 75.5124 140.201 75.669 140.417 75.7815C140.632 75.894 140.879 75.9503 141.158 75.9503C141.388 75.9503 141.596 75.9111 141.782 75.8329C141.972 75.7546 142.139 75.6372 142.281 75.4806L142.67 75.9356C142.493 76.1411 142.273 76.2977 142.009 76.4053C141.75 76.5129 141.459 76.5667 141.136 76.5667ZM143.897 76.5227V71.0774H144.602V76.5227H143.897ZM145.947 76.5227V72.6332H146.652V76.5227H145.947ZM146.299 71.8847C146.162 71.8847 146.047 71.8406 145.954 71.7526C145.866 71.6645 145.822 71.5569 145.822 71.4297C145.822 71.2976 145.866 71.1875 145.954 71.0994C146.047 71.0114 146.162 70.9673 146.299 70.9673C146.436 70.9673 146.549 71.0114 146.637 71.0994C146.73 71.1826 146.776 71.2878 146.776 71.415C146.776 71.5471 146.732 71.6596 146.644 71.7526C146.556 71.8406 146.441 71.8847 146.299 71.8847ZM152.862 72.5965C153.175 72.5965 153.452 72.6577 153.692 72.78C153.931 72.9023 154.117 73.0882 154.249 73.3377C154.386 73.5872 154.455 73.9028 154.455 74.2844V76.5227H153.75V74.3651C153.75 73.9884 153.662 73.7047 153.486 73.5138C153.31 73.323 153.063 73.2276 152.745 73.2276C152.51 73.2276 152.305 73.2766 152.128 73.3744C151.952 73.4723 151.815 73.6166 151.717 73.8074C151.624 73.9982 151.578 74.2355 151.578 74.5192V76.5227H150.873V74.3651C150.873 73.9884 150.785 73.7047 150.609 73.5138C150.438 73.323 150.191 73.2276 149.868 73.2276C149.638 73.2276 149.435 73.2766 149.259 73.3744C149.083 73.4723 148.946 73.6166 148.848 73.8074C148.75 73.9982 148.701 74.2355 148.701 74.5192V76.5227H147.997V72.6332H148.672V73.668L148.562 73.4038C148.684 73.1494 148.872 72.9512 149.127 72.8093C149.381 72.6675 149.677 72.5965 150.015 72.5965C150.387 72.5965 150.707 72.6895 150.976 72.8754C151.245 73.0564 151.421 73.3328 151.505 73.7047L151.218 73.5872C151.336 73.2888 151.541 73.0491 151.835 72.868C152.128 72.687 152.471 72.5965 152.862 72.5965ZM156.867 76.5667C156.544 76.5667 156.235 76.5227 155.942 76.4346C155.653 76.3466 155.426 76.2389 155.259 76.1117L155.553 75.554C155.719 75.6665 155.925 75.7619 156.169 75.8402C156.414 75.9185 156.663 75.9576 156.918 75.9576C157.246 75.9576 157.481 75.9111 157.622 75.8182C157.769 75.7252 157.843 75.5956 157.843 75.4292C157.843 75.3069 157.799 75.2115 157.71 75.143C157.622 75.0745 157.505 75.0232 157.358 74.9889C157.216 74.9547 157.057 74.9253 156.881 74.9009C156.705 74.8715 156.529 74.8373 156.353 74.7981C156.177 74.7541 156.015 74.6954 155.868 74.622C155.722 74.5437 155.604 74.4385 155.516 74.3064C155.428 74.1694 155.384 73.9884 155.384 73.7634C155.384 73.5285 155.45 73.323 155.582 73.1469C155.714 72.9708 155.9 72.8362 156.14 72.7433C156.385 72.6454 156.673 72.5965 157.006 72.5965C157.26 72.5965 157.517 72.6283 157.777 72.6919C158.041 72.7506 158.256 72.8362 158.422 72.9488L158.121 73.5065C157.945 73.3891 157.762 73.3084 157.571 73.2643C157.38 73.2203 157.189 73.1983 156.999 73.1983C156.69 73.1983 156.46 73.2497 156.309 73.3524C156.157 73.4502 156.081 73.5774 156.081 73.734C156.081 73.8661 156.125 73.9688 156.213 74.0422C156.306 74.1107 156.424 74.1645 156.566 74.2037C156.712 74.2428 156.874 74.2771 157.05 74.3064C157.226 74.3309 157.402 74.3651 157.578 74.4092C157.755 74.4483 157.914 74.5046 158.055 74.578C158.202 74.6513 158.32 74.7541 158.408 74.8862C158.501 75.0183 158.547 75.1944 158.547 75.4146C158.547 75.6494 158.479 75.8524 158.342 76.0237C158.205 76.1949 158.011 76.3295 157.762 76.4273C157.512 76.5203 157.214 76.5667 156.867 76.5667ZM161.501 76.5227V71.3856H163.505C163.955 71.3856 164.339 71.4566 164.657 71.5984C164.975 71.7403 165.219 71.9458 165.391 72.2149C165.562 72.484 165.647 72.8044 165.647 73.1763C165.647 73.5481 165.562 73.8685 165.391 74.1376C165.219 74.4018 164.975 74.6049 164.657 74.7467C164.339 74.8886 163.955 74.9596 163.505 74.9596H161.905L162.235 74.622V76.5227H161.501ZM164.936 76.5227L163.629 74.6587H164.415L165.736 76.5227H164.936ZM162.235 74.6954L161.905 74.3358H163.483C163.952 74.3358 164.307 74.2355 164.547 74.0349C164.791 73.8294 164.914 73.5432 164.914 73.1763C164.914 72.8093 164.791 72.5256 164.547 72.325C164.307 72.1244 163.952 72.0241 163.483 72.0241H161.905L162.235 71.6572V74.6954ZM168.396 76.5667C168.005 76.5667 167.658 76.4811 167.354 76.3099C167.051 76.1386 166.811 75.9038 166.635 75.6054C166.459 75.302 166.371 74.9596 166.371 74.578C166.371 74.1915 166.459 73.849 166.635 73.5505C166.811 73.2521 167.051 73.0197 167.354 72.8534C167.658 72.6821 168.005 72.5965 168.396 72.5965C168.783 72.5965 169.128 72.6821 169.431 72.8534C169.739 73.0197 169.979 73.2521 170.15 73.5505C170.326 73.8441 170.414 74.1866 170.414 74.578C170.414 74.9645 170.326 75.3069 170.15 75.6054C169.979 75.9038 169.739 76.1386 169.431 76.3099C169.128 76.4811 168.783 76.5667 168.396 76.5667ZM168.396 75.9503C168.646 75.9503 168.868 75.894 169.064 75.7815C169.265 75.669 169.421 75.51 169.534 75.3045C169.646 75.0941 169.703 74.8519 169.703 74.578C169.703 74.2991 169.646 74.0594 169.534 73.8588C169.421 73.6533 169.265 73.4943 169.064 73.3817C168.868 73.2692 168.646 73.213 168.396 73.213C168.147 73.213 167.924 73.2692 167.728 73.3817C167.533 73.4943 167.376 73.6533 167.259 73.8588C167.141 74.0594 167.083 74.2991 167.083 74.578C167.083 74.8519 167.141 75.0941 167.259 75.3045C167.376 75.51 167.533 75.669 167.728 75.7815C167.924 75.894 168.147 75.9503 168.396 75.9503ZM173.025 76.5667C172.693 76.5667 172.399 76.5056 172.145 76.3833C171.895 76.261 171.699 76.075 171.558 75.8255C171.421 75.5711 171.352 75.2531 171.352 74.8715V72.6332H172.057V74.7908C172.057 75.1724 172.147 75.4586 172.328 75.6494C172.514 75.8402 172.773 75.9356 173.106 75.9356C173.351 75.9356 173.563 75.8867 173.744 75.7888C173.925 75.6861 174.065 75.5393 174.163 75.3485C174.261 75.1528 174.31 74.918 174.31 74.644V72.6332H175.014V76.5227H174.346V75.4733L174.456 75.7521C174.329 76.0114 174.138 76.212 173.884 76.3539C173.629 76.4958 173.343 76.5667 173.025 76.5667ZM178.432 72.5965C178.75 72.5965 179.029 72.6577 179.269 72.78C179.513 72.9023 179.704 73.0882 179.841 73.3377C179.978 73.5872 180.047 73.9028 180.047 74.2844V76.5227H179.342V74.3651C179.342 73.9884 179.249 73.7047 179.063 73.5138C178.882 73.323 178.625 73.2276 178.293 73.2276C178.043 73.2276 177.825 73.2766 177.64 73.3744C177.454 73.4723 177.309 73.6166 177.207 73.8074C177.109 73.9982 177.06 74.2355 177.06 74.5192V76.5227H176.355V72.6332H177.03V73.6826L176.92 73.4038C177.048 73.1494 177.243 72.9512 177.507 72.8093C177.772 72.6675 178.08 72.5965 178.432 72.5965ZM182.958 76.5667C182.581 76.5667 182.243 76.4836 181.945 76.3172C181.651 76.1509 181.419 75.9185 181.248 75.62C181.076 75.3216 180.991 74.9742 180.991 74.578C180.991 74.1817 181.076 73.8367 181.248 73.5432C181.419 73.2448 181.651 73.0124 181.945 72.846C182.243 72.6797 182.581 72.5965 182.958 72.5965C183.285 72.5965 183.581 72.6699 183.846 72.8167C184.11 72.9634 184.32 73.1836 184.477 73.4772C184.638 73.7707 184.719 74.1376 184.719 74.578C184.719 75.0183 184.641 75.3852 184.484 75.6788C184.332 75.9723 184.124 76.1949 183.86 76.3466C183.596 76.4934 183.295 76.5667 182.958 76.5667ZM183.016 75.9503C183.261 75.9503 183.481 75.894 183.677 75.7815C183.877 75.669 184.034 75.51 184.146 75.3045C184.264 75.0941 184.323 74.8519 184.323 74.578C184.323 74.2991 184.264 74.0594 184.146 73.8588C184.034 73.6533 183.877 73.4943 183.677 73.3817C183.481 73.2692 183.261 73.213 183.016 73.213C182.767 73.213 182.544 73.2692 182.348 73.3817C182.153 73.4943 181.996 73.6533 181.879 73.8588C181.761 74.0594 181.703 74.2991 181.703 74.578C181.703 74.8519 181.761 75.0941 181.879 75.3045C181.996 75.51 182.153 75.669 182.348 75.7815C182.544 75.894 182.767 75.9503 183.016 75.9503ZM184.345 76.5227V75.4733L184.389 74.5706L184.315 73.668V71.0774H185.02V76.5227H184.345ZM188.074 74.8128V74.2037H190.048V74.8128H188.074ZM193.654 76.5227V71.6792L193.97 72.0241H192.495V71.3856H194.381V76.5227H193.654Z" fill="white"/>
<g opacity="0.1" filter="url(#filter4_f_21_230)">
<rect x="134.212" y="198.63" width="234.865" height="34.5785" rx="7" fill="#EE2A70"/>
</g>
<g filter="url(#filter5_b_21_230)">
<rect x="113.752" y="183.608" width="274.91" height="64.6226" rx="11" fill="#222222" fill-opacity="0.41"/>
</g>
<g opacity="0.1" filter="url(#filter6_f_21_230)">
<rect x="47.717" y="198.63" width="52.4704" height="34.5785" rx="7" fill="#EE2A70"/>
</g>
<g filter="url(#filter7_b_21_230)">
<rect x="43.3418" y="183.608" width="61.2212" height="64.6226" rx="11" fill="#222222" fill-opacity="0.41"/>
</g>
<path d="M73.1114 221.522C71.6573 221.522 70.271 221.289 68.9526 220.824C67.6341 220.339 66.5871 219.699 65.8116 218.904L66.8295 217.246C67.4693 217.925 68.3418 218.487 69.447 218.933C70.5715 219.379 71.7833 219.602 73.0823 219.602C74.8079 219.602 76.1167 219.224 77.0085 218.468C77.9198 217.692 78.3754 216.684 78.3754 215.443C78.3754 214.571 78.1622 213.824 77.7356 213.204C77.3284 212.564 76.6305 212.07 75.6416 211.721C74.6528 211.372 73.2956 211.197 71.57 211.197H67.2367L68.2836 200.989H79.4224V202.85H69.1271L70.2031 201.833L69.3016 210.383L68.2255 209.336H72.0353C74.0905 209.336 75.7386 209.588 76.9794 210.092C78.2203 210.596 79.1122 211.304 79.6551 212.215C80.2173 213.107 80.4985 214.154 80.4985 215.356C80.4985 216.5 80.227 217.547 79.6842 218.497C79.1413 219.428 78.327 220.164 77.2412 220.707C76.1554 221.25 74.7788 221.522 73.1114 221.522Z" fill="white"/>
<path d="M66.0888 229.321V224.844H66.6133L69.5745 228.521H69.2995V224.844H69.9391V229.321H69.4146L66.4534 225.643H66.7284V229.321H66.0888ZM73.3002 229.372C72.9591 229.372 72.6414 229.314 72.3472 229.199C72.0573 229.084 71.8057 228.924 71.5925 228.719C71.3793 228.511 71.213 228.268 71.0936 227.99C70.9743 227.713 70.9146 227.41 70.9146 227.082C70.9146 226.754 70.9743 226.451 71.0936 226.174C71.213 225.897 71.3793 225.656 71.5925 225.451C71.8057 225.242 72.0573 225.08 72.3472 224.965C72.6371 224.85 72.9548 224.793 73.3002 224.793C73.6413 224.793 73.9547 224.85 74.2403 224.965C74.5303 225.076 74.7818 225.236 74.995 225.445C75.2125 225.65 75.3788 225.89 75.4939 226.168C75.6133 226.445 75.673 226.75 75.673 227.082C75.673 227.415 75.6133 227.72 75.4939 227.997C75.3788 228.274 75.2125 228.517 74.995 228.726C74.7818 228.931 74.5303 229.09 74.2403 229.206C73.9547 229.316 73.6413 229.372 73.3002 229.372ZM73.3002 228.803C73.5475 228.803 73.7756 228.76 73.9845 228.675C74.1977 228.589 74.381 228.47 74.5345 228.317C74.6923 228.159 74.8138 227.975 74.8991 227.767C74.9886 227.558 75.0334 227.329 75.0334 227.082C75.0334 226.835 74.9886 226.607 74.8991 226.398C74.8138 226.189 74.6923 226.008 74.5345 225.854C74.381 225.696 74.1977 225.575 73.9845 225.49C73.7756 225.404 73.5475 225.362 73.3002 225.362C73.0486 225.362 72.8162 225.404 72.603 225.49C72.3941 225.575 72.2108 225.696 72.053 225.854C71.8952 226.008 71.7716 226.189 71.682 226.398C71.5968 226.607 71.5541 226.835 71.5541 227.082C71.5541 227.329 71.5968 227.558 71.682 227.767C71.7716 227.975 71.8952 228.159 72.053 228.317C72.2108 228.47 72.3941 228.589 72.603 228.675C72.8162 228.76 73.0486 228.803 73.3002 228.803ZM77.8051 229.321L75.8352 224.844H76.5259L78.3359 228.975H77.9394L79.7621 224.844H80.4017L78.4382 229.321H77.8051Z" fill="#EE2A70"/>
<path d="M136.555 215.632C135.802 215.632 135.107 215.51 134.467 215.265C133.837 215.011 133.287 214.659 132.817 214.207C132.356 213.747 131.994 213.211 131.731 212.6C131.468 211.988 131.336 211.316 131.336 210.583C131.336 209.849 131.468 209.177 131.731 208.566C131.994 207.955 132.361 207.423 132.831 206.972C133.301 206.511 133.851 206.159 134.481 205.914C135.121 205.66 135.816 205.534 136.569 205.534C137.33 205.534 138.031 205.665 138.67 205.928C139.319 206.182 139.869 206.563 140.32 207.071L139.404 207.959C139.027 207.565 138.604 207.273 138.134 207.085C137.664 206.888 137.161 206.789 136.625 206.789C136.07 206.789 135.553 206.883 135.074 207.071C134.604 207.259 134.195 207.522 133.847 207.861C133.499 208.199 133.226 208.603 133.029 209.074C132.841 209.534 132.747 210.037 132.747 210.583C132.747 211.128 132.841 211.636 133.029 212.106C133.226 212.567 133.499 212.966 133.847 213.305C134.195 213.643 134.604 213.907 135.074 214.095C135.553 214.283 136.07 214.377 136.625 214.377C137.161 214.377 137.664 214.283 138.134 214.095C138.604 213.897 139.027 213.596 139.404 213.192L140.32 214.08C139.869 214.588 139.319 214.974 138.67 215.237C138.031 215.5 137.326 215.632 136.555 215.632ZM142.135 215.519V208.044H143.432V210.075L143.305 209.567C143.512 209.05 143.86 208.655 144.349 208.383C144.838 208.11 145.44 207.974 146.154 207.974V209.285C146.098 209.276 146.042 209.271 145.985 209.271C145.938 209.271 145.891 209.271 145.844 209.271C145.12 209.271 144.547 209.487 144.123 209.92C143.7 210.352 143.489 210.978 143.489 211.796V215.519H142.135ZM148.451 218.34C148.093 218.34 147.745 218.279 147.407 218.156C147.068 218.044 146.777 217.874 146.532 217.649L147.111 216.633C147.299 216.812 147.506 216.948 147.731 217.042C147.957 217.136 148.197 217.183 148.451 217.183C148.78 217.183 149.052 217.099 149.269 216.929C149.485 216.76 149.687 216.459 149.875 216.027L150.34 214.997L150.482 214.828L153.415 208.044H154.741L151.116 216.267C150.9 216.793 150.655 217.207 150.383 217.508C150.12 217.809 149.828 218.02 149.508 218.142C149.189 218.274 148.836 218.34 148.451 218.34ZM150.228 215.759L146.815 208.044H148.225L151.13 214.701L150.228 215.759ZM159.968 215.604C159.347 215.604 158.778 215.463 158.261 215.181C157.753 214.889 157.344 214.461 157.034 213.897C156.733 213.333 156.583 212.628 156.583 211.782C156.583 210.935 156.728 210.23 157.02 209.666C157.321 209.102 157.725 208.679 158.233 208.397C158.75 208.115 159.328 207.974 159.968 207.974C160.701 207.974 161.35 208.133 161.914 208.453C162.478 208.773 162.925 209.219 163.254 209.793C163.583 210.357 163.747 211.02 163.747 211.782C163.747 212.543 163.583 213.211 163.254 213.784C162.925 214.358 162.478 214.804 161.914 215.124C161.35 215.444 160.701 215.604 159.968 215.604ZM156.004 218.255V208.044H157.302V210.061L157.217 211.796L157.358 213.53V218.255H156.004ZM159.855 214.419C160.334 214.419 160.762 214.311 161.138 214.095C161.524 213.878 161.825 213.573 162.041 213.178C162.267 212.774 162.379 212.308 162.379 211.782C162.379 211.246 162.267 210.785 162.041 210.399C161.825 210.004 161.524 209.699 161.138 209.483C160.762 209.266 160.334 209.158 159.855 209.158C159.385 209.158 158.957 209.266 158.571 209.483C158.195 209.699 157.894 210.004 157.669 210.399C157.452 210.785 157.344 211.246 157.344 211.782C157.344 212.308 157.452 212.774 157.669 213.178C157.894 213.573 158.195 213.878 158.571 214.095C158.957 214.311 159.385 214.419 159.855 214.419ZM168.185 215.604C167.433 215.604 166.85 215.402 166.436 214.997C166.022 214.593 165.816 214.015 165.816 213.262V206.408H167.17V213.206C167.17 213.61 167.268 213.921 167.466 214.137C167.673 214.353 167.964 214.461 168.34 214.461C168.763 214.461 169.116 214.344 169.398 214.109L169.821 215.082C169.614 215.26 169.365 215.392 169.074 215.477C168.792 215.561 168.495 215.604 168.185 215.604ZM164.546 209.158V208.044H169.313V209.158H164.546ZM171.458 215.519V208.044H172.812V215.519H171.458ZM172.135 206.605C171.872 206.605 171.651 206.521 171.472 206.352C171.303 206.182 171.218 205.975 171.218 205.731C171.218 205.477 171.303 205.266 171.472 205.096C171.651 204.927 171.872 204.842 172.135 204.842C172.398 204.842 172.615 204.927 172.784 205.096C172.962 205.256 173.052 205.458 173.052 205.703C173.052 205.957 172.967 206.173 172.798 206.352C172.629 206.521 172.408 206.605 172.135 206.605ZM178.655 215.604C177.894 215.604 177.212 215.439 176.61 215.11C176.018 214.781 175.552 214.33 175.214 213.756C174.875 213.183 174.706 212.524 174.706 211.782C174.706 211.039 174.875 210.381 175.214 209.807C175.552 209.233 176.018 208.787 176.61 208.467C177.212 208.138 177.894 207.974 178.655 207.974C179.332 207.974 179.934 208.11 180.46 208.383C180.996 208.646 181.41 209.041 181.702 209.567L180.672 210.23C180.428 209.863 180.127 209.595 179.769 209.426C179.421 209.248 179.045 209.158 178.641 209.158C178.152 209.158 177.715 209.266 177.329 209.483C176.944 209.699 176.638 210.004 176.413 210.399C176.187 210.785 176.074 211.246 176.074 211.782C176.074 212.317 176.187 212.783 176.413 213.178C176.638 213.573 176.944 213.878 177.329 214.095C177.715 214.311 178.152 214.419 178.641 214.419C179.045 214.419 179.421 214.334 179.769 214.165C180.127 213.986 180.428 213.714 180.672 213.347L181.702 213.996C181.41 214.513 180.996 214.913 180.46 215.195C179.934 215.467 179.332 215.604 178.655 215.604ZM194.52 205.646H195.93V215.519H194.52V205.646ZM188.85 215.519H187.44V205.646H188.85V215.519ZM194.647 211.119H188.709V209.892H194.647V211.119ZM201.833 215.604C201.194 215.604 200.629 215.486 200.14 215.251C199.661 215.016 199.285 214.659 199.012 214.179C198.749 213.69 198.617 213.079 198.617 212.346V208.044H199.971V212.191C199.971 212.924 200.145 213.474 200.493 213.841C200.85 214.207 201.349 214.391 201.988 214.391C202.458 214.391 202.867 214.297 203.215 214.109C203.563 213.911 203.831 213.629 204.019 213.262C204.207 212.886 204.301 212.435 204.301 211.908V208.044H205.655V215.519H204.372V213.502L204.583 214.038C204.339 214.536 203.972 214.922 203.483 215.195C202.994 215.467 202.444 215.604 201.833 215.604ZM212.224 207.974C212.835 207.974 213.371 208.091 213.832 208.326C214.302 208.561 214.669 208.918 214.932 209.398C215.195 209.878 215.327 210.484 215.327 211.217V215.519H213.973V211.373C213.973 210.649 213.794 210.103 213.437 209.736C213.089 209.37 212.595 209.186 211.956 209.186C211.476 209.186 211.058 209.28 210.701 209.469C210.343 209.657 210.066 209.934 209.869 210.301C209.681 210.667 209.587 211.123 209.587 211.669V215.519H208.233V208.044H209.53V210.061L209.319 209.525C209.563 209.036 209.939 208.655 210.447 208.383C210.955 208.11 211.547 207.974 212.224 207.974ZM220.399 215.604C219.647 215.604 219.064 215.402 218.651 214.997C218.237 214.593 218.03 214.015 218.03 213.262V206.408H219.384V213.206C219.384 213.61 219.483 213.921 219.68 214.137C219.887 214.353 220.178 214.461 220.555 214.461C220.978 214.461 221.33 214.344 221.612 214.109L222.035 215.082C221.829 215.26 221.579 215.392 221.288 215.477C221.006 215.561 220.71 215.604 220.399 215.604ZM216.761 209.158V208.044H221.528V209.158H216.761Z" fill="white"/>
<path opacity="0.5" d="M131.877 228.32V223.476L132.193 223.821H130.718V223.183H132.604V228.32H131.877ZM133.647 228.32V227.821L135.738 225.803C135.924 225.627 136.061 225.472 136.149 225.34C136.242 225.203 136.303 225.079 136.333 224.966C136.367 224.849 136.384 224.736 136.384 224.628C136.384 224.364 136.291 224.156 136.105 224.005C135.919 223.853 135.648 223.777 135.291 223.777C135.017 223.777 134.77 223.824 134.55 223.917C134.329 224.005 134.139 224.144 133.977 224.335L133.478 223.902C133.674 223.652 133.936 223.462 134.263 223.33C134.596 223.193 134.961 223.124 135.357 223.124C135.714 223.124 136.025 223.183 136.289 223.3C136.553 223.413 136.756 223.577 136.898 223.792C137.045 224.007 137.118 224.262 137.118 224.555C137.118 224.721 137.096 224.885 137.052 225.047C137.008 225.208 136.925 225.379 136.803 225.56C136.68 225.742 136.504 225.945 136.274 226.17L134.41 227.968L134.234 227.681H137.338V228.32H133.647ZM138.426 225.399C138.289 225.399 138.172 225.353 138.074 225.26C137.976 225.162 137.927 225.039 137.927 224.893C137.927 224.746 137.976 224.626 138.074 224.533C138.172 224.44 138.289 224.394 138.426 224.394C138.558 224.394 138.671 224.44 138.764 224.533C138.861 224.626 138.91 224.746 138.91 224.893C138.91 225.039 138.861 225.162 138.764 225.26C138.671 225.353 138.558 225.399 138.426 225.399ZM138.426 228.364C138.289 228.364 138.172 228.317 138.074 228.224C137.976 228.127 137.927 228.004 137.927 227.857C137.927 227.711 137.976 227.591 138.074 227.498C138.172 227.405 138.289 227.358 138.426 227.358C138.558 227.358 138.671 227.405 138.764 227.498C138.861 227.591 138.91 227.711 138.91 227.857C138.91 228.004 138.861 228.127 138.764 228.224C138.671 228.317 138.558 228.364 138.426 228.364ZM141.703 228.379C141.302 228.379 140.942 228.276 140.624 228.07C140.311 227.865 140.062 227.566 139.876 227.175C139.695 226.784 139.604 226.309 139.604 225.751C139.604 225.194 139.695 224.719 139.876 224.328C140.062 223.936 140.311 223.638 140.624 223.432C140.942 223.227 141.302 223.124 141.703 223.124C142.099 223.124 142.457 223.227 142.775 223.432C143.093 223.638 143.342 223.936 143.523 224.328C143.704 224.719 143.795 225.194 143.795 225.751C143.795 226.309 143.704 226.784 143.523 227.175C143.342 227.566 143.093 227.865 142.775 228.07C142.457 228.276 142.099 228.379 141.703 228.379ZM141.703 227.725C141.972 227.725 142.207 227.652 142.408 227.505C142.613 227.358 142.772 227.138 142.885 226.845C143.002 226.551 143.061 226.187 143.061 225.751C143.061 225.316 143.002 224.951 142.885 224.658C142.772 224.364 142.613 224.144 142.408 223.997C142.207 223.851 141.972 223.777 141.703 223.777C141.434 223.777 141.197 223.851 140.991 223.997C140.786 224.144 140.624 224.364 140.507 224.658C140.394 224.951 140.338 225.316 140.338 225.751C140.338 226.187 140.394 226.551 140.507 226.845C140.624 227.138 140.786 227.358 140.991 227.505C141.197 227.652 141.434 227.725 141.703 227.725ZM146.598 228.379C146.197 228.379 145.837 228.276 145.519 228.07C145.206 227.865 144.957 227.566 144.771 227.175C144.59 226.784 144.499 226.309 144.499 225.751C144.499 225.194 144.59 224.719 144.771 224.328C144.957 223.936 145.206 223.638 145.519 223.432C145.837 223.227 146.197 223.124 146.598 223.124C146.994 223.124 147.351 223.227 147.669 223.432C147.987 223.638 148.237 223.936 148.418 224.328C148.599 224.719 148.69 225.194 148.69 225.751C148.69 226.309 148.599 226.784 148.418 227.175C148.237 227.566 147.987 227.865 147.669 228.07C147.351 228.276 146.994 228.379 146.598 228.379ZM146.598 227.725C146.867 227.725 147.102 227.652 147.303 227.505C147.508 227.358 147.667 227.138 147.78 226.845C147.897 226.551 147.956 226.187 147.956 225.751C147.956 225.316 147.897 224.951 147.78 224.658C147.667 224.364 147.508 224.144 147.303 223.997C147.102 223.851 146.867 223.777 146.598 223.777C146.329 223.777 146.092 223.851 145.886 223.997C145.681 224.144 145.519 224.364 145.402 224.658C145.289 224.951 145.233 225.316 145.233 225.751C145.233 226.187 145.289 226.551 145.402 226.845C145.519 227.138 145.681 227.358 145.886 227.505C146.092 227.652 146.329 227.725 146.598 227.725ZM151.772 228.364C151.449 228.364 151.153 228.29 150.884 228.144C150.62 227.992 150.407 227.769 150.245 227.476C150.089 227.182 150.01 226.815 150.01 226.375C150.01 225.935 150.086 225.568 150.238 225.274C150.394 224.981 150.605 224.761 150.869 224.614C151.138 224.467 151.439 224.394 151.772 224.394C152.153 224.394 152.491 224.477 152.784 224.643C153.078 224.809 153.31 225.042 153.482 225.34C153.653 225.634 153.738 225.979 153.738 226.375C153.738 226.771 153.653 227.119 153.482 227.417C153.31 227.716 153.078 227.948 152.784 228.114C152.491 228.281 152.153 228.364 151.772 228.364ZM149.71 229.744V224.43H150.385V225.48L150.341 226.382L150.414 227.285V229.744H149.71ZM151.713 227.747C151.963 227.747 152.185 227.691 152.381 227.579C152.581 227.466 152.738 227.307 152.85 227.102C152.968 226.891 153.027 226.649 153.027 226.375C153.027 226.096 152.968 225.856 152.85 225.656C152.738 225.45 152.581 225.291 152.381 225.179C152.185 225.066 151.963 225.01 151.713 225.01C151.468 225.01 151.246 225.066 151.045 225.179C150.849 225.291 150.693 225.45 150.576 225.656C150.463 225.856 150.407 226.096 150.407 226.375C150.407 226.649 150.463 226.891 150.576 227.102C150.693 227.307 150.849 227.466 151.045 227.579C151.246 227.691 151.468 227.747 151.713 227.747ZM159.577 224.394C159.891 224.394 160.167 224.455 160.407 224.577C160.646 224.699 160.832 224.885 160.964 225.135C161.101 225.384 161.17 225.7 161.17 226.082V228.32H160.465V226.162C160.465 225.786 160.377 225.502 160.201 225.311C160.025 225.12 159.778 225.025 159.46 225.025C159.225 225.025 159.02 225.074 158.844 225.172C158.667 225.269 158.53 225.414 158.433 225.605C158.34 225.795 158.293 226.033 158.293 226.316V228.32H157.589V226.162C157.589 225.786 157.501 225.502 157.324 225.311C157.153 225.12 156.906 225.025 156.583 225.025C156.353 225.025 156.15 225.074 155.974 225.172C155.798 225.269 155.661 225.414 155.563 225.605C155.465 225.795 155.416 226.033 155.416 226.316V228.32H154.712V224.43H155.387V225.465L155.277 225.201C155.399 224.946 155.588 224.748 155.842 224.606C156.096 224.465 156.392 224.394 156.73 224.394C157.102 224.394 157.422 224.487 157.691 224.672C157.96 224.854 158.137 225.13 158.22 225.502L157.934 225.384C158.051 225.086 158.256 224.846 158.55 224.665C158.844 224.484 159.186 224.394 159.577 224.394ZM164.188 226.61V226.001H166.162V226.61H164.188ZM169.768 228.32V223.476L170.083 223.821H168.608V223.183H170.494V228.32H169.768ZM172.484 228.32V223.476L172.799 223.821H171.324V223.183H173.21V228.32H172.484ZM174.818 225.399C174.681 225.399 174.564 225.353 174.466 225.26C174.368 225.162 174.319 225.039 174.319 224.893C174.319 224.746 174.368 224.626 174.466 224.533C174.564 224.44 174.681 224.394 174.818 224.394C174.95 224.394 175.063 224.44 175.156 224.533C175.254 224.626 175.303 224.746 175.303 224.893C175.303 225.039 175.254 225.162 175.156 225.26C175.063 225.353 174.95 225.399 174.818 225.399ZM174.818 228.364C174.681 228.364 174.564 228.317 174.466 228.224C174.368 228.127 174.319 228.004 174.319 227.857C174.319 227.711 174.368 227.591 174.466 227.498C174.564 227.405 174.681 227.358 174.818 227.358C174.95 227.358 175.063 227.405 175.156 227.498C175.254 227.591 175.303 227.711 175.303 227.857C175.303 228.004 175.254 228.127 175.156 228.224C175.063 228.317 174.95 228.364 174.818 228.364ZM177.655 228.379C177.293 228.379 176.941 228.322 176.598 228.21C176.261 228.097 175.984 227.946 175.769 227.755L176.107 227.175C176.278 227.336 176.501 227.469 176.775 227.571C177.049 227.674 177.34 227.725 177.648 227.725C178.039 227.725 178.34 227.642 178.551 227.476C178.761 227.31 178.866 227.087 178.866 226.808C178.866 226.617 178.82 226.451 178.727 226.309C178.634 226.167 178.472 226.06 178.242 225.986C178.017 225.908 177.707 225.869 177.31 225.869H176.143L176.415 223.183H179.314V223.821H176.687L177.068 223.462L176.855 225.582L176.474 225.23H177.464C177.978 225.23 178.392 225.296 178.705 225.428C179.018 225.56 179.245 225.744 179.387 225.979C179.529 226.209 179.6 226.475 179.6 226.779C179.6 227.072 179.529 227.341 179.387 227.586C179.245 227.826 179.03 228.019 178.741 228.166C178.458 228.308 178.096 228.379 177.655 228.379ZM181.877 223.124C182.341 223.124 182.733 223.224 183.051 223.425C183.374 223.626 183.618 223.917 183.785 224.298C183.951 224.675 184.034 225.137 184.034 225.685C184.034 226.267 183.931 226.759 183.726 227.16C183.52 227.561 183.237 227.865 182.875 228.07C182.513 228.276 182.089 228.379 181.605 228.379C181.365 228.379 181.133 228.354 180.908 228.305C180.688 228.256 180.494 228.18 180.328 228.078L180.607 227.505C180.744 227.593 180.896 227.657 181.062 227.696C181.233 227.73 181.412 227.747 181.598 227.747C182.116 227.747 182.53 227.586 182.838 227.263C183.146 226.935 183.3 226.451 183.3 225.81C183.3 225.707 183.295 225.585 183.286 225.443C183.276 225.301 183.254 225.162 183.22 225.025L183.462 225.274C183.393 225.499 183.278 225.69 183.117 225.847C182.96 225.998 182.769 226.113 182.544 226.192C182.324 226.265 182.082 226.302 181.818 226.302C181.48 226.302 181.179 226.238 180.915 226.111C180.651 225.984 180.443 225.805 180.291 225.575C180.14 225.34 180.064 225.064 180.064 224.746C180.064 224.413 180.142 224.127 180.299 223.887C180.46 223.643 180.678 223.454 180.952 223.322C181.231 223.19 181.539 223.124 181.877 223.124ZM181.906 223.718C181.686 223.718 181.49 223.76 181.319 223.843C181.148 223.926 181.013 224.041 180.915 224.188C180.822 224.335 180.776 224.511 180.776 224.717C180.776 225.02 180.881 225.262 181.091 225.443C181.302 225.619 181.585 225.707 181.943 225.707C182.177 225.707 182.383 225.663 182.559 225.575C182.74 225.487 182.88 225.367 182.977 225.216C183.08 225.064 183.132 224.895 183.132 224.709C183.132 224.528 183.085 224.364 182.992 224.218C182.899 224.071 182.762 223.951 182.581 223.858C182.4 223.765 182.175 223.718 181.906 223.718ZM187.118 228.364C186.795 228.364 186.499 228.29 186.23 228.144C185.966 227.992 185.753 227.769 185.591 227.476C185.435 227.182 185.356 226.815 185.356 226.375C185.356 225.935 185.432 225.568 185.584 225.274C185.741 224.981 185.951 224.761 186.215 224.614C186.484 224.467 186.785 224.394 187.118 224.394C187.499 224.394 187.837 224.477 188.131 224.643C188.424 224.809 188.656 225.042 188.828 225.34C188.999 225.634 189.085 225.979 189.085 226.375C189.085 226.771 188.999 227.119 188.828 227.417C188.656 227.716 188.424 227.948 188.131 228.114C187.837 228.281 187.499 228.364 187.118 228.364ZM185.056 229.744V224.43H185.731V225.48L185.687 226.382L185.76 227.285V229.744H185.056ZM187.059 227.747C187.309 227.747 187.531 227.691 187.727 227.579C187.927 227.466 188.084 227.307 188.197 227.102C188.314 226.891 188.373 226.649 188.373 226.375C188.373 226.096 188.314 225.856 188.197 225.656C188.084 225.45 187.927 225.291 187.727 225.179C187.531 225.066 187.309 225.01 187.059 225.01C186.814 225.01 186.592 225.066 186.391 225.179C186.196 225.291 186.039 225.45 185.922 225.656C185.809 225.856 185.753 226.096 185.753 226.375C185.753 226.649 185.809 226.891 185.922 227.102C186.039 227.307 186.196 227.466 186.391 227.579C186.592 227.691 186.814 227.747 187.059 227.747ZM194.923 224.394C195.237 224.394 195.513 224.455 195.753 224.577C195.993 224.699 196.178 224.885 196.311 225.135C196.447 225.384 196.516 225.7 196.516 226.082V228.32H195.811V226.162C195.811 225.786 195.723 225.502 195.547 225.311C195.371 225.12 195.124 225.025 194.806 225.025C194.571 225.025 194.366 225.074 194.19 225.172C194.014 225.269 193.877 225.414 193.779 225.605C193.686 225.795 193.639 226.033 193.639 226.316V228.32H192.935V226.162C192.935 225.786 192.847 225.502 192.671 225.311C192.499 225.12 192.252 225.025 191.929 225.025C191.699 225.025 191.496 225.074 191.32 225.172C191.144 225.269 191.007 225.414 190.909 225.605C190.811 225.795 190.762 226.033 190.762 226.316V228.32H190.058V224.43H190.733V225.465L190.623 225.201C190.745 224.946 190.934 224.748 191.188 224.606C191.443 224.465 191.739 224.394 192.076 224.394C192.448 224.394 192.768 224.487 193.037 224.672C193.307 224.854 193.483 225.13 193.566 225.502L193.28 225.384C193.397 225.086 193.603 224.846 193.896 224.665C194.19 224.484 194.532 224.394 194.923 224.394Z" fill="white"/>
<g opacity="0.1" filter="url(#filter8_f_21_230)">
<rect x="331.721" y="122.731" width="52.4704" height="34.5785" rx="7" fill="white"/>
</g>
<g filter="url(#filter9_b_21_230)">
<rect x="327.346" y="107.709" width="61.2212" height="64.6226" rx="11" fill="#222222" fill-opacity="0.41"/>
</g>
<path d="M356.824 145.623C355.35 145.623 353.954 145.39 352.636 144.925C351.337 144.44 350.29 143.8 349.495 143.006L350.513 141.348C351.172 142.026 352.054 142.589 353.159 143.035C354.284 143.481 355.505 143.704 356.824 143.704C358.51 143.704 359.8 143.335 360.692 142.598C361.603 141.862 362.059 140.873 362.059 139.632C362.059 138.391 361.613 137.402 360.721 136.665C359.848 135.929 358.462 135.56 356.562 135.56H355.108V134.019L361.39 126.137L361.68 126.952H350.338V125.09H363.425V126.574L357.144 134.455L356.126 133.786H356.911C359.354 133.786 361.176 134.329 362.378 135.415C363.6 136.501 364.211 137.897 364.211 139.603C364.211 140.747 363.939 141.774 363.396 142.686C362.853 143.597 362.029 144.314 360.924 144.838C359.839 145.361 358.472 145.623 356.824 145.623Z" fill="white"/>
<path d="M350.093 153.422V148.945H350.618L353.579 152.623H353.304V148.945H353.943V153.422H353.419L350.458 149.744H350.733V153.422H350.093ZM357.305 153.473C356.963 153.473 356.646 153.416 356.352 153.3C356.062 153.185 355.81 153.025 355.597 152.821C355.384 152.612 355.217 152.369 355.098 152.092C354.979 151.815 354.919 151.512 354.919 151.183C354.919 150.855 354.979 150.552 355.098 150.275C355.217 149.998 355.384 149.757 355.597 149.553C355.81 149.344 356.062 149.182 356.352 149.067C356.642 148.951 356.959 148.894 357.305 148.894C357.646 148.894 357.959 148.951 358.245 149.067C358.535 149.177 358.786 149.337 358.999 149.546C359.217 149.751 359.383 149.992 359.498 150.269C359.618 150.546 359.677 150.851 359.677 151.183C359.677 151.516 359.618 151.821 359.498 152.098C359.383 152.375 359.217 152.618 358.999 152.827C358.786 153.032 358.535 153.192 358.245 153.307C357.959 153.418 357.646 153.473 357.305 153.473ZM357.305 152.904C357.552 152.904 357.78 152.861 357.989 152.776C358.202 152.691 358.385 152.571 358.539 152.418C358.697 152.26 358.818 152.077 358.903 151.868C358.993 151.659 359.038 151.431 359.038 151.183C359.038 150.936 358.993 150.708 358.903 150.499C358.818 150.29 358.697 150.109 358.539 149.956C358.385 149.798 358.202 149.676 357.989 149.591C357.78 149.506 357.552 149.463 357.305 149.463C357.053 149.463 356.821 149.506 356.607 149.591C356.398 149.676 356.215 149.798 356.057 149.956C355.9 150.109 355.776 150.29 355.686 150.499C355.601 150.708 355.559 150.936 355.559 151.183C355.559 151.431 355.601 151.659 355.686 151.868C355.776 152.077 355.9 152.26 356.057 152.418C356.215 152.571 356.398 152.691 356.607 152.776C356.821 152.861 357.053 152.904 357.305 152.904ZM361.809 153.422L359.84 148.945H360.53L362.34 153.077H361.944L363.767 148.945H364.406L362.443 153.422H361.809Z" fill="white"/>
<g opacity="0.1" filter="url(#filter10_f_21_230)">
<rect x="63.8965" y="122.731" width="234.865" height="34.5785" rx="7" fill="white"/>
</g>
<g filter="url(#filter11_b_21_230)">
<rect x="43.4363" y="107.709" width="274.91" height="64.6226" rx="11" fill="#222222" fill-opacity="0.41"/>
</g>
<path d="M64.7016 139.733C63.9494 139.733 63.2301 139.62 62.5437 139.395C61.8573 139.16 61.3167 138.859 60.9218 138.492L61.4436 137.392C61.8197 137.721 62.2992 137.994 62.8822 138.21C63.4651 138.426 64.0716 138.534 64.7016 138.534C65.2751 138.534 65.7406 138.469 66.0979 138.337C66.4551 138.205 66.7184 138.027 66.8877 137.801C67.0569 137.566 67.1415 137.303 67.1415 137.011C67.1415 136.673 67.0287 136.4 66.803 136.193C66.5868 135.986 66.3 135.822 65.9427 135.7C65.5948 135.568 65.2093 135.455 64.7862 135.361C64.3631 135.267 63.9353 135.159 63.5028 135.037C63.0796 134.905 62.6894 134.74 62.3321 134.543C61.9842 134.346 61.7022 134.082 61.4859 133.753C61.2697 133.415 61.1615 132.982 61.1615 132.456C61.1615 131.948 61.2932 131.482 61.5564 131.059C61.8291 130.627 62.2428 130.284 62.7976 130.03C63.3617 129.767 64.0763 129.635 64.9413 129.635C65.5149 129.635 66.0838 129.71 66.6479 129.861C67.2121 130.011 67.701 130.227 68.1147 130.509L67.6493 131.638C67.2262 131.356 66.7795 131.153 66.3094 131.031C65.8393 130.9 65.3833 130.834 64.9413 130.834C64.3866 130.834 63.9306 130.904 63.5733 131.045C63.216 131.186 62.9527 131.374 62.7835 131.609C62.6236 131.844 62.5437 132.108 62.5437 132.399C62.5437 132.747 62.6518 133.024 62.8681 133.231C63.0937 133.438 63.3805 133.603 63.7284 133.725C64.0857 133.847 64.4759 133.96 64.899 134.063C65.3221 134.157 65.7453 134.266 66.1684 134.388C66.6009 134.51 66.9911 134.67 67.339 134.867C67.6963 135.065 67.9831 135.328 68.1993 135.657C68.4156 135.986 68.5237 136.409 68.5237 136.927C68.5237 137.425 68.3874 137.89 68.1147 138.323C67.842 138.746 67.4189 139.089 66.8454 139.352C66.2812 139.606 65.5666 139.733 64.7016 139.733ZM73.5319 139.705C72.8925 139.705 72.3284 139.587 71.8394 139.352C71.3599 139.117 70.9838 138.76 70.7111 138.281C70.4478 137.792 70.3162 137.18 70.3162 136.447V132.145H71.6702V136.292C71.6702 137.025 71.8441 137.575 72.192 137.942C72.5493 138.309 73.0476 138.492 73.687 138.492C74.1571 138.492 74.5662 138.398 74.914 138.21C75.2619 138.013 75.5299 137.73 75.718 137.364C75.906 136.988 76 136.536 76 136.01V132.145H77.354V139.62H76.0706V137.604L76.2821 138.139C76.0376 138.638 75.671 139.023 75.182 139.296C74.6931 139.569 74.143 139.705 73.5319 139.705ZM79.9316 139.62V132.145H81.2291V134.176L81.1022 133.669C81.3091 133.151 81.6569 132.757 82.1459 132.484C82.6348 132.211 83.2366 132.075 83.9512 132.075V133.386C83.8947 133.377 83.8383 133.372 83.7819 133.372C83.7349 133.372 83.6879 133.372 83.6409 133.372C82.9169 133.372 82.3433 133.589 81.9202 134.021C81.4971 134.454 81.2855 135.079 81.2855 135.897V139.62H79.9316ZM89.5831 139.705C88.9625 139.705 88.3937 139.564 87.8765 139.282C87.3688 138.99 86.9598 138.563 86.6495 137.998C86.3486 137.434 86.1982 136.729 86.1982 135.883C86.1982 135.037 86.3439 134.331 86.6354 133.767C86.9363 133.203 87.3406 132.78 87.8483 132.498C88.3655 132.216 88.9437 132.075 89.5831 132.075C90.3165 132.075 90.9653 132.235 91.5294 132.554C92.0936 132.874 92.5402 133.321 92.8693 133.894C93.1984 134.458 93.3629 135.121 93.3629 135.883C93.3629 136.644 93.1984 137.312 92.8693 137.886C92.5402 138.459 92.0936 138.906 91.5294 139.225C90.9653 139.545 90.3165 139.705 89.5831 139.705ZM85.6199 142.356V132.145H86.9175V134.162L86.8329 135.897L86.9739 137.632V142.356H85.6199ZM89.4703 138.52C89.9498 138.52 90.3776 138.412 90.7537 138.196C91.1392 137.98 91.4401 137.674 91.6564 137.279C91.882 136.875 91.9948 136.409 91.9948 135.883C91.9948 135.347 91.882 134.886 91.6564 134.501C91.4401 134.106 91.1392 133.8 90.7537 133.584C90.3776 133.368 89.9498 133.26 89.4703 133.26C89.0001 133.26 88.5723 133.368 88.1868 133.584C87.8107 133.8 87.5098 134.106 87.2842 134.501C87.0679 134.886 86.9598 135.347 86.9598 135.883C86.9598 136.409 87.0679 136.875 87.2842 137.279C87.5098 137.674 87.8107 137.98 88.1868 138.196C88.5723 138.412 89.0001 138.52 89.4703 138.52ZM95.2336 139.62V132.145H96.5312V134.176L96.4043 133.669C96.6111 133.151 96.959 132.757 97.4479 132.484C97.9369 132.211 98.5386 132.075 99.2532 132.075V133.386C99.1968 133.377 99.1404 133.372 99.084 133.372C99.037 133.372 98.99 133.372 98.9429 133.372C98.2189 133.372 97.6454 133.589 97.2223 134.021C96.7992 134.454 96.5876 135.079 96.5876 135.897V139.62H95.2336ZM100.922 139.62V132.145H102.276V139.62H100.922ZM101.599 130.707C101.336 130.707 101.115 130.622 100.936 130.453C100.767 130.284 100.682 130.077 100.682 129.832C100.682 129.578 100.767 129.367 100.936 129.198C101.115 129.028 101.336 128.944 101.599 128.944C101.862 128.944 102.079 129.028 102.248 129.198C102.426 129.358 102.516 129.56 102.516 129.804C102.516 130.058 102.431 130.274 102.262 130.453C102.093 130.622 101.872 130.707 101.599 130.707ZM107.005 139.705C106.384 139.705 105.792 139.62 105.228 139.451C104.673 139.282 104.236 139.075 103.916 138.831L104.48 137.759C104.8 137.975 105.195 138.158 105.665 138.309C106.135 138.459 106.615 138.534 107.104 138.534C107.734 138.534 108.185 138.445 108.458 138.266C108.74 138.088 108.881 137.839 108.881 137.519C108.881 137.284 108.796 137.1 108.627 136.969C108.458 136.837 108.232 136.738 107.95 136.673C107.677 136.607 107.372 136.55 107.033 136.503C106.695 136.447 106.356 136.381 106.018 136.306C105.679 136.221 105.369 136.109 105.087 135.967C104.805 135.817 104.579 135.615 104.41 135.361C104.241 135.098 104.156 134.75 104.156 134.317C104.156 133.866 104.283 133.471 104.537 133.133C104.791 132.794 105.148 132.536 105.609 132.357C106.079 132.169 106.634 132.075 107.273 132.075C107.762 132.075 108.255 132.136 108.754 132.258C109.262 132.371 109.675 132.536 109.995 132.752L109.417 133.824C109.078 133.598 108.726 133.443 108.359 133.358C107.992 133.274 107.625 133.231 107.259 133.231C106.666 133.231 106.225 133.33 105.933 133.528C105.642 133.716 105.496 133.96 105.496 134.261C105.496 134.515 105.58 134.712 105.75 134.853C105.928 134.985 106.154 135.088 106.427 135.164C106.709 135.239 107.019 135.305 107.358 135.361C107.696 135.408 108.034 135.474 108.373 135.558C108.711 135.634 109.017 135.742 109.29 135.883C109.572 136.024 109.797 136.221 109.967 136.475C110.145 136.729 110.235 137.068 110.235 137.491C110.235 137.942 110.103 138.332 109.84 138.661C109.577 138.99 109.205 139.249 108.726 139.437C108.246 139.616 107.672 139.705 107.005 139.705ZM115.255 139.705C114.456 139.705 113.751 139.54 113.14 139.211C112.538 138.882 112.068 138.431 111.729 137.857C111.4 137.284 111.236 136.626 111.236 135.883C111.236 135.14 111.396 134.482 111.715 133.908C112.044 133.335 112.491 132.888 113.055 132.568C113.629 132.239 114.273 132.075 114.987 132.075C115.711 132.075 116.351 132.235 116.905 132.554C117.46 132.874 117.893 133.325 118.203 133.908C118.523 134.482 118.683 135.154 118.683 135.925C118.683 135.982 118.678 136.047 118.668 136.123C118.668 136.198 118.664 136.268 118.654 136.334H112.294V135.361H117.949L117.399 135.7C117.408 135.22 117.31 134.792 117.103 134.416C116.896 134.04 116.609 133.748 116.243 133.542C115.885 133.325 115.467 133.217 114.987 133.217C114.517 133.217 114.099 133.325 113.732 133.542C113.365 133.748 113.079 134.045 112.872 134.43C112.665 134.806 112.561 135.239 112.561 135.728V135.953C112.561 136.452 112.674 136.898 112.9 137.293C113.135 137.679 113.459 137.98 113.873 138.196C114.287 138.412 114.762 138.52 115.298 138.52C115.74 138.52 116.139 138.445 116.496 138.295C116.863 138.144 117.183 137.919 117.455 137.618L118.203 138.492C117.865 138.887 117.441 139.188 116.934 139.395C116.435 139.602 115.876 139.705 115.255 139.705ZM125.831 134.007H130.909V135.206H125.831V134.007ZM125.958 138.393H131.712V139.62H124.548V129.748H131.515V130.975H125.958V138.393ZM135.635 139.62L132.363 132.145H133.773L136.679 138.915H136.002L138.964 132.145H140.289L137.017 139.62H135.635ZM144.675 139.705C143.876 139.705 143.171 139.54 142.559 139.211C141.958 138.882 141.487 138.431 141.149 137.857C140.82 137.284 140.655 136.626 140.655 135.883C140.655 135.14 140.815 134.482 141.135 133.908C141.464 133.335 141.911 132.888 142.475 132.568C143.048 132.239 143.692 132.075 144.407 132.075C145.131 132.075 145.77 132.235 146.325 132.554C146.88 132.874 147.312 133.325 147.623 133.908C147.942 134.482 148.102 135.154 148.102 135.925C148.102 135.982 148.097 136.047 148.088 136.123C148.088 136.198 148.083 136.268 148.074 136.334H141.713V135.361H147.369L146.819 135.7C146.828 135.22 146.729 134.792 146.523 134.416C146.316 134.04 146.029 133.748 145.662 133.542C145.305 133.325 144.886 133.217 144.407 133.217C143.937 133.217 143.518 133.325 143.152 133.542C142.785 133.748 142.498 134.045 142.291 134.43C142.085 134.806 141.981 135.239 141.981 135.728V135.953C141.981 136.452 142.094 136.898 142.32 137.293C142.555 137.679 142.879 137.98 143.293 138.196C143.706 138.412 144.181 138.52 144.717 138.52C145.159 138.52 145.559 138.445 145.916 138.295C146.283 138.144 146.602 137.919 146.875 137.618L147.623 138.492C147.284 138.887 146.861 139.188 146.353 139.395C145.855 139.602 145.296 139.705 144.675 139.705ZM153.974 132.075C154.585 132.075 155.121 132.192 155.581 132.427C156.052 132.662 156.418 133.02 156.682 133.499C156.945 133.979 157.076 134.585 157.076 135.319V139.62H155.723V135.474C155.723 134.75 155.544 134.205 155.187 133.838C154.839 133.471 154.345 133.288 153.706 133.288C153.226 133.288 152.808 133.382 152.45 133.57C152.093 133.758 151.816 134.035 151.618 134.402C151.43 134.769 151.336 135.225 151.336 135.77V139.62H149.982V132.145H151.28V134.162L151.068 133.626C151.313 133.137 151.689 132.757 152.197 132.484C152.704 132.211 153.297 132.075 153.974 132.075ZM162.149 139.705C161.397 139.705 160.814 139.503 160.4 139.099C159.987 138.694 159.78 138.116 159.78 137.364V130.509H161.134V137.307C161.134 137.712 161.232 138.022 161.43 138.238C161.637 138.454 161.928 138.563 162.304 138.563C162.727 138.563 163.08 138.445 163.362 138.21L163.785 139.183C163.578 139.362 163.329 139.493 163.038 139.578C162.756 139.663 162.459 139.705 162.149 139.705ZM158.51 133.26V132.145H163.277V133.26H158.51Z" fill="white"/>
<path opacity="0.5" d="M62.8533 152.48C62.3983 152.48 62.0094 152.38 61.6865 152.179C61.3636 151.978 61.1165 151.69 60.9453 151.313C60.7789 150.931 60.6958 150.467 60.6958 149.919C60.6958 149.336 60.7985 148.845 61.004 148.444C61.2095 148.042 61.4957 147.739 61.8626 147.534C62.2295 147.328 62.6503 147.225 63.1249 147.225C63.3695 147.225 63.6019 147.25 63.822 147.299C64.0471 147.348 64.2403 147.424 64.4018 147.526L64.1229 148.099C63.9908 148.006 63.8392 147.942 63.6679 147.908C63.5016 147.874 63.3255 147.856 63.1395 147.856C62.6161 147.856 62.2002 148.02 61.892 148.348C61.5837 148.671 61.4296 149.153 61.4296 149.794C61.4296 149.897 61.4345 150.019 61.4443 150.161C61.4541 150.303 61.4786 150.442 61.5177 150.579L61.2682 150.33C61.3416 150.105 61.4565 149.916 61.6131 149.765C61.7745 149.608 61.9654 149.493 62.1855 149.42C62.4106 149.341 62.6527 149.302 62.912 149.302C63.2545 149.302 63.5578 149.366 63.822 149.493C64.0862 149.62 64.2942 149.801 64.4458 150.036C64.5975 150.266 64.6733 150.54 64.6733 150.858C64.6733 151.186 64.5926 151.472 64.4312 151.717C64.2697 151.961 64.052 152.15 63.778 152.282C63.504 152.414 63.1958 152.48 62.8533 152.48ZM62.824 151.885C63.049 151.885 63.2447 151.844 63.4111 151.761C63.5823 151.677 63.7169 151.563 63.8147 151.416C63.9126 151.264 63.9615 151.088 63.9615 150.887C63.9615 150.584 63.8563 150.344 63.6459 150.168C63.4355 149.987 63.1493 149.897 62.7873 149.897C62.5524 149.897 62.347 149.941 62.1708 150.029C61.9947 150.117 61.8553 150.237 61.7525 150.388C61.6547 150.535 61.6058 150.704 61.6058 150.895C61.6058 151.071 61.6522 151.235 61.7452 151.386C61.8382 151.533 61.9751 151.653 62.1562 151.746C62.3372 151.839 62.5598 151.885 62.824 151.885ZM65.7095 149.5C65.5725 149.5 65.4551 149.454 65.3572 149.361C65.2594 149.263 65.2104 149.141 65.2104 148.994C65.2104 148.847 65.2594 148.727 65.3572 148.634C65.4551 148.541 65.5725 148.495 65.7095 148.495C65.8416 148.495 65.9541 148.541 66.047 148.634C66.1449 148.727 66.1938 148.847 66.1938 148.994C66.1938 149.141 66.1449 149.263 66.047 149.361C65.9541 149.454 65.8416 149.5 65.7095 149.5ZM65.7095 152.465C65.5725 152.465 65.4551 152.419 65.3572 152.326C65.2594 152.228 65.2104 152.106 65.2104 151.959C65.2104 151.812 65.2594 151.692 65.3572 151.599C65.4551 151.506 65.5725 151.46 65.7095 151.46C65.8416 151.46 65.9541 151.506 66.047 151.599C66.1449 151.692 66.1938 151.812 66.1938 151.959C66.1938 152.106 66.1449 152.228 66.047 152.326C65.9541 152.419 65.8416 152.465 65.7095 152.465ZM68.9866 152.48C68.5855 152.48 68.2259 152.377 67.9079 152.172C67.5947 151.966 67.3452 151.668 67.1593 151.276C66.9783 150.885 66.8878 150.41 66.8878 149.853C66.8878 149.295 66.9783 148.82 67.1593 148.429C67.3452 148.038 67.5947 147.739 67.9079 147.534C68.2259 147.328 68.5855 147.225 68.9866 147.225C69.3829 147.225 69.7401 147.328 70.0581 147.534C70.3761 147.739 70.6256 148.038 70.8066 148.429C70.9877 148.82 71.0782 149.295 71.0782 149.853C71.0782 150.41 70.9877 150.885 70.8066 151.276C70.6256 151.668 70.3761 151.966 70.0581 152.172C69.7401 152.377 69.3829 152.48 68.9866 152.48ZM68.9866 151.827C69.2557 151.827 69.4906 151.753 69.6912 151.607C69.8966 151.46 70.0556 151.24 70.1682 150.946C70.2856 150.653 70.3443 150.288 70.3443 149.853C70.3443 149.417 70.2856 149.053 70.1682 148.759C70.0556 148.466 69.8966 148.245 69.6912 148.099C69.4906 147.952 69.2557 147.878 68.9866 147.878C68.7176 147.878 68.4803 147.952 68.2748 148.099C68.0693 148.245 67.9079 148.466 67.7904 148.759C67.6779 149.053 67.6216 149.417 67.6216 149.853C67.6216 150.288 67.6779 150.653 67.7904 150.946C67.9079 151.24 68.0693 151.46 68.2748 151.607C68.4803 151.753 68.7176 151.827 68.9866 151.827ZM73.8815 152.48C73.4803 152.48 73.1207 152.377 72.8027 152.172C72.4896 151.966 72.2401 151.668 72.0541 151.276C71.8731 150.885 71.7826 150.41 71.7826 149.853C71.7826 149.295 71.8731 148.82 72.0541 148.429C72.2401 148.038 72.4896 147.739 72.8027 147.534C73.1207 147.328 73.4803 147.225 73.8815 147.225C74.2778 147.225 74.6349 147.328 74.9529 147.534C75.2709 147.739 75.5205 148.038 75.7015 148.429C75.8825 148.82 75.973 149.295 75.973 149.853C75.973 150.41 75.8825 150.885 75.7015 151.276C75.5205 151.668 75.2709 151.966 74.9529 152.172C74.6349 152.377 74.2778 152.48 73.8815 152.48ZM73.8815 151.827C74.1506 151.827 74.3854 151.753 74.586 151.607C74.7915 151.46 74.9505 151.24 75.063 150.946C75.1804 150.653 75.2391 150.288 75.2391 149.853C75.2391 149.417 75.1804 149.053 75.063 148.759C74.9505 148.466 74.7915 148.245 74.586 148.099C74.3854 147.952 74.1506 147.878 73.8815 147.878C73.6124 147.878 73.3751 147.952 73.1696 148.099C72.9641 148.245 72.8027 148.466 72.6853 148.759C72.5727 149.053 72.5165 149.417 72.5165 149.853C72.5165 150.288 72.5727 150.653 72.6853 150.946C72.8027 151.24 72.9641 151.46 73.1696 151.607C73.3751 151.753 73.6124 151.827 73.8815 151.827ZM79.0552 152.465C78.7323 152.465 78.4363 152.392 78.1672 152.245C77.903 152.093 77.6902 151.871 77.5287 151.577C77.3722 151.284 77.2939 150.917 77.2939 150.476C77.2939 150.036 77.3697 149.669 77.5214 149.376C77.678 149.082 77.8883 148.862 78.1525 148.715C78.4216 148.568 78.7225 148.495 79.0552 148.495C79.4368 148.495 79.7744 148.578 80.0679 148.744C80.3615 148.911 80.5939 149.143 80.7651 149.442C80.9363 149.735 81.022 150.08 81.022 150.476C81.022 150.873 80.9363 151.22 80.7651 151.518C80.5939 151.817 80.3615 152.049 80.0679 152.216C79.7744 152.382 79.4368 152.465 79.0552 152.465ZM76.993 153.845V148.532H77.6682V149.581L77.6242 150.484L77.6975 151.386V153.845H76.993ZM78.9965 151.849C79.246 151.849 79.4686 151.792 79.6643 151.68C79.8649 151.567 80.0215 151.408 80.134 151.203C80.2514 150.993 80.3101 150.75 80.3101 150.476C80.3101 150.198 80.2514 149.958 80.134 149.757C80.0215 149.552 79.8649 149.393 79.6643 149.28C79.4686 149.168 79.246 149.111 78.9965 149.111C78.7519 149.111 78.5293 149.168 78.3287 149.28C78.133 149.393 77.9764 149.552 77.859 149.757C77.7465 149.958 77.6902 150.198 77.6902 150.476C77.6902 150.75 77.7465 150.993 77.859 151.203C77.9764 151.408 78.133 151.567 78.3287 151.68C78.5293 151.792 78.7519 151.849 78.9965 151.849ZM86.8609 148.495C87.174 148.495 87.4505 148.556 87.6902 148.678C87.9299 148.801 88.1158 148.987 88.2479 149.236C88.3849 149.486 88.4534 149.801 88.4534 150.183V152.421H87.7489V150.264C87.7489 149.887 87.6608 149.603 87.4847 149.412C87.3086 149.221 87.0615 149.126 86.7435 149.126C86.5087 149.126 86.3032 149.175 86.127 149.273C85.9509 149.371 85.8139 149.515 85.7161 149.706C85.6231 149.897 85.5766 150.134 85.5766 150.418V152.421H84.8721V150.264C84.8721 149.887 84.7841 149.603 84.6079 149.412C84.4367 149.221 84.1896 149.126 83.8667 149.126C83.6368 149.126 83.4338 149.175 83.2576 149.273C83.0815 149.371 82.9445 149.515 82.8467 149.706C82.7488 149.897 82.6999 150.134 82.6999 150.418V152.421H81.9954V148.532H82.6705V149.566L82.5604 149.302C82.6828 149.048 82.8711 148.85 83.1255 148.708C83.3799 148.566 83.6759 148.495 84.0135 148.495C84.3853 148.495 84.7058 148.588 84.9749 148.774C85.244 148.955 85.4201 149.231 85.5033 149.603L85.2171 149.486C85.3345 149.187 85.54 148.947 85.8335 148.766C86.127 148.585 86.4695 148.495 86.8609 148.495ZM91.471 150.711V150.102H93.4451V150.711H91.471ZM98.1886 152.48C97.7728 152.48 97.4132 152.419 97.1098 152.296C96.8065 152.174 96.5717 152 96.4053 151.775C96.239 151.545 96.1558 151.276 96.1558 150.968C96.1558 150.665 96.2341 150.408 96.3907 150.198C96.5521 149.982 96.7845 149.821 97.0878 149.713C97.3912 149.601 97.7581 149.544 98.1886 149.544C98.6192 149.544 98.9861 149.601 99.2894 149.713C99.5977 149.821 99.8325 149.982 99.9939 150.198C100.155 150.413 100.236 150.67 100.236 150.968C100.236 151.276 100.153 151.545 99.9866 151.775C99.8203 152 99.583 152.174 99.2748 152.296C98.9665 152.419 98.6045 152.48 98.1886 152.48ZM98.1886 151.885C98.5996 151.885 98.9201 151.802 99.15 151.636C99.3848 151.465 99.5023 151.235 99.5023 150.946C99.5023 150.662 99.3848 150.44 99.15 150.278C98.9201 150.112 98.5996 150.029 98.1886 150.029C97.7826 150.029 97.4645 150.112 97.2346 150.278C97.0047 150.44 96.8897 150.662 96.8897 150.946C96.8897 151.235 97.0047 151.465 97.2346 151.636C97.4645 151.802 97.7826 151.885 98.1886 151.885ZM98.1886 149.941C97.7972 149.941 97.4645 149.889 97.1906 149.787C96.9166 149.679 96.7062 149.527 96.5594 149.332C96.4127 149.131 96.3393 148.894 96.3393 148.62C96.3393 148.331 96.4151 148.084 96.5668 147.878C96.7233 147.668 96.9411 147.507 97.2199 147.394C97.4988 147.282 97.8217 147.225 98.1886 147.225C98.5605 147.225 98.8858 147.282 99.1647 147.394C99.4435 147.507 99.6613 147.668 99.8178 147.878C99.9744 148.084 100.053 148.331 100.053 148.62C100.053 148.894 99.9793 149.131 99.8325 149.332C99.6857 149.527 99.4729 149.679 99.194 149.787C98.9152 149.889 98.58 149.941 98.1886 149.941ZM98.1886 149.471C98.5458 149.471 98.8246 149.398 99.0252 149.251C99.2307 149.104 99.3335 148.903 99.3335 148.649C99.3335 148.39 99.2283 148.187 99.0179 148.04C98.8075 147.893 98.5311 147.82 98.1886 147.82C97.8462 147.82 97.5722 147.893 97.3667 148.04C97.1661 148.187 97.0658 148.39 97.0658 148.649C97.0658 148.903 97.1637 149.104 97.3594 149.251C97.5599 149.398 97.8364 149.471 98.1886 149.471ZM101.392 149.5C101.255 149.5 101.138 149.454 101.04 149.361C100.942 149.263 100.893 149.141 100.893 148.994C100.893 148.847 100.942 148.727 101.04 148.634C101.138 148.541 101.255 148.495 101.392 148.495C101.524 148.495 101.637 148.541 101.73 148.634C101.828 148.727 101.877 148.847 101.877 148.994C101.877 149.141 101.828 149.263 101.73 149.361C101.637 149.454 101.524 149.5 101.392 149.5ZM101.392 152.465C101.255 152.465 101.138 152.419 101.04 152.326C100.942 152.228 100.893 152.106 100.893 151.959C100.893 151.812 100.942 151.692 101.04 151.599C101.138 151.506 101.255 151.46 101.392 151.46C101.524 151.46 101.637 151.506 101.73 151.599C101.828 151.692 101.877 151.812 101.877 151.959C101.877 152.106 101.828 152.228 101.73 152.326C101.637 152.419 101.524 152.465 101.392 152.465ZM104.67 152.48C104.268 152.48 103.909 152.377 103.591 152.172C103.278 151.966 103.028 151.668 102.842 151.276C102.661 150.885 102.571 150.41 102.571 149.853C102.571 149.295 102.661 148.82 102.842 148.429C103.028 148.038 103.278 147.739 103.591 147.534C103.909 147.328 104.268 147.225 104.67 147.225C105.066 147.225 105.423 147.328 105.741 147.534C106.059 147.739 106.309 148.038 106.49 148.429C106.671 148.82 106.761 149.295 106.761 149.853C106.761 150.41 106.671 150.885 106.49 151.276C106.309 151.668 106.059 151.966 105.741 152.172C105.423 152.377 105.066 152.48 104.67 152.48ZM104.67 151.827C104.939 151.827 105.173 151.753 105.374 151.607C105.58 151.46 105.739 151.24 105.851 150.946C105.968 150.653 106.027 150.288 106.027 149.853C106.027 149.417 105.968 149.053 105.851 148.759C105.739 148.466 105.58 148.245 105.374 148.099C105.173 147.952 104.939 147.878 104.67 147.878C104.4 147.878 104.163 147.952 103.958 148.099C103.752 148.245 103.591 148.466 103.473 148.759C103.361 149.053 103.305 149.417 103.305 149.853C103.305 150.288 103.361 150.653 103.473 150.946C103.591 151.24 103.752 151.46 103.958 151.607C104.163 151.753 104.4 151.827 104.67 151.827ZM109.564 152.48C109.163 152.48 108.804 152.377 108.486 152.172C108.172 151.966 107.923 151.668 107.737 151.276C107.556 150.885 107.466 150.41 107.466 149.853C107.466 149.295 107.556 148.82 107.737 148.429C107.923 148.038 108.172 147.739 108.486 147.534C108.804 147.328 109.163 147.225 109.564 147.225C109.961 147.225 110.318 147.328 110.636 147.534C110.954 147.739 111.203 148.038 111.384 148.429C111.565 148.82 111.656 149.295 111.656 149.853C111.656 150.41 111.565 150.885 111.384 151.276C111.203 151.668 110.954 151.966 110.636 152.172C110.318 152.377 109.961 152.48 109.564 152.48ZM109.564 151.827C109.833 151.827 110.068 151.753 110.269 151.607C110.474 151.46 110.633 151.24 110.746 150.946C110.863 150.653 110.922 150.288 110.922 149.853C110.922 149.417 110.863 149.053 110.746 148.759C110.633 148.466 110.474 148.245 110.269 148.099C110.068 147.952 109.833 147.878 109.564 147.878C109.295 147.878 109.058 147.952 108.853 148.099C108.647 148.245 108.486 148.466 108.368 148.759C108.256 149.053 108.199 149.417 108.199 149.853C108.199 150.288 108.256 150.653 108.368 150.946C108.486 151.24 108.647 151.46 108.853 151.607C109.058 151.753 109.295 151.827 109.564 151.827ZM114.738 152.465C114.415 152.465 114.119 152.392 113.85 152.245C113.586 152.093 113.373 151.871 113.212 151.577C113.055 151.284 112.977 150.917 112.977 150.476C112.977 150.036 113.053 149.669 113.204 149.376C113.361 149.082 113.571 148.862 113.835 148.715C114.105 148.568 114.405 148.495 114.738 148.495C115.12 148.495 115.457 148.578 115.751 148.744C116.044 148.911 116.277 149.143 116.448 149.442C116.619 149.735 116.705 150.08 116.705 150.476C116.705 150.873 116.619 151.22 116.448 151.518C116.277 151.817 116.044 152.049 115.751 152.216C115.457 152.382 115.12 152.465 114.738 152.465ZM112.676 153.845V148.532H113.351V149.581L113.307 150.484L113.38 151.386V153.845H112.676ZM114.679 151.849C114.929 151.849 115.152 151.792 115.347 151.68C115.548 151.567 115.704 151.408 115.817 151.203C115.934 150.993 115.993 150.75 115.993 150.476C115.993 150.198 115.934 149.958 115.817 149.757C115.704 149.552 115.548 149.393 115.347 149.28C115.152 149.168 114.929 149.111 114.679 149.111C114.435 149.111 114.212 149.168 114.012 149.28C113.816 149.393 113.659 149.552 113.542 149.757C113.429 149.958 113.373 150.198 113.373 150.476C113.373 150.75 113.429 150.993 113.542 151.203C113.659 151.408 113.816 151.567 114.012 151.68C114.212 151.792 114.435 151.849 114.679 151.849ZM122.544 148.495C122.857 148.495 123.133 148.556 123.373 148.678C123.613 148.801 123.799 148.987 123.931 149.236C124.068 149.486 124.136 149.801 124.136 150.183V152.421H123.432V150.264C123.432 149.887 123.344 149.603 123.168 149.412C122.991 149.221 122.744 149.126 122.426 149.126C122.192 149.126 121.986 149.175 121.81 149.273C121.634 149.371 121.497 149.515 121.399 149.706C121.306 149.897 121.26 150.134 121.26 150.418V152.421H120.555V150.264C120.555 149.887 120.467 149.603 120.291 149.412C120.12 149.221 119.873 149.126 119.55 149.126C119.32 149.126 119.117 149.175 118.941 149.273C118.764 149.371 118.627 149.515 118.53 149.706C118.432 149.897 118.383 150.134 118.383 150.418V152.421H117.678V148.532H118.353V149.566L118.243 149.302C118.366 149.048 118.554 148.85 118.808 148.708C119.063 148.566 119.359 148.495 119.696 148.495C120.068 148.495 120.389 148.588 120.658 148.774C120.927 148.955 121.103 149.231 121.186 149.603L120.9 149.486C121.017 149.187 121.223 148.947 121.516 148.766C121.81 148.585 122.152 148.495 122.544 148.495Z" fill="white"/>
<defs>
<filter id="filter0_f_21_230" x="87.4122" y="0.0330086" width="328.465" height="128.178" filterUnits="userSpaceOnUse" color-interpolation-filters="sRGB">
<feFlood flood-opacity="0" result="BackgroundImageFix"/>
<feBlend mode="normal" in="SourceGraphic" in2="BackgroundImageFix" result="shape"/>
<feGaussianBlur stdDeviation="23.4" result="effect1_foregroundBlur_21_230"/>
</filter>
<filter id="filter1_b_21_230" x="83.552" y="1.61103" width="335.31" height="125.023" filterUnits="userSpaceOnUse" color-interpolation-filters="sRGB">
<feFlood flood-opacity="0" result="BackgroundImageFix"/>
<feGaussianBlur in="BackgroundImageFix" stdDeviation="15.1"/>
<feComposite in2="SourceAlpha" operator="in" result="effect1_backgroundBlur_21_230"/>
<feBlend mode="normal" in="SourceGraphic" in2="effect1_backgroundBlur_21_230" result="shape"/>
</filter>
<filter id="filter2_f_21_230" x="0.917042" y="0.0330086" width="146.07" height="128.178" filterUnits="userSpaceOnUse" color-interpolation-filters="sRGB">
<feFlood flood-opacity="0" result="BackgroundImageFix"/>
<feBlend mode="normal" in="SourceGraphic" in2="BackgroundImageFix" result="shape"/>
<feGaussianBlur stdDeviation="23.4" result="effect1_foregroundBlur_21_230"/>
</filter>
<filter id="filter3_b_21_230" x="13.1418" y="1.61103" width="121.621" height="125.023" filterUnits="userSpaceOnUse" color-interpolation-filters="sRGB">
<feFlood flood-opacity="0" result="BackgroundImageFix"/>
<feGaussianBlur in="BackgroundImageFix" stdDeviation="15.1"/>
<feComposite in2="SourceAlpha" operator="in" result="effect1_backgroundBlur_21_230"/>
<feBlend mode="normal" in="SourceGraphic" in2="effect1_backgroundBlur_21_230" result="shape"/>
</filter>
<filter id="filter4_f_21_230" x="87.4122" y="151.83" width="328.465" height="128.178" filterUnits="userSpaceOnUse" color-interpolation-filters="sRGB">
<feFlood flood-opacity="0" result="BackgroundImageFix"/>
<feBlend mode="normal" in="SourceGraphic" in2="BackgroundImageFix" result="shape"/>
<feGaussianBlur stdDeviation="23.4" result="effect1_foregroundBlur_21_230"/>
</filter>
<filter id="filter5_b_21_230" x="83.552" y="153.408" width="335.31" height="125.023" filterUnits="userSpaceOnUse" color-interpolation-filters="sRGB">
<feFlood flood-opacity="0" result="BackgroundImageFix"/>
<feGaussianBlur in="BackgroundImageFix" stdDeviation="15.1"/>
<feComposite in2="SourceAlpha" operator="in" result="effect1_backgroundBlur_21_230"/>
<feBlend mode="normal" in="SourceGraphic" in2="effect1_backgroundBlur_21_230" result="shape"/>
</filter>
<filter id="filter6_f_21_230" x="0.917042" y="151.83" width="146.07" height="128.178" filterUnits="userSpaceOnUse" color-interpolation-filters="sRGB">
<feFlood flood-opacity="0" result="BackgroundImageFix"/>
<feBlend mode="normal" in="SourceGraphic" in2="BackgroundImageFix" result="shape"/>
<feGaussianBlur stdDeviation="23.4" result="effect1_foregroundBlur_21_230"/>
</filter>
<filter id="filter7_b_21_230" x="13.1418" y="153.408" width="121.621" height="125.023" filterUnits="userSpaceOnUse" color-interpolation-filters="sRGB">
<feFlood flood-opacity="0" result="BackgroundImageFix"/>
<feGaussianBlur in="BackgroundImageFix" stdDeviation="15.1"/>
<feComposite in2="SourceAlpha" operator="in" result="effect1_backgroundBlur_21_230"/>
<feBlend mode="normal" in="SourceGraphic" in2="effect1_backgroundBlur_21_230" result="shape"/>
</filter>
<filter id="filter8_f_21_230" x="284.921" y="75.9314" width="146.07" height="128.178" filterUnits="userSpaceOnUse" color-interpolation-filters="sRGB">
<feFlood flood-opacity="0" result="BackgroundImageFix"/>
<feBlend mode="normal" in="SourceGraphic" in2="BackgroundImageFix" result="shape"/>
<feGaussianBlur stdDeviation="23.4" result="effect1_foregroundBlur_21_230"/>
</filter>
<filter id="filter9_b_21_230" x="297.146" y="77.5095" width="121.621" height="125.023" filterUnits="userSpaceOnUse" color-interpolation-filters="sRGB">
<feFlood flood-opacity="0" result="BackgroundImageFix"/>
<feGaussianBlur in="BackgroundImageFix" stdDeviation="15.1"/>
<feComposite in2="SourceAlpha" operator="in" result="effect1_backgroundBlur_21_230"/>
<feBlend mode="normal" in="SourceGraphic" in2="effect1_backgroundBlur_21_230" result="shape"/>
</filter>
<filter id="filter10_f_21_230" x="17.0965" y="75.9314" width="328.465" height="128.178" filterUnits="userSpaceOnUse" color-interpolation-filters="sRGB">
<feFlood flood-opacity="0" result="BackgroundImageFix"/>
<feBlend mode="normal" in="SourceGraphic" in2="BackgroundImageFix" result="shape"/>
<feGaussianBlur stdDeviation="23.4" result="effect1_foregroundBlur_21_230"/>
</filter>
<filter id="filter11_b_21_230" x="13.2363" y="77.5095" width="335.31" height="125.023" filterUnits="userSpaceOnUse" color-interpolation-filters="sRGB">
<feFlood flood-opacity="0" result="BackgroundImageFix"/>
<feGaussianBlur in="BackgroundImageFix" stdDeviation="15.1"/>
<feComposite in2="SourceAlpha" operator="in" result="effect1_backgroundBlur_21_230"/>
<feBlend mode="normal" in="SourceGraphic" in2="effect1_backgroundBlur_21_230" result="shape"/>
</filter>
</defs>
</svg>
